<svg xmlns="http://www.w3.org/2000/svg" xmlns:xlink="http://www.w3.org/1999/xlink" preserveAspectRatio="xMidYMid" width="14" height="14" viewBox="0 0 28 28">
  <defs>
    <style>

      .cls-2 {
      fill: #1eb8ff;
      }
    </style>
  </defs>
  <path d="M26.405,9.001 C26.405,9.001 26.403,9.003 26.402,9.003 C26.402,9.003 26.403,9.004 26.403,9.004 C26.403,9.004 24.596,10.832 24.596,10.832 C24.596,10.832 16.355,2.582 16.355,2.582 C16.355,2.582 18.169,0.772 18.169,0.772 C18.169,0.772 18.170,0.772 18.170,0.772 C18.170,0.772 18.171,0.771 18.172,0.770 C19.211,-0.268 20.929,-0.249 21.991,0.813 C21.991,0.813 26.360,5.184 26.360,5.184 C27.423,6.245 27.442,7.963 26.405,9.001 ZM12.035,23.375 C12.035,23.375 11.007,24.421 11.007,24.421 C11.007,24.421 0.009,27.180 0.009,27.180 C0.009,27.180 2.766,16.171 2.766,16.171 C2.766,16.171 3.086,15.852 3.086,15.852 C3.086,15.852 14.807,4.134 14.807,4.134 C14.807,4.134 23.071,12.337 23.071,12.337 C23.071,12.337 12.035,23.375 12.035,23.375 ZM6.880,20.396 C5.502,19.018 4.109,17.625 4.109,17.625 C4.109,17.625 2.841,22.678 2.841,22.678 C2.841,22.678 4.441,24.363 4.441,24.363 C4.441,24.363 9.565,23.079 9.565,23.079 C9.565,23.079 8.230,21.745 6.880,20.396 Z" id="path-1" class="cls-2" fill-rule="evenodd"/>
</svg>
