<?xml version="1.0" encoding="utf-8"?>
<!-- Generator: Adobe Illustrator 21.1.0, SVG Export Plug-In . SVG Version: 6.00 Build 0)  -->
<svg version="1.1" id="Layer_1" xmlns="http://www.w3.org/2000/svg" xmlns:xlink="http://www.w3.org/1999/xlink" x="0px" y="0px"
	 viewBox="0 0 2500 2500" style="enable-background:new 0 0 2500 2500;" xml:space="preserve">
<style type="text/css">
	.st0{fill:#7F7F7F;}
	.st1{fill:#FFFFFF;}
</style>
<title>Litecoin</title>
<path class="st0" d="M2500,1250c0,690.4-559.6,1250-1250,1250C559.7,2500,0,1940.4,0,1250C0,559.6,559.7,0,1250,0
	C1940.4,0,2500,559.6,2500,1250"/>
<path class="st0" d="M2234.6,1250c0,543.7-440.8,984.6-984.6,984.6c-543.8,0-984.6-440.9-984.6-984.6
	c0-543.8,440.9-984.6,984.6-984.6C1793.8,265.4,2234.6,706.2,2234.6,1250"/>
<path class="st1" d="M1177,1583.9l81.2-305.7l192.2-70.2l47.8-179.7l-1.6-4.5l-189.2,69.1l136.3-513.3H1057l-178.3,669.9
	l-148.9,54.4l-49.2,185.2l148.7-54.3l-105.1,394.8h1029l66-245.7L1177,1583.9"/>
</svg>
