<?xml version="1.0" encoding="utf-8"?> <!-- Generator: IcoMoon.io --> <!DOCTYPE svg PUBLIC "-//W3C//DTD SVG 1.1//EN" "http://www.w3.org/Graphics/SVG/1.1/DTD/svg11.dtd"> <svg width="20.244375228881836" height="20" viewBox="0 0 20.244375228881836 20" xmlns="http://www.w3.org/2000/svg" xmlns:xlink="http://www.w3.org/1999/xlink" fill="#e0322d"><g><path d="M 19.735,16.382l-7.499-15C 11.813,0.535, 10.947,0, 10,0s-1.813,0.535-2.236,1.382 l-7.499,15c-0.388,0.775-0.346,1.696, 0.109,2.433C 0.83,19.551, 1.634,20, 2.501,20l 14.998,0 c 0.867,0, 1.671-0.449, 2.126-1.185 C 20.081,18.078, 20.122,17.157, 19.735,16.382z M 11.249,16.875c0,0.346-0.279,0.625-0.625,0.625l-1.25,0 c-0.346,0-0.625-0.279-0.625-0.625l0-1.25 c0-0.346, 0.279-0.625, 0.625-0.625l 1.25,0 c 0.346,0, 0.625,0.279, 0.625,0.625L 11.249,16.875 z M 11.249,11.875c0,0.346-0.279,0.625-0.625,0.625l-1.25,0 c-0.346,0-0.625-0.279-0.625-0.625L 8.749,5.625 c0-0.345, 0.279-0.625, 0.625-0.625l 1.25,0 c 0.346,0, 0.625,0.28, 0.625,0.625 L 11.249,11.875 z"></path></g></svg>