<?xml version="1.0" encoding="UTF-8" standalone="no"?>
<svg
   xmlns:dc="http://purl.org/dc/elements/1.1/"
   xmlns:cc="http://creativecommons.org/ns#"
   xmlns:rdf="http://www.w3.org/1999/02/22-rdf-syntax-ns#"
   xmlns:svg="http://www.w3.org/2000/svg"
   xmlns="http://www.w3.org/2000/svg"
   xmlns:sodipodi="http://sodipodi.sourceforge.net/DTD/sodipodi-0.dtd"
   xmlns:inkscape="http://www.inkscape.org/namespaces/inkscape"
   id="svg"
   version="1.1"
   width="89"
   height="90"
   style="display:block"
   inkscape:version="0.91 r13725"
   sodipodi:docname="close-btn-white.svg">
  <metadata
     id="metadata9">
    <rdf:RDF>
      <cc:Work
         rdf:about="">
        <dc:format>image/svg+xml</dc:format>
        <dc:type
           rdf:resource="http://purl.org/dc/dcmitype/StillImage" />
        <dc:title></dc:title>
      </cc:Work>
    </rdf:RDF>
  </metadata>
  <defs
     id="defs7" />
  <sodipodi:namedview
     pagecolor="#ffffff"
     bordercolor="#666666"
     borderopacity="1"
     objecttolerance="10"
     gridtolerance="10"
     guidetolerance="10"
     inkscape:pageopacity="0"
     inkscape:pageshadow="2"
     inkscape:window-width="1920"
     inkscape:window-height="1028"
     id="namedview5"
     showgrid="false"
     inkscape:zoom="4.3610718"
     inkscape:cx="43.534408"
     inkscape:cy="66.021423"
     inkscape:window-x="0"
     inkscape:window-y="24"
     inkscape:window-maximized="1"
     inkscape:current-layer="svg" />
  <g
     id="svgg"
     inkscape:export-xdpi="45.080002"
     inkscape:export-ydpi="45.080002"
     transform="matrix(0.94616109,0,0,0.93779194,-149.15855,-71.409625)"
     style="fill:#ffffff;fill-opacity:1">
    <path
       id="path0"
       d="m 162.18,80.411 c -3.793,2.919 -2.606,9.198 2.102,11.119 1.034,0.422 2.205,1.692 3.427,3.717 1.45,2.402 2.458,3.399 4.6,4.55 2.12,1.14 2.956,1.96 3.683,3.613 0.954,2.171 3.031,4.112 6.098,5.698 0.933,0.482 1.933,1.5 2.223,2.261 0.677,1.783 5.464,6.391 8.107,7.805 1.044,0.559 1.128,0.986 1.128,5.737 l 0,5.133 -2.109,1.076 c -1.161,0.592 -2.845,1.914 -3.742,2.938 -0.898,1.025 -1.878,2.113 -2.178,2.418 -0.299,0.306 -0.976,1.291 -1.504,2.19 -0.528,0.898 -1.519,1.888 -2.203,2.2 -2.423,1.103 -5.243,3.799 -6.028,5.76 -0.584,1.46 -1.38,2.281 -2.999,3.094 -3.015,1.513 -4.406,2.89 -5.565,5.509 -0.694,1.57 -1.484,2.435 -2.683,2.937 -5.227,2.19 -6.377,7.882 -2.272,11.242 2.482,2.031 7.261,-0.381 9.669,-4.88 0.266,-0.497 1.116,-1.234 1.888,-1.636 2.173,-1.132 5.494,-4.472 6.805,-6.844 0.783,-1.417 1.853,-2.447 3.145,-3.029 2.462,-1.11 4.325,-3.037 5.38,-5.561 0.616,-1.476 1.358,-2.195 2.995,-2.906 2.586,-1.122 4.118,-2.678 5.674,-5.762 l 1.147,-2.274 5.677,0 5.678,0 1.121,2.221 c 1.553,3.078 2.072,3.614 5.202,5.381 1.963,1.108 2.962,2.069 3.508,3.377 0.838,2.004 3.812,4.875 6.04,5.829 0.78,0.334 1.419,0.754 1.42,0.932 0,0.179 0.522,0.971 1.161,1.762 0.638,0.79 1.973,2.457 2.967,3.704 0.993,1.247 2.666,2.626 3.716,3.064 1.05,0.439 2.188,1.327 2.528,1.974 3.357,6.379 8.12,7.276 11.081,2.087 1.61,-2.821 -0.408,-6.848 -4.477,-8.935 -1.168,-0.599 -2.112,-1.59 -2.534,-2.659 -0.96,-2.435 -3.008,-4.514 -5.522,-5.609 -1.635,-0.712 -2.379,-1.434 -2.995,-2.908 -1.073,-2.567 -3.15,-4.713 -5.473,-5.652 -1.33,-0.538 -2.253,-1.456 -3.197,-3.178 -1.347,-2.459 -3.894,-4.96 -6.934,-6.807 l -1.677,-1.019 0,-5.111 c 0,-5.728 -0.565,-4.746 5.223,-9.069 1.531,-1.143 2.689,-2.541 3.235,-3.905 0.665,-1.662 1.327,-2.337 3.037,-3.093 2.648,-1.171 4.653,-3.207 5.725,-5.814 0.617,-1.501 1.327,-2.17 3.12,-2.939 2.25,-0.964 5.018,-3.989 5.744,-6.275 0.173,-0.543 1.198,-1.439 2.278,-1.99 3.775,-1.926 5.854,-6.259 4.4,-9.173 -2.303,-4.616 -7.28,-4.058 -10.337,1.159 -1.003,1.712 -1.97,2.615 -3.423,3.196 -1.858,0.743 -2.738,1.661 -6.33,6.599 -0.552,0.76 -1.614,1.697 -2.358,2.082 -2.019,1.044 -5.915,5.064 -6.667,6.881 -0.432,1.044 -1.582,2.114 -3.332,3.101 -3.057,1.726 -3.782,2.481 -5.218,5.437 l -1.032,2.124 -5.678,0 -5.677,0 -1.043,-2.171 c -1.379,-2.87 -3.628,-5.156 -5.766,-5.861 -1.294,-0.427 -2.046,-1.185 -2.957,-2.98 -1.322,-2.603 -3.864,-5.177 -6.418,-6.498 -0.883,-0.456 -1.989,-1.581 -2.458,-2.498 -1.187,-2.325 -3.716,-4.895 -5.986,-6.086 -1.055,-0.553 -2.161,-1.46 -2.458,-2.015 -2.434,-4.547 -7.046,-6.814 -9.702,-4.77"
       inkscape:connector-curvature="0"
       style="fill:#ffffff;fill-rule:evenodd;stroke:none;fill-opacity:1" />
  </g>
</svg>
