<?xml version="1.0" encoding="UTF-8" standalone="no"?>
<svg
   xmlns:dc="http://purl.org/dc/elements/1.1/"
   xmlns:cc="http://creativecommons.org/ns#"
   xmlns:rdf="http://www.w3.org/1999/02/22-rdf-syntax-ns#"
   xmlns:svg="http://www.w3.org/2000/svg"
   xmlns="http://www.w3.org/2000/svg"
   xmlns:sodipodi="http://sodipodi.sourceforge.net/DTD/sodipodi-0.dtd"
   xmlns:inkscape="http://www.inkscape.org/namespaces/inkscape"
   id="svg"
   version="1.1"
   width="90"
   height="90"
   style="display:block"
   inkscape:version="0.91 r13725"
   sodipodi:docname="max-btn.svg">
  <metadata
     id="metadata9">
    <rdf:RDF>
      <cc:Work
         rdf:about="">
        <dc:format>image/svg+xml</dc:format>
        <dc:type
           rdf:resource="http://purl.org/dc/dcmitype/StillImage" />
        <dc:title></dc:title>
      </cc:Work>
    </rdf:RDF>
  </metadata>
  <defs
     id="defs7" />
  <sodipodi:namedview
     pagecolor="#ffffff"
     bordercolor="#666666"
     borderopacity="1"
     objecttolerance="10"
     gridtolerance="10"
     guidetolerance="10"
     inkscape:pageopacity="0"
     inkscape:pageshadow="2"
     inkscape:window-width="1920"
     inkscape:window-height="1028"
     id="namedview5"
     showgrid="false"
     inkscape:zoom="1.3057712"
     inkscape:cx="-10.732104"
     inkscape:cy="-25.699149"
     inkscape:window-x="0"
     inkscape:window-y="24"
     inkscape:window-maximized="1"
     inkscape:current-layer="svg" />
  <g
     style="display:block"
     id="g4275"
     transform="matrix(0.88053006,0,0,0.88552076,-126.91864,-65.65991)">
    <g
       id="svgg">
      <path
         d="m 154.75,81.051 c -3.128,1.825 -3.008,0.068 -3.008,44.003 l 0,40.028 1.411,1.717 c 0.776,0.944 1.647,1.888 1.935,2.096 0.606,0.438 79.488,0.527 81.041,0.092 0.568,-0.16 1.671,-1.123 2.452,-2.141 l 1.419,-1.851 0,-39.985 c 0,-44.47 0.143,-42.648 -3.454,-44.015 -1.735,-0.66 -80.662,-0.606 -81.796,0.056 m 73.241,8.755 c 0.486,0.568 1.13,1.033 1.432,1.033 2.457,0 3.869,62.534 1.501,66.501 -1.93,3.234 -1.29,3.176 -35.125,3.176 -33.694,0 -33.082,0.054 -34.918,-3.056 -1.344,-2.274 -1.352,-63.139 -0.009,-65.056 1.153,-1.647 2.448,-2.919 3.322,-3.266 2.447,-0.972 62.935,-0.338 63.797,0.668"
         id="path0"
         inkscape:connector-curvature="0"
         style="fill:#0f0f0f;fill-rule:evenodd;stroke:none" />
      <path
         d="m 153.433,79.986 c -3.344,2.039 -3.239,0.589 -3.239,45.001 0,44.894 -0.141,43.137 3.592,45.067 2.292,1.185 81.878,1.185 84.17,0 3.732,-1.93 3.592,-0.173 3.592,-45.067 0,-44.412 0.105,-42.962 -3.239,-45.001 -2.603,-1.587 -82.273,-1.587 -84.876,0 m 83.113,1.009 C 240.143,82.362 240,80.54 240,125.01 l 0,39.985 -1.419,1.851 c -0.781,1.018 -1.884,1.981 -2.452,2.141 -1.553,0.435 -80.435,0.346 -81.041,-0.092 -0.288,-0.208 -1.159,-1.152 -1.935,-2.096 l -1.411,-1.717 0,-40.028 c 0,-43.935 -0.12,-42.178 3.008,-44.003 1.134,-0.662 80.061,-0.716 81.796,-0.056 m -72.352,8.143 c -0.874,0.347 -2.169,1.619 -3.322,3.266 -1.343,1.917 -1.335,62.782 0.009,65.056 1.836,3.11 1.224,3.056 34.918,3.056 33.835,0 33.195,0.058 35.125,-3.176 2.368,-3.967 0.956,-66.501 -1.501,-66.501 -0.302,0 -0.946,-0.465 -1.432,-1.033 -0.862,-1.006 -61.35,-1.64 -63.797,-0.668 m 64.322,3.137 1.678,1.434 0,31.194 0,31.195 -1.678,1.434 -1.677,1.433 -30.846,0.002 c -31.886,10e-4 -32.078,-0.011 -33.773,-2.064 -0.93,-1.126 -0.928,-62.876 0.002,-64 1.647,-1.99 1.856,-2.003 33.649,-2.033 l 30.968,-0.029 1.677,1.434"
         id="path1-3"
         inkscape:connector-curvature="0"
         style="fill:#8f8f8f;fill-rule:evenodd;stroke:none" />
      <path
         d="m 153.501,77.59 c -3.36,0.96 -4.788,2.428 -5.375,5.525 -0.744,3.918 -0.687,80.154 0.062,83.645 1.347,6.283 0.272,6.143 47.38,6.143 47.041,0 46.475,0.066 47.308,-5.489 0.186,-1.239 0.544,-2.253 0.796,-2.253 0.262,0 0.457,-17.201 0.457,-40.258 0,-22.425 -0.198,-40.258 -0.448,-40.258 -0.247,0 -0.578,-0.964 -0.736,-2.143 -0.389,-2.901 -2.025,-4.419 -5.468,-5.072 -4.113,-0.78 -81.201,-0.633 -83.976,0.16 m 84.808,2.396 c 3.344,2.039 3.239,0.589 3.239,45.001 0,44.894 0.14,43.137 -3.592,45.067 -2.292,1.185 -81.878,1.185 -84.17,0 -3.733,-1.93 -3.592,-0.173 -3.592,-45.067 0,-44.412 -0.105,-42.962 3.239,-45.001 2.603,-1.587 82.273,-1.587 84.876,0 m -74.426,11.528 c -2.362,1.424 -2.302,0.543 -2.302,33.389 0,24.061 0.147,31.404 0.639,32 1.695,2.053 1.887,2.065 33.773,2.064 l 30.846,-0.002 1.677,-1.433 1.678,-1.434 0,-31.195 0,-31.194 -1.678,-1.434 -1.677,-1.434 -30.968,0.029 c -22.999,0.022 -31.23,0.188 -31.988,0.644 m 63.73,33.389 0,32 -31.742,0 -31.742,0 0,-32 0,-32 31.742,0 31.742,0 0,32"
         id="path2-5"
         inkscape:connector-curvature="0"
         style="fill:#bfbfbf;fill-rule:evenodd;stroke:none" />
    </g>
  </g>
</svg>
