<?xml version="1.0" encoding="UTF-8" standalone="no"?>
<svg
   xmlns:dc="http://purl.org/dc/elements/1.1/"
   xmlns:cc="http://creativecommons.org/ns#"
   xmlns:rdf="http://www.w3.org/1999/02/22-rdf-syntax-ns#"
   xmlns:svg="http://www.w3.org/2000/svg"
   xmlns="http://www.w3.org/2000/svg"
   xmlns:sodipodi="http://sodipodi.sourceforge.net/DTD/sodipodi-0.dtd"
   xmlns:inkscape="http://www.inkscape.org/namespaces/inkscape"
   id="svg"
   version="1.1"
   width="90"
   height="90"
   style="display:block"
   inkscape:version="0.91 r13725"
   sodipodi:docname="max-btn-fullscreen.svg">
  <metadata
     id="metadata9">
    <rdf:RDF>
      <cc:Work
         rdf:about="">
        <dc:format>image/svg+xml</dc:format>
        <dc:type
           rdf:resource="http://purl.org/dc/dcmitype/StillImage" />
        <dc:title></dc:title>
      </cc:Work>
    </rdf:RDF>
  </metadata>
  <defs
     id="defs7" />
  <sodipodi:namedview
     pagecolor="#ffffff"
     bordercolor="#666666"
     borderopacity="1"
     objecttolerance="10"
     gridtolerance="10"
     guidetolerance="10"
     inkscape:pageopacity="0"
     inkscape:pageshadow="2"
     inkscape:window-width="1920"
     inkscape:window-height="1028"
     id="namedview5"
     showgrid="false"
     inkscape:zoom="1.3057712"
     inkscape:cx="-10.732104"
     inkscape:cy="-25.699149"
     inkscape:window-x="0"
     inkscape:window-y="24"
     inkscape:window-maximized="1"
     inkscape:current-layer="svg" />
  <g
     style="display:block"
     id="g4323"
     transform="matrix(0.87696689,0,0,0.87594325,-127.10651,-32.413827)">
    <g
       id="svgg-2">
      <path
         d="m 173.2,46.336 c 0,0.184 -0.45,0.541 -1,0.791 -0.55,0.251 -1,0.73 -1,1.064 0,0.335 -0.166,0.609 -0.369,0.609 -0.203,0 -0.428,2.445 -0.5,5.433 -0.105,4.351 -0.255,5.526 -0.756,5.9 -0.343,0.257 -0.743,0.782 -0.887,1.167 -0.145,0.385 -0.519,0.7 -0.833,0.7 -0.313,0 -0.673,0.27 -0.8,0.6 -0.126,0.33 -0.506,0.6 -0.842,0.6 -0.337,0 -0.613,0.166 -0.613,0.369 0,0.203 -2.431,0.428 -5.402,0.5 l -5.403,0.131 -1.004,1.17 -1.005,1.171 0.107,31.629 0.107,31.63 1,1 1,1 31,0.116 c 34.252,0.129 33.317,0.171 34.07,-1.529 0.289,-0.653 0.661,-1.187 0.828,-1.187 0.166,0 0.302,-2.222 0.302,-4.939 0,-4.364 0.093,-5.046 0.8,-5.861 0.44,-0.507 0.8,-1.169 0.8,-1.471 0,-0.302 0.464,-0.725 1.03,-0.94 0.567,-0.216 1.3,-0.661 1.629,-0.991 0.467,-0.467 1.69,-0.598 5.57,-0.598 2.734,0 4.971,-0.136 4.971,-0.302 0,-0.167 0.521,-0.533 1.157,-0.815 1.685,-0.745 1.632,0.317 1.632,-33.083 0,-33.4 0.053,-32.338 -1.632,-33.083 C 236.521,46.835 236,46.469 236,46.302 236,46.136 221.87,46 204.6,46 c -17.27,0 -31.4,0.151 -31.4,0.336 m 54.4,6.064 c 0,0.22 0.242,0.4 0.539,0.4 0.296,0 0.954,0.36 1.461,0.8 0.507,0.44 1.075,0.8 1.261,0.8 0.187,0 0.339,0.261 0.339,0.58 0,0.319 0.315,0.757 0.7,0.972 0.654,0.366 0.7,1.944 0.7,24.248 0,22.304 -0.046,23.882 -0.7,24.248 -0.385,0.215 -0.7,0.653 -0.7,0.972 0,0.319 -0.152,0.58 -0.339,0.58 -0.186,0 -0.754,0.36 -1.261,0.8 -0.507,0.44 -1.165,0.8 -1.461,0.8 -0.297,0 -0.539,0.18 -0.539,0.4 0,0.22 -0.278,0.4 -0.617,0.4 -0.566,0 -0.893,-0.203 -2.297,-1.422 -0.267,-0.233 -0.801,-0.542 -1.186,-0.688 -0.385,-0.146 -0.7,-0.532 -0.7,-0.858 0,-0.326 -0.315,-0.768 -0.7,-0.984 -0.649,-0.363 -0.708,-1.764 -0.812,-19.049 -0.07,-11.758 -0.26,-18.832 -0.513,-19.128 -0.221,-0.259 -0.652,-0.831 -0.956,-1.271 -0.539,-0.778 -1.07,-0.803 -19.387,-0.911 -11.843,-0.07 -18.832,-0.256 -18.832,-0.5 0,-0.214 -0.276,-0.389 -0.613,-0.389 -0.336,0 -0.716,-0.27 -0.842,-0.6 -0.127,-0.33 -0.487,-0.6 -0.8,-0.6 -0.314,0 -0.688,-0.315 -0.833,-0.7 -0.144,-0.385 -0.539,-0.907 -0.878,-1.161 -0.383,-0.287 -0.616,-1.095 -0.616,-2.139 0,-1.044 0.233,-1.852 0.616,-2.139 0.339,-0.254 0.734,-0.776 0.878,-1.161 0.145,-0.385 0.519,-0.7 0.833,-0.7 0.313,0 0.673,-0.27 0.8,-0.6 0.126,-0.33 0.506,-0.6 0.842,-0.6 0.337,0 0.613,-0.18 0.613,-0.4 0,-0.262 7.933,-0.4 23,-0.4 15.067,0 23,0.138 23,0.4 m -16.352,18.5 c 0.216,0.385 0.658,0.7 0.984,0.7 0.326,0 0.712,0.315 0.858,0.7 0.146,0.385 0.455,0.919 0.688,1.186 0.232,0.267 0.647,0.755 0.922,1.083 0.641,0.766 0.739,46.231 0.1,46.231 -0.22,0 -0.4,0.242 -0.4,0.539 0,0.296 -0.36,0.954 -0.8,1.461 -0.44,0.507 -0.8,1.075 -0.8,1.261 0,0.187 -0.261,0.339 -0.58,0.339 -0.319,0 -0.757,0.315 -0.972,0.7 -0.366,0.654 -1.944,0.7 -24.248,0.7 -22.304,0 -23.882,-0.046 -24.248,-0.7 -0.215,-0.385 -0.587,-0.7 -0.825,-0.7 -0.617,0 -1.907,-1.581 -2.181,-2.674 -0.128,-0.509 -0.393,-0.926 -0.589,-0.926 -0.205,0 -0.357,-9.798 -0.357,-23 0,-14.005 0.146,-23 0.374,-23 0.206,0 0.6,-0.624 0.876,-1.387 0.335,-0.926 0.876,-1.518 1.626,-1.779 0.618,-0.216 1.124,-0.569 1.124,-0.784 0,-1.14 47.81,-1.091 48.448,0.05"
         id="path0-9"
         inkscape:connector-curvature="0"
         style="fill:#1f1f1f;fill-rule:evenodd;stroke:none" />
      <path
         d="m 172.8,43.557 c 0,0.196 -0.486,0.478 -1.08,0.627 -1.3,0.327 -2.821,1.883 -3.16,3.233 -0.136,0.541 -0.407,0.983 -0.603,0.983 -0.197,0 -0.357,2.124 -0.357,4.72 0,4.75 -0.466,6.871 -1.513,6.877 -0.281,0.002 -0.616,0.273 -0.742,0.603 -0.187,0.486 -1.122,0.6 -4.928,0.6 -6.203,0 -6.83,0.232 -9.711,3.59 -0.786,0.917 -0.948,64.911 -0.166,65.693 0.305,0.305 0.671,0.922 0.814,1.372 0.143,0.449 0.751,1.07 1.353,1.38 0.601,0.31 1.221,0.744 1.378,0.964 0.187,0.262 11.584,0.401 32.915,0.401 21.331,0 32.728,-0.139 32.915,-0.401 0.157,-0.22 0.775,-0.653 1.374,-0.962 0.629,-0.324 1.277,-1.127 1.531,-1.899 0.243,-0.736 0.608,-1.338 0.811,-1.338 0.206,0 0.369,-2.208 0.369,-4.987 l 0,-4.986 1.413,-1.414 1.414,-1.413 4.986,0 c 2.779,0 4.987,-0.163 4.987,-0.369 0,-0.203 0.602,-0.568 1.338,-0.811 0.772,-0.254 1.575,-0.902 1.899,-1.531 0.309,-0.599 0.742,-1.217 0.962,-1.374 0.262,-0.187 0.401,-11.584 0.401,-32.915 0,-21.331 -0.139,-32.728 -0.401,-32.915 -0.22,-0.157 -0.653,-0.775 -0.962,-1.374 -0.324,-0.629 -1.127,-1.277 -1.899,-1.531 -0.736,-0.243 -1.338,-0.608 -1.338,-0.811 0,-0.222 -12.727,-0.369 -32,-0.369 -18.473,0 -32,0.151 -32,0.357 m 63.2,2.745 c 0,0.167 0.521,0.533 1.157,0.815 1.685,0.745 1.632,-0.317 1.632,33.083 0,33.4 0.053,32.338 -1.632,33.083 -0.636,0.282 -1.157,0.648 -1.157,0.815 0,0.166 -2.237,0.302 -4.971,0.302 -3.88,0 -5.103,0.131 -5.57,0.598 -0.329,0.33 -1.062,0.775 -1.629,0.991 -0.566,0.215 -1.03,0.638 -1.03,0.94 0,0.302 -0.36,0.964 -0.8,1.471 -0.707,0.815 -0.8,1.497 -0.8,5.861 0,2.717 -0.136,4.939 -0.302,4.939 -0.167,0 -0.539,0.534 -0.828,1.187 -0.753,1.7 0.182,1.658 -34.07,1.529 l -31,-0.116 -1,-1 -1,-1 -0.107,-31.63 -0.107,-31.629 1.005,-1.171 1.004,-1.17 5.403,-0.131 c 2.971,-0.072 5.402,-0.297 5.402,-0.5 0,-0.203 0.276,-0.369 0.613,-0.369 0.336,0 0.716,-0.27 0.842,-0.6 0.127,-0.33 0.487,-0.6 0.8,-0.6 0.314,0 0.688,-0.315 0.833,-0.7 0.144,-0.385 0.544,-0.91 0.887,-1.167 0.501,-0.374 0.651,-1.549 0.756,-5.9 0.072,-2.988 0.297,-5.433 0.5,-5.433 0.203,0 0.369,-0.274 0.369,-0.609 0,-0.334 0.45,-0.813 1,-1.064 0.55,-0.25 1,-0.607 1,-0.791 0,-0.185 14.13,-0.336 31.4,-0.336 17.27,0 31.4,0.136 31.4,0.302 M 181.6,52.4 c 0,0.22 -0.276,0.4 -0.613,0.4 -0.336,0 -0.716,0.27 -0.842,0.6 -0.127,0.33 -0.487,0.6 -0.8,0.6 -0.314,0 -0.688,0.315 -0.833,0.7 -0.144,0.385 -0.539,0.907 -0.878,1.161 -0.383,0.287 -0.616,1.095 -0.616,2.139 0,1.044 0.233,1.852 0.616,2.139 0.339,0.254 0.734,0.776 0.878,1.161 0.145,0.385 0.519,0.7 0.833,0.7 0.313,0 0.673,0.27 0.8,0.6 0.126,0.33 0.506,0.6 0.842,0.6 0.337,0 0.613,0.175 0.613,0.389 0,0.244 6.989,0.43 18.832,0.5 18.317,0.108 18.848,0.133 19.387,0.911 0.304,0.44 0.735,1.012 0.956,1.271 0.253,0.296 0.443,7.37 0.513,19.128 0.104,17.285 0.163,18.686 0.812,19.049 0.385,0.216 0.7,0.658 0.7,0.984 0,0.326 0.315,0.712 0.7,0.858 0.385,0.146 0.919,0.455 1.186,0.688 1.404,1.219 1.731,1.422 2.297,1.422 0.339,0 0.617,-0.18 0.617,-0.4 0,-0.22 0.242,-0.4 0.539,-0.4 0.296,0 0.954,-0.36 1.461,-0.8 0.507,-0.44 1.075,-0.8 1.261,-0.8 0.187,0 0.339,-0.261 0.339,-0.58 0,-0.319 0.315,-0.757 0.7,-0.972 1.083,-0.606 1.083,-47.89 0,-48.496 -0.385,-0.215 -0.7,-0.653 -0.7,-0.972 0,-0.319 -0.152,-0.58 -0.339,-0.58 -0.186,0 -0.754,-0.36 -1.261,-0.8 -0.507,-0.44 -1.165,-0.8 -1.461,-0.8 -0.297,0 -0.539,-0.18 -0.539,-0.4 0,-0.262 -7.933,-0.4 -23,-0.4 -15.067,0 -23,0.138 -23,0.4 m 45.745,3 c 0.126,0.33 0.506,0.6 0.842,0.6 0.337,0 0.613,0.251 0.613,0.557 0,0.307 0.27,0.661 0.6,0.788 0.524,0.201 0.6,3.113 0.6,22.855 0,19.742 -0.076,22.654 -0.6,22.855 -0.33,0.127 -0.6,0.481 -0.6,0.788 0,0.306 -0.261,0.557 -0.58,0.557 -0.319,0 -0.764,0.315 -0.988,0.7 -0.224,0.385 -0.413,0.487 -0.42,0.227 -0.007,-0.26 -0.372,-0.587 -0.812,-0.727 -0.44,-0.14 -0.8,-0.493 -0.8,-0.784 0,-0.292 -0.27,-0.634 -0.6,-0.761 -0.521,-0.2 -0.6,-2.645 -0.6,-18.642 C 224,73.897 223.847,66 223.643,66 c -0.196,0 -0.461,-0.419 -0.59,-0.931 -0.927,-3.695 -1.949,-3.869 -22.713,-3.869 -11.461,0 -17.94,-0.142 -17.94,-0.392 0,-0.216 -0.405,-0.495 -0.9,-0.619 -1.274,-0.32 -1.957,-1.908 -1.362,-3.17 0.254,-0.54 0.867,-1.084 1.362,-1.208 0.495,-0.124 0.9,-0.403 0.9,-0.619 0,-0.723 44.667,-0.516 44.945,0.208 M 163.5,70.271 c -0.385,0.103 -0.7,0.364 -0.7,0.579 0,0.215 -0.506,0.568 -1.124,0.784 -0.75,0.261 -1.291,0.853 -1.626,1.779 -0.276,0.763 -0.67,1.387 -0.876,1.387 -0.228,0 -0.374,8.995 -0.374,23 0,13.202 0.152,23 0.357,23 0.196,0 0.461,0.417 0.589,0.926 0.274,1.093 1.564,2.674 2.181,2.674 0.238,0 0.61,0.315 0.825,0.7 0.366,0.654 1.944,0.7 24.248,0.7 22.304,0 23.882,-0.046 24.248,-0.7 0.215,-0.385 0.653,-0.7 0.972,-0.7 0.319,0 0.58,-0.152 0.58,-0.339 0,-0.186 0.36,-0.754 0.8,-1.261 0.44,-0.507 0.8,-1.165 0.8,-1.461 0,-0.297 0.18,-0.539 0.4,-0.539 0.639,0 0.541,-45.465 -0.1,-46.231 -0.275,-0.328 -0.69,-0.816 -0.922,-1.083 -0.233,-0.267 -0.542,-0.801 -0.688,-1.186 -0.146,-0.385 -0.532,-0.7 -0.858,-0.7 -0.326,0 -0.768,-0.315 -0.984,-0.7 -0.377,-0.674 -45.368,-1.267 -47.748,-0.629 m 46.355,3.129 c 0.127,0.33 0.469,0.6 0.761,0.6 0.291,0 0.644,0.36 0.784,0.8 0.14,0.44 0.422,0.8 0.627,0.8 0.705,0 0.479,44.674 -0.227,44.945 -0.33,0.126 -0.6,0.506 -0.6,0.842 0,0.337 -0.251,0.613 -0.557,0.613 -0.307,0 -0.661,0.27 -0.788,0.6 -0.348,0.909 -45.362,0.909 -45.71,0 -0.127,-0.33 -0.481,-0.6 -0.788,-0.6 -0.306,0 -0.557,-0.276 -0.557,-0.613 0,-0.336 -0.27,-0.716 -0.6,-0.842 -0.706,-0.271 -0.932,-44.945 -0.227,-44.945 0.205,0 0.487,-0.36 0.627,-0.8 0.14,-0.44 0.493,-0.8 0.784,-0.8 0.292,0 0.634,-0.27 0.761,-0.6 0.201,-0.524 3.113,-0.6 22.855,-0.6 19.742,0 22.654,0.076 22.855,0.6"
         id="path1"
         inkscape:connector-curvature="0"
         style="fill:#8f8f8f;fill-rule:evenodd;stroke:none" />
      <path
         d="m 172.3,41.88 c -0.605,0.095 -1.1,0.322 -1.1,0.503 0,0.182 -0.455,0.444 -1.01,0.584 -1.514,0.38 -2.538,1.619 -3.085,3.735 -0.271,1.044 -0.624,1.995 -0.785,2.114 -0.162,0.118 -0.345,2.458 -0.407,5.2 L 165.8,59 l -5.1,0.112 c -2.952,0.065 -5.1,0.275 -5.1,0.5 0,0.213 -0.527,0.388 -1.171,0.388 -0.645,0 -1.41,0.227 -1.7,0.505 -0.291,0.277 -1.001,0.713 -1.578,0.968 -0.621,0.274 -1.164,0.923 -1.331,1.591 -0.156,0.62 -0.494,1.258 -0.752,1.417 -0.634,0.393 -0.679,66.606 -0.045,67.034 0.232,0.157 0.657,0.864 0.943,1.572 0.286,0.707 0.906,1.407 1.377,1.554 0.471,0.147 0.97,0.443 1.108,0.658 1.114,1.731 69.149,1.602 69.149,-0.132 0,-0.202 0.219,-0.367 0.487,-0.367 0.604,0 2.313,-1.943 2.313,-2.629 0,-0.277 0.211,-0.575 0.469,-0.661 0.318,-0.106 0.543,-2.146 0.7,-6.333 L 225.8,119 l 6.177,-0.231 c 4.187,-0.157 6.227,-0.382 6.333,-0.7 0.086,-0.258 0.384,-0.469 0.661,-0.469 0.686,0 2.629,-1.709 2.629,-2.313 0,-0.268 0.165,-0.487 0.367,-0.487 1.056,0 1.233,-4.977 1.233,-34.6 0,-29.623 -0.177,-34.6 -1.233,-34.6 -0.202,0 -0.367,-0.219 -0.367,-0.487 0,-0.604 -1.943,-2.313 -2.629,-2.313 -0.277,0 -0.579,-0.225 -0.671,-0.5 -0.162,-0.486 -63.045,-0.886 -66,-0.42 m 64.5,1.689 c 0,0.203 0.602,0.568 1.338,0.811 0.772,0.254 1.575,0.902 1.899,1.531 0.309,0.599 0.742,1.217 0.962,1.374 0.262,0.187 0.401,11.584 0.401,32.915 0,21.331 -0.139,32.728 -0.401,32.915 -0.22,0.157 -0.653,0.775 -0.962,1.374 -0.324,0.629 -1.127,1.277 -1.899,1.531 -0.736,0.243 -1.338,0.608 -1.338,0.811 0,0.206 -2.208,0.369 -4.987,0.369 l -4.986,0 -1.414,1.413 -1.413,1.414 0,4.986 c 0,2.779 -0.163,4.987 -0.369,4.987 -0.203,0 -0.568,0.602 -0.811,1.338 -0.254,0.772 -0.902,1.575 -1.531,1.899 -0.599,0.309 -1.217,0.742 -1.374,0.962 -0.187,0.262 -11.584,0.401 -32.915,0.401 -21.331,0 -32.728,-0.139 -32.915,-0.401 -0.157,-0.22 -0.777,-0.654 -1.378,-0.964 -0.602,-0.31 -1.21,-0.931 -1.353,-1.38 -0.143,-0.45 -0.509,-1.067 -0.814,-1.372 -0.782,-0.782 -0.62,-64.776 0.166,-65.693 2.881,-3.358 3.508,-3.59 9.711,-3.59 3.806,0 4.741,-0.114 4.928,-0.6 0.126,-0.33 0.461,-0.601 0.742,-0.603 1.047,-0.006 1.513,-2.127 1.513,-6.877 0,-2.596 0.16,-4.72 0.357,-4.72 0.196,0 0.467,-0.442 0.603,-0.983 0.339,-1.35 1.86,-2.906 3.16,-3.233 0.594,-0.149 1.08,-0.431 1.08,-0.627 0,-0.206 13.527,-0.357 32,-0.357 19.273,0 32,0.147 32,0.369 m -54.4,11.623 c 0,0.216 -0.405,0.495 -0.9,0.619 -0.495,0.124 -1.108,0.668 -1.362,1.208 -0.595,1.262 0.088,2.85 1.362,3.17 0.495,0.124 0.9,0.403 0.9,0.619 0,0.25 6.479,0.392 17.94,0.392 20.764,0 21.786,0.174 22.713,3.869 0.129,0.512 0.394,0.931 0.59,0.931 0.204,0 0.357,7.897 0.357,18.413 0,15.997 0.079,18.442 0.6,18.642 0.33,0.127 0.6,0.469 0.6,0.761 0,0.291 0.36,0.644 0.8,0.784 0.44,0.14 0.805,0.467 0.812,0.727 0.007,0.26 0.196,0.158 0.42,-0.227 0.224,-0.385 0.669,-0.7 0.988,-0.7 0.319,0 0.58,-0.251 0.58,-0.557 0,-0.307 0.27,-0.661 0.6,-0.788 0.524,-0.201 0.6,-3.113 0.6,-22.855 0,-19.742 -0.076,-22.654 -0.6,-22.855 -0.33,-0.127 -0.6,-0.481 -0.6,-0.788 0,-0.306 -0.276,-0.557 -0.613,-0.557 -0.336,0 -0.716,-0.27 -0.842,-0.6 C 227.067,54.676 182.4,54.469 182.4,55.192 m 45.367,1.851 c 0.567,0.217 0.633,2.634 0.633,23.192 l 0,22.95 -1.029,0.258 c -1.709,0.429 -1.73,0.212 -1.852,-19.559 -0.088,-14.058 -0.243,-19.19 -0.587,-19.403 -0.258,-0.159 -0.591,-0.775 -0.74,-1.369 -0.165,-0.658 -0.724,-1.281 -1.431,-1.594 -0.639,-0.282 -1.161,-0.647 -1.161,-0.811 0,-0.164 -0.72,-0.413 -1.6,-0.553 -0.88,-0.141 -1.6,-0.413 -1.6,-0.605 0,-0.194 -8.203,-0.349 -18.413,-0.349 -19.542,0 -19.341,0.019 -18.642,-1.8 0.237,-0.618 44.849,-0.961 46.422,-0.357 M 164.145,73.4 c -0.127,0.33 -0.469,0.6 -0.761,0.6 -0.291,0 -0.644,0.36 -0.784,0.8 -0.14,0.44 -0.422,0.8 -0.627,0.8 -0.705,0 -0.479,44.674 0.227,44.945 0.33,0.126 0.6,0.506 0.6,0.842 0,0.337 0.251,0.613 0.557,0.613 0.307,0 0.661,0.27 0.788,0.6 0.201,0.524 3.113,0.6 22.855,0.6 19.742,0 22.654,-0.076 22.855,-0.6 0.127,-0.33 0.481,-0.6 0.788,-0.6 0.306,0 0.557,-0.276 0.557,-0.613 0,-0.336 0.27,-0.716 0.6,-0.842 0.706,-0.271 0.932,-44.945 0.227,-44.945 -0.205,0 -0.487,-0.36 -0.627,-0.8 -0.14,-0.44 -0.493,-0.8 -0.784,-0.8 -0.292,0 -0.634,-0.27 -0.761,-0.6 -0.201,-0.524 -3.113,-0.6 -22.855,-0.6 -19.742,0 -22.654,0.076 -22.855,0.6 m 46.166,23.8 c 0.06,12.43 0.012,23.005 -0.108,23.5 l -0.218,0.9 -22.821,0 c -19.245,0 -22.911,-0.09 -23.393,-0.571 -0.794,-0.794 -0.863,-46.043 -0.071,-46.366 0.275,-0.112 10.85,-0.172 23.5,-0.133 l 23,0.07 0.111,22.6"
         id="path2"
         inkscape:connector-curvature="0"
         style="fill:#bfbfbf;fill-rule:evenodd;stroke:none" />
      <path
         d="m 173.2,40.8 c 0,0.22 -0.873,0.4 -1.94,0.4 -2.319,0 -4.46,0.675 -4.46,1.406 0,0.29 -0.2,0.594 -0.445,0.676 -0.57,0.19 -1.106,5.306 -1.133,10.818 l -0.022,4.3 -4.3,0.022 c -5.512,0.027 -10.628,0.563 -10.818,1.133 C 150,59.8 149.678,60 149.367,60 c -0.312,0 -0.567,0.257 -0.567,0.571 0,0.315 -0.315,0.887 -0.7,1.272 -0.882,0.882 -1.109,71.133 -0.232,71.676 0.258,0.159 0.588,0.767 0.735,1.35 0.176,0.703 0.625,1.152 1.328,1.328 0.583,0.147 1.191,0.477 1.35,0.735 0.418,0.675 71.02,0.675 71.438,0 0.159,-0.258 0.758,-0.586 1.331,-0.73 1.223,-0.307 1.95,-2.227 1.95,-5.148 0,-1.02 0.18,-1.854 0.4,-1.854 0.243,0 0.4,-1.8 0.4,-4.6 l 0,-4.6 4.6,0 c 2.8,0 4.6,-0.157 4.6,-0.4 0,-0.22 0.834,-0.4 1.854,-0.4 2.921,0 4.841,-0.727 5.148,-1.95 0.144,-0.573 0.472,-1.172 0.73,-1.331 0.675,-0.418 0.675,-71.02 0,-71.438 -0.258,-0.159 -0.586,-0.758 -0.73,-1.331 -0.307,-1.223 -2.227,-1.95 -5.148,-1.95 -1.02,0 -1.854,-0.18 -1.854,-0.4 0,-0.263 -10.733,-0.4 -31.4,-0.4 -20.667,0 -31.4,0.137 -31.4,0.4 m 65.1,1.5 c 0.092,0.275 0.394,0.5 0.671,0.5 0.686,0 2.629,1.709 2.629,2.313 0,0.268 0.165,0.487 0.367,0.487 1.056,0 1.233,4.977 1.233,34.6 0,29.623 -0.177,34.6 -1.233,34.6 -0.202,0 -0.367,0.219 -0.367,0.487 0,0.604 -1.943,2.313 -2.629,2.313 -0.277,0 -0.575,0.211 -0.661,0.469 -0.106,0.318 -2.146,0.543 -6.333,0.7 L 225.8,119 l -0.231,6.177 c -0.157,4.187 -0.382,6.227 -0.7,6.333 -0.258,0.086 -0.469,0.384 -0.469,0.661 0,0.686 -1.709,2.629 -2.313,2.629 -0.268,0 -0.487,0.165 -0.487,0.367 0,1.734 -68.035,1.863 -69.149,0.132 -0.138,-0.215 -0.637,-0.511 -1.108,-0.658 -0.471,-0.147 -1.091,-0.847 -1.377,-1.554 -0.286,-0.708 -0.711,-1.415 -0.943,-1.572 -0.634,-0.428 -0.589,-66.641 0.045,-67.034 0.258,-0.159 0.596,-0.797 0.752,-1.417 0.167,-0.668 0.71,-1.317 1.331,-1.591 0.577,-0.255 1.287,-0.691 1.578,-0.968 0.29,-0.278 1.055,-0.505 1.7,-0.505 0.644,0 1.171,-0.175 1.171,-0.388 0,-0.225 2.148,-0.435 5.1,-0.5 l 5.1,-0.112 0.113,-4.984 c 0.062,-2.742 0.245,-5.082 0.407,-5.2 0.161,-0.119 0.514,-1.07 0.785,-2.114 0.547,-2.116 1.571,-3.355 3.085,-3.735 0.555,-0.14 1.01,-0.402 1.01,-0.584 0,-0.893 66.803,-0.976 67.1,-0.083 m -56.955,15.1 c -0.699,1.819 -0.9,1.8 18.642,1.8 10.21,0 18.413,0.155 18.413,0.349 0,0.192 0.72,0.464 1.6,0.605 0.88,0.14 1.6,0.389 1.6,0.553 0,0.164 0.522,0.529 1.161,0.811 0.707,0.313 1.266,0.936 1.431,1.594 0.149,0.594 0.482,1.21 0.74,1.369 0.344,0.213 0.499,5.345 0.587,19.403 0.122,19.771 0.143,19.988 1.852,19.559 l 1.029,-0.258 0,-22.95 c 0,-20.558 -0.066,-22.975 -0.633,-23.192 -1.573,-0.604 -46.185,-0.261 -46.422,0.357 M 227.104,80.3 227.008,103 226.9,84.7 C 226.831,72.964 226.65,66.4 226.396,66.4 226.178,66.4 226,65.558 226,64.528 226,62.345 225.251,60 224.553,60 224.286,60 224,59.8 223.918,59.555 223.644,58.733 217.502,58.443 199.9,58.422 188.514,58.408 182.4,58.26 182.4,58 c 0,-0.262 7.733,-0.4 22.4,-0.4 l 22.4,0 -0.096,22.7 M 163.7,74.663 c -0.792,0.323 -0.723,45.572 0.071,46.366 0.482,0.481 4.148,0.571 23.393,0.571 l 22.821,0 0.218,-0.9 c 0.12,-0.495 0.168,-11.07 0.108,-23.5 l -0.111,-22.6 -23,-0.07 c -12.65,-0.039 -23.225,0.021 -23.5,0.133 M 209.6,98 l 0,22.4 -22.6,0 -22.6,0 0,-22.4 0,-22.4 22.6,0 22.6,0 0,22.4"
         id="path3"
         inkscape:connector-curvature="0"
         style="fill:#dfdfdf;fill-rule:evenodd;stroke:none" />
    </g>
  </g>
</svg>
