<?xml version="1.0" encoding="UTF-8" standalone="no"?>
<svg
   xmlns:dc="http://purl.org/dc/elements/1.1/"
   xmlns:cc="http://creativecommons.org/ns#"
   xmlns:rdf="http://www.w3.org/1999/02/22-rdf-syntax-ns#"
   xmlns:svg="http://www.w3.org/2000/svg"
   xmlns="http://www.w3.org/2000/svg"
   xmlns:sodipodi="http://sodipodi.sourceforge.net/DTD/sodipodi-0.dtd"
   xmlns:inkscape="http://www.inkscape.org/namespaces/inkscape"
   id="svg"
   version="1.1"
   width="89"
   height="18"
   style="display:block"
   inkscape:version="0.91 r13725"
   sodipodi:docname="min-btn.svg">
  <metadata
     id="metadata9">
    <rdf:RDF>
      <cc:Work
         rdf:about="">
        <dc:format>image/svg+xml</dc:format>
        <dc:type
           rdf:resource="http://purl.org/dc/dcmitype/StillImage" />
        <dc:title></dc:title>
      </cc:Work>
    </rdf:RDF>
  </metadata>
  <defs
     id="defs7" />
  <sodipodi:namedview
     pagecolor="#ffffff"
     bordercolor="#666666"
     borderopacity="1"
     objecttolerance="10"
     gridtolerance="10"
     guidetolerance="10"
     inkscape:pageopacity="0"
     inkscape:pageshadow="2"
     inkscape:window-width="1920"
     inkscape:window-height="1028"
     id="namedview5"
     showgrid="false"
     inkscape:zoom="1.3057712"
     inkscape:cx="-10.732104"
     inkscape:cy="-25.699149"
     inkscape:window-x="0"
     inkscape:window-y="24"
     inkscape:window-maximized="1"
     inkscape:current-layer="svg" />
  <g
     style="display:block"
     id="g4228"
     transform="matrix(0.88745674,0,0,1,-136.551,-120.5143)">
    <g
       id="svgg-6">
      <path
         d="m 164.316,125.161 c -0.164,0.426 -0.604,0.774 -0.979,0.774 -0.375,0 -1.262,0.742 -1.971,1.648 l -1.29,1.648 1.341,1.866 c 0.738,1.026 1.928,2.142 2.646,2.481 1.903,0.898 80.497,0.854 81.635,-0.046 0.438,-0.346 1.432,-1.473 2.209,-2.504 l 1.414,-1.876 -2.219,-2.382 -2.219,-2.383 -40.135,0 c -35.2,0 -40.172,0.095 -40.432,0.774"
         id="path0-7"
         inkscape:connector-curvature="0"
         style="fill:#1f1f1f;fill-rule:evenodd;stroke:none" />
      <path
         d="m 162.944,123.704 c -1.46,0.605 -2.264,1.422 -3.15,3.2 l -1.189,2.386 0.993,2.236 c 1.959,4.407 -0.352,4.192 45.197,4.205 45.162,0.012 43.023,0.203 44.77,-3.98 0.439,-1.05 1.079,-2.087 1.423,-2.306 0.4,-0.254 0.421,-0.4 0.058,-0.405 -0.312,-0.004 -0.993,-0.954 -1.515,-2.111 -1.948,-4.319 0.535,-4.094 -44.736,-4.064 -35.08,0.024 -40.128,0.125 -41.851,0.839 m 84.158,3.066 2.219,2.382 -1.414,1.876 c -0.777,1.031 -1.771,2.158 -2.209,2.504 -1.138,0.9 -79.732,0.944 -81.635,0.046 -0.718,-0.339 -1.908,-1.455 -2.646,-2.481 l -1.341,-1.866 1.29,-1.648 c 0.709,-0.906 1.596,-1.648 1.971,-1.648 0.375,0 0.815,-0.348 0.979,-0.774 0.26,-0.679 5.232,-0.774 40.432,-0.774 l 40.135,0 2.219,2.383"
         id="path1"
         inkscape:connector-curvature="0"
         style="fill:#8f8f8f;fill-rule:evenodd;stroke:none" />
      <path
         d="m 160.648,121.861 c -5.246,1.533 -4.964,13.473 0.352,14.905 3.934,1.059 87.169,0.456 89.186,-0.646 1.941,-1.061 2.453,-2.486 2.453,-6.83 0,-4.344 -0.512,-5.768 -2.453,-6.829 -1.915,-1.047 -86.081,-1.61 -89.538,-0.6 m 85.987,1.972 c 1.324,0.675 2.252,1.667 2.896,3.096 0.522,1.157 1.203,2.107 1.515,2.111 0.363,0.005 0.342,0.151 -0.058,0.405 -0.344,0.219 -0.984,1.256 -1.423,2.306 -1.747,4.183 0.392,3.992 -44.77,3.98 -45.549,-0.013 -43.238,0.202 -45.197,-4.205 l -0.993,-2.236 1.189,-2.386 c 2.107,-4.228 -0.334,-4.008 45.001,-4.039 38.389,-0.025 39.965,0.011 41.84,0.968"
         id="path2"
         inkscape:connector-curvature="0"
         style="fill:#cfcfcf;fill-rule:evenodd;stroke:none" />
    </g>
  </g>
</svg>
