<?xml version="1.0" encoding="utf-8"?>
<!-- Generator: Adobe Illustrator 20.1.0, SVG Export Plug-In . SVG Version: 6.00 Build 0)  -->
<svg version="1.2" baseProfile="tiny" id="Layer_1_copy"
	 xmlns="http://www.w3.org/2000/svg" xmlns:xlink="http://www.w3.org/1999/xlink" x="0px" y="0px" viewBox="0 0 48 48"
	 xml:space="preserve">
<g>
	<g>
		<path fill="#FF5000" d="M46.3,13.1c-0.8,0.8-1.5,1.7-2.4,2.4c-3.8,3-7.6,5.8-11.4,8.8c-0.3,0.3-0.7,0.9-0.6,1.3
			c0.7,4.9-0.9,9-4.3,12.5c-2.1-2.2-4.2-4.3-6.4-6.5C15,36.4,8.9,41,2.9,45.6c-0.1,0-0.1-0.1-0.2-0.1c4.6-6,9.2-12,13.8-18.1
			c-2.2-2.1-4.3-4.3-6.5-6.4c2.5-2.6,5.3-4.2,8.8-4.5c1.1-0.1,2.2-0.1,3.3,0c0.9,0.2,1.4-0.2,1.9-0.9c3.2-4.1,6.5-8.2,9.7-12.3
			c1.1-1.4,2.1-1.4,3.3-0.2c2.7,2.7,5.4,5.4,8.1,8.1c0.4,0.4,0.7,1,1.1,1.6C46.3,12.9,46.3,13,46.3,13.1z"/>
	</g>
</g>
</svg>
