<?xml version="1.0" encoding="utf-8"?>
<!-- Generator: Adobe Illustrator 20.1.0, SVG Export Plug-In . SVG Version: 6.00 Build 0)  -->
<svg version="1.2" baseProfile="tiny" id="Layer_1_copy"
	 xmlns="http://www.w3.org/2000/svg" xmlns:xlink="http://www.w3.org/1999/xlink" x="0px" y="0px" viewBox="0 0 48 48"
	 xml:space="preserve">
<path fill="#FF5000" d="M26.2,4C15.3,4,6.4,12.7,6,23.5H1.8l5.7,5.7l5.7-5.7H9.2c0.4-9.2,7.9-16.3,17-16.3c9.4,0,17,7.6,17,17
	s-7.6,17-17,17c-4.5,0-8.8-1.8-12-4.9c-0.6-0.6-1.6-0.6-2.2,0s-0.6,1.6,0,2.2c3.8,3.8,8.8,5.9,14.2,5.9c11.1,0,20.2-9,20.2-20.1
	S37.3,4,26.2,4z"/>
<path fill="#FF5000" d="M34.1,31.4c-0.3,0-0.5-0.1-0.8-0.2l-9.5-5.8V14.3c0-0.9,0.7-1.6,1.6-1.6c0.9,0,1.6,0.7,1.6,1.6v9.3l8,4.9
	c0.8,0.4,1,1.4,0.5,2.2C35.1,31.1,34.6,31.4,34.1,31.4z"/>
</svg>
