<?xml version="1.0" encoding="utf-8"?>
<!-- Generator: Adobe Illustrator 21.1.0, SVG Export Plug-In . SVG Version: 6.00 Build 0)  -->
<svg version="1.1" id="Layer_1" xmlns="http://www.w3.org/2000/svg" xmlns:xlink="http://www.w3.org/1999/xlink" x="0px" y="0px"
	 viewBox="0 0 42.1 44.2" style="enable-background:new 0 0 42.1 44.2;" xml:space="preserve">
<style type="text/css">
	.st0{fill:#A7A9AC;}
</style>
<path class="st0" d="M36.9,9.6H13.6l17.9-6.2c0.1,0,0.4,0,0.6,0.2c0.3,0.3,0.5,0.9,0.5,1.8v3h3v-3c0-1.8-0.5-3.2-1.6-4.1
	c-1.3-1.1-2.9-0.9-3.1-0.9L3.6,9.9l0,0c-1.9,0.7-3.3,2.5-3.3,4.7v24.3c0,2.8,2.3,5,5,5h31.6c2.8,0,5-2.3,5-5V14.7
	C41.9,11.9,39.7,9.6,36.9,9.6z M36.9,41H5.3c-1.1,0-2-0.9-2-2V14.7c0-0.9,0.5-1.6,1.3-1.9l0,0l0.2-0.1c0.2,0,0.3-0.1,0.5-0.1h31.6
	c1.1,0,2,0.9,2,2v11.1H28.4c-0.6,0-1,0.4-1,1s0.4,1,1,1h10.5v11.1C38.9,40,38,41,36.9,41z"/>
</svg>
