<svg xmlns="http://www.w3.org/2000/svg" viewBox="0 0 466.47 147.04"><title>Asset 1</title><g id="Layer_2" data-name="Layer 2"><g id="Layer_1-2" data-name="Layer 1"><path d="M155.18,78.4V30h4.63a6.83,6.83,0,0,1,6.83,6.83V58.35c7.42-6.62,13.73-9.27,22.14-9.44,16.13-.33,30.13,11.65,31.46,27.73,1.59,19.21-12.38,33.67-30.58,33.67C169.68,110.31,155.18,97.92,155.18,78.4Zm11.27,3.8c1.13,10,10.68,18.26,20.75,18.42,13.12.2,22.06-8.35,22.06-21s-8.74-21-21.49-21C174.14,58.59,164.9,68.49,166.45,82.2Z" fill="#fff"/><path d="M239.36,50.12v8.62c7.21-8,11.48-10.15,19.92-10.15a46.45,46.45,0,0,1,7.33.59V60.63a29.64,29.64,0,0,0-7.94-1.06c-6.11,0-11.24,2-15,5.78-3.3,3.31-4.28,5.9-4.28,11.1v31.88H227.51V50.12Z" fill="#fff"/><path d="M269.43,69.37c.61-5.67,1.71-8.74,4.15-11.69,4.89-6,13.69-9.09,26.15-9.09,9.9,0,17.11,1.54,22.12,4.84,4.16,2.71,5.87,6.73,5.87,13.81V93.09c0,5.67,1.47,7.67,5.5,7.56a25.15,25.15,0,0,0,2.69-.24v7.79a17.64,17.64,0,0,1-6.23.94c-7.45,0-10.87-2.24-13.19-8.74-7.33,6.73-14.91,9.56-25.78,9.56-14.54,0-23.46-6.61-23.46-17.36a15.28,15.28,0,0,1,9.16-14.16c4.4-1.89,7.09-2.48,19.67-3.78,10.75-1.06,12.59-1.3,15.64-2.25,3.3-1.06,4.77-2.83,4.77-5.78,0-6.26-5.25-9.09-16.25-9.09-10.4,0-15.76,2.06-17.91,7.32a7.09,7.09,0,0,1-6.55,4.48Zm47,9.92a116.36,116.36,0,0,1-23.1,4.25c-10.63,1.06-13.93,3.07-13.93,8.38,0,5.9,4.89,9,14.54,9,7.94,0,13.93-2,18.21-5.9,3.42-3.19,4.28-5.43,4.28-11Z" fill="#fff"/><path d="M364.59,108.32h-3.06a7,7,0,0,1-6.34-3.94L329.56,50.12h7.12a10.47,10.47,0,0,1,9.63,6.17l17.1,39,17.67-39.15a10.47,10.47,0,0,1,9.58-6.06h6.47L370.9,104.44A7,7,0,0,1,364.59,108.32Z" fill="#fff"/><path d="M405.16,82.59c1.22,11.22,10,18.18,23.09,18.18,7.43,0,13-2.21,16.45-6.62a10.6,10.6,0,0,1,8.3-4h6.89c-6,13.22-16.74,19.72-32.75,19.72-20,0-33.48-12.16-33.48-30.34s13.81-30.93,33.73-30.93c14.41,0,26,6.49,30.67,17.36,2.08,5,2.93,9.44,2.93,16.64Zm43.74-9c-2.69-10.27-10.63-16.06-21.63-16.06s-18.94,5.79-21.75,16.06Z" fill="#fff"/><path d="M124.15,48.18l-4.43-12,3.08-6.91a2.36,2.36,0,0,0-.48-2.62l-8.37-8.46a13.51,13.51,0,0,0-14-3.27l-2.34.81L84.79,1.86,63.1,1.75H63l-21.83.18-12.77,14-2.27-.8a13.55,13.55,0,0,0-14.17,3.3L3.4,27A1.88,1.88,0,0,0,3,29.09l3.21,7.17-4.4,12L4.68,59.1l13,49.37a25.15,25.15,0,0,0,9.73,14.09s15.76,11.12,31.32,21.22a6.94,6.94,0,0,0,8.66,0c17.47-11.45,31.29-21.26,31.29-21.26a25.16,25.16,0,0,0,9.72-14.1L121.31,59Z" fill="none" stroke="#fff" stroke-miterlimit="10" stroke-width="3.49"/><path d="M66.56,90.73A18.53,18.53,0,0,0,64,89.81H62.47a18.53,18.53,0,0,0-2.55.93L56,92.34c-1.23.51-3.2,1.43-4.38,2L44.54,98.1a1.36,1.36,0,0,0-.17,2.51L50.55,105c1.09.77,2.8,2.11,3.81,3l1.74,1.5c1,.87,2.65,2.3,3.64,3.18l1.65,1.46a2.84,2.84,0,0,0,3.63,0l1.73-1.51,3.65-3.18,1.75-1.53c1-.87,2.71-2.22,3.79-3l6.19-4.43a1.35,1.35,0,0,0-.19-2.5l-7.11-3.61c-1.19-.6-3.16-1.51-4.39-2Z" fill="#fff"/><path d="M110.42,50.86l.2-.64a16.94,16.94,0,0,0-.16-2.58,21.7,21.7,0,0,0-2.29-4.32l-4-5.9c-.75-1.1-2-2.85-2.87-3.89l-5.39-6.75a18.85,18.85,0,0,0-1.6-1.87H94.2s-1.08.19-2.39.44l-8.24,1.59L80,27.63a9.39,9.39,0,0,1-3.53-.51L69.92,25c-1.27-.41-3.36-1-4.66-1.29a9.92,9.92,0,0,0-2.06-.11,9.92,9.92,0,0,0-2.06.11c-1.3.3-3.39.88-4.66,1.29L50,27.14a9.39,9.39,0,0,1-3.53.51L42.83,27l-8.24-1.58c-1.31-.25-2.38-.45-2.39-.44h-.11a18.85,18.85,0,0,0-1.6,1.87l-5.38,6.75c-.83,1-2.12,2.79-2.86,3.9l-4,5.91a31.64,31.64,0,0,0-1.9,3.16,14.41,14.41,0,0,0-.55,3.74l.2.64a9.55,9.55,0,0,0,.37,1.21c.83,1,2.26,2.68,3.17,3.65l14.09,15a4,4,0,0,1,.72,4L32.06,80.2a7.09,7.09,0,0,0-.11,4.5L32.42,86a12.22,12.22,0,0,0,3.76,5.26L38.39,93a4.18,4.18,0,0,0,4.06.49l7.87-3.75a20,20,0,0,0,4-2.66l6.3-5.69a2.52,2.52,0,0,0,.13-3.62L46.51,68.23a2.75,2.75,0,0,1-.87-3.49l5.51-10.36a5.39,5.39,0,0,0,.27-4.12,6.29,6.29,0,0,0-3.13-2.84L31,40.89c-1.24-.47-1.18-1,.15-1.08l10.15-1a15.66,15.66,0,0,1,4.74.42l8.84,2.46a2.71,2.71,0,0,1,1.89,3l-3.47,19a9.8,9.8,0,0,0-.17,3.2c.14.45,1.33,1,2.63,1.32l5.38,1.15a13.12,13.12,0,0,0,4.73,0l4.84-1.1c1.3-.29,2.48-.9,2.62-1.35a9.79,9.79,0,0,0-.18-3.2L69.65,44.75a2.71,2.71,0,0,1,1.89-3l8.83-2.47a15.65,15.65,0,0,1,4.74-.43l10.15,1c1.32.12,1.39.61.15,1.08L78.14,47.4A6.29,6.29,0,0,0,75,50.24a5.39,5.39,0,0,0,.27,4.12l5.53,10.36a2.75,2.75,0,0,1-.87,3.49L65.74,77.8a2.52,2.52,0,0,0,.13,3.62l6.31,5.68a20,20,0,0,0,4,2.66L84,93.5A4.18,4.18,0,0,0,88.09,93l2.21-1.81a12.22,12.22,0,0,0,3.75-5.27l.46-1.27a7.1,7.1,0,0,0-.11-4.5L92.1,74.71a4,4,0,0,1,.71-4l14.08-15c.91-1,2.34-2.61,3.17-3.65A9.55,9.55,0,0,0,110.42,50.86Z" fill="#fff"/><path d="M466.47,48.29a4.94,4.94,0,1,1-4.92-4.81A4.83,4.83,0,0,1,466.47,48.29Zm-8.65,0a3.73,3.73,0,0,0,3.75,3.84,3.68,3.68,0,0,0,3.66-3.81,3.71,3.71,0,1,0-7.41,0Zm3,2.52h-1.11V46a9.7,9.7,0,0,1,1.85-.15,3,3,0,0,1,1.67.35,1.34,1.34,0,0,1,.47,1.05,1.23,1.23,0,0,1-1,1.11v.06a1.42,1.42,0,0,1,.88,1.17,3.64,3.64,0,0,0,.35,1.2h-1.2a4.17,4.17,0,0,1-.38-1.17c-.09-.53-.38-.76-1-.76h-.53Zm0-2.73h.53c.62,0,1.11-.21,1.11-.7s-.32-.73-1-.73a2.62,2.62,0,0,0-.62.06Z" fill="#fff"/></g></g></svg>
