<svg xmlns="http://www.w3.org/2000/svg" viewBox="0 0 11.87 9.69"><defs><style>.cls-1{opacity:0.5;}.cls-2{fill:#231f20;}.cls-3{fill:#fff;}</style></defs><title>close_icon</title><g id="Layer_2" data-name="Layer 2"><g id="Layer_1-2" data-name="Layer 1"><g class="cls-1"><path class="cls-2" d="M11.65.8c.33-.44.15-.8-.4-.8H7a.56.56,0,0,0-.41.21c-.08.12-.28.45-.43.75s-.4.3-.54,0S5.29.34,5.21.22A.56.56,0,0,0,4.79,0H.62C.07,0-.11.36.22.8L3.34,4.94h0a0,0,0,0,1,0,0h0L.19,8.88c-.36.45-.19.81.39.81H4.72a.56.56,0,0,0,.41-.21c.08-.12.28-.47.45-.78s.44-.31.62,0,.39.66.47.78a.56.56,0,0,0,.4.2h4.22c.58,0,.75-.37.39-.81L8.53,5h0a0,0,0,0,1,0,0h0ZM10.25,2Z"/></g><polygon class="cls-3" points="10.25 8.69 7.33 8.69 5.86 6.69 4.46 8.69 1.62 8.69 4.62 4.97 1.62 1 4.53 1 5.86 3 7.26 1 10.25 1 7.25 4.97 10.25 8.69"/></g></g></svg>