<?xml version="1.0" encoding="UTF-8"?>
<svg width="144px" height="125px" viewBox="0 0 144 125" version="1.1" xmlns="http://www.w3.org/2000/svg" xmlns:xlink="http://www.w3.org/1999/xlink">
    <!-- Generator: Sketch 48.1 (47250) - http://www.bohemiancoding.com/sketch -->
    <title>Laptop Graphic</title>
    <desc>Created with Sketch.</desc>
    <defs>
        <polygon id="path-1" points="0.368359375 0.26047619 122.602734 0.26047619 122.602734 77.3857714 0.368359375 77.3857714"></polygon>
        <polygon id="path-3" points="0.000778378378 0.484491667 144 0.484491667 144 46.998825 0.000778378378 46.998825"></polygon>
        <linearGradient x1="50%" y1="0%" x2="50%" y2="76.0483099%" id="linearGradient-5">
            <stop stop-color="#FF641D" offset="0%"></stop>
            <stop stop-color="#FF4600" offset="100%"></stop>
        </linearGradient>
    </defs>
    <g id="Sync_device-type?" stroke="none" stroke-width="1" fill="none" fill-rule="evenodd" transform="translate(-671.000000, -420.000000)">
        <g id="Laptop-Graphic" transform="translate(671.000000, 420.000000)">
            <g id="Group-3" transform="translate(13.000000, 0.000000)">
                <mask id="mask-2" fill="white">
                    <use xlink:href="#path-1"></use>
                </mask>
                <g id="Clip-2"></g>
                <path d="M117.719922,71.0405333 C117.719922,71.848819 117.063672,72.504819 116.255078,72.504819 L6.71601562,72.504819 C5.90742187,72.504819 5.25117187,71.848819 5.25117187,71.0405333 L5.25117187,6.60415238 C5.25117187,5.79977143 5.90742187,5.13986667 6.71601562,5.13986667 L116.255078,5.13986667 C117.063672,5.13986667 117.719922,5.79977143 117.719922,6.60415238 L117.719922,71.0405333 Z M80.6105469,0.258914286 L13.0636719,0.258914286 L8.18085937,0.258914286 L6.71601562,0.258914286 C3.21601562,0.258914286 0.368359375,3.10939048 0.368359375,6.60415238 L0.368359375,71.0405333 C0.368359375,74.5392 3.21601562,77.3857714 6.71601562,77.3857714 L116.255078,77.3857714 C119.755078,77.3857714 122.602734,74.5392 122.602734,71.0405333 L122.602734,6.60415238 C122.602734,3.10939048 119.755078,0.258914286 116.255078,0.258914286 L114.790234,0.258914286 L80.6105469,0.258914286 Z" id="Fill-1" fill="#444444" mask="url(#mask-2)"></path>
            </g>
            <g id="Group-6" transform="translate(0.000000, 78.000000)">
                <mask id="mask-4" fill="white">
                    <use xlink:href="#path-3"></use>
                </mask>
                <g id="Clip-5"></g>
                <path d="M139.135914,40.3091583 C139.135914,41.1199083 138.482076,41.7779083 137.676454,41.7779083 L6.3251027,42.1029917 C5.51948108,42.1029917 4.86564324,41.4449917 4.86564324,40.6342417 L15.9575351,6.849075 C15.9575351,6.04224167 16.6152649,5.380325 17.4169946,5.380325 L129.472346,5.380325 C130.277968,5.380325 130.931805,6.04224167 130.931805,6.849075 L139.135914,40.3091583 Z M92.9858595,0.484491667 L23.7413189,0.484491667 L18.8764541,0.484491667 L17.4169946,0.484491667 C13.9298595,0.484491667 12.3769946,3.01465833 11.0926703,6.849075 L0.000778378378,40.6342417 C0.000778378378,44.143575 2.83796757,46.998825 6.3251027,46.998825 L137.676454,46.6737417 C141.163589,46.6737417 144.000778,43.8184917 144.000778,40.3091583 L135.79667,6.849075 C134.352778,2.80315833 132.963373,0.484491667 129.472346,0.484491667 L128.012886,0.484491667 L92.9858595,0.484491667 Z" id="Fill-4" fill="#444444" mask="url(#mask-4)"></path>
            </g>
            <path d="M85.1815784,118.230895 C85.1815784,119.050792 84.5339826,119.716216 83.7360519,119.716216 L58.2639481,120.048928 C57.4698722,120.048928 56.8184216,119.383504 56.8184216,118.563607 L59.1351187,114.436393 C59.1351187,113.616496 59.7827145,112.951072 60.5806452,112.951072 L82.356056,112.951072 C83.1539866,112.951072 83.8015825,113.616496 83.8015825,114.436393 L85.1815784,118.230895 Z M75.930209,108 L66.8445932,108 L62.0261716,108 L60.5806452,108 C57.1268006,108 55.5849057,110.554753 54.3166971,114.436393 L52,118.563607 C52,122.112535 54.8101035,125 58.2639481,125 L83.7360519,124.667288 C87.1898965,124.667288 90,121.779823 90,118.230895 L88.6200041,114.436393 C87.1898965,110.344828 85.8137553,108 82.356056,108 L80.9105295,108 L75.930209,108 Z" id="Fill-7" fill="#444444"></path>
            <g id="brave_logo_2color-copy-2" transform="translate(58.000000, 20.000000)">
                <path d="M32.8896393,12.6706364 L31.6992049,9.41209091 L32.5260984,7.54009091 C32.6326721,7.299 32.5815492,7.01672727 32.3976148,6.82909091 L30.1476639,4.53463636 C29.1638852,3.53127273 27.6961967,3.18681818 26.3740328,3.64881818 L25.7451393,3.86890909 L22.3061066,0.114272727 L16.4748443,0.0826363636 L16.4369754,0.0826363636 L10.5678443,0.130090909 L7.13368033,3.915 L6.52182787,3.69790909 C5.1874918,3.22445455 3.70195082,3.573 2.71168033,4.59136364 L0.421967213,6.92945455 C0.275360656,7.07918182 0.235057377,7.30418182 0.320262295,7.49618182 L1.18421311,9.43909091 L0,12.6962727 L4.25754098,29.0170909 C4.6597623,30.5599091 5.58592623,31.9115455 6.87454918,32.8369091 C6.87454918,32.8369091 11.1128852,35.8513636 15.2957705,38.5892727 C15.6636393,38.8300909 16.0480082,39.0062727 16.4607787,38.9997273 C16.8735492,39.0057273 17.258459,38.8300909 17.6255164,38.5876364 C22.322877,35.4826364 26.0397049,32.8246364 26.0397049,32.8246364 C27.3272459,31.8976364 28.2515164,30.5446364 28.6521148,29.0012727 L32.8896393,12.6706364" id="Fill-7" fill="url(#linearGradient-5)"></path>
                <path d="M17.4056066,24.207 C17.0750656,24.069 16.7661639,23.9560909 16.7193689,23.9560909 C16.6723033,23.9563636 16.5792541,23.9563636 16.5124426,23.9563636 L16.3055164,23.9563636 C16.2587213,23.9563636 15.9498197,24.0698182 15.6195492,24.2080909 L14.5773443,24.6447273 C14.2470738,24.783 13.7169098,25.0328182 13.399623,25.1994545 L11.483459,26.2060909 C11.1661721,26.3727273 11.1456148,26.6795455 11.4377459,26.8876364 L13.100459,28.0723636 C13.3925902,28.2804545 13.8532377,28.6437273 14.124,28.8796364 L14.5916803,29.2868182 C14.8624426,29.5224545 15.3033443,29.9110909 15.5714016,30.15 L16.0150082,30.5451818 C16.2830656,30.7843636 16.7228852,30.7857273 16.9922951,30.5481818 L17.4578115,30.1385455 C17.7272213,29.901 18.1683934,29.5129091 18.4378033,29.2756364 L18.908459,28.8616364 C19.1778689,28.6243636 19.636623,28.2586364 19.9276721,28.0486364 L21.5920082,26.8483636 C21.8830574,26.6386364 21.8603361,26.3331818 21.5411557,26.1698182 L19.6293197,25.1904545 C19.3104098,25.0270909 18.7788934,24.7805455 18.448082,24.6425455 L17.4056066,24.207" id="Fill-9" fill="#FFFFFE"></path>
                <path d="M29.2545,13.2248182 C29.2593689,13.0240909 29.2393525,12.7093636 29.2101393,12.5252727 C29.1806557,12.3414545 28.7946639,11.6522727 28.593959,11.3536364 L27.5187541,9.75381818 C27.3180492,9.45518182 26.9712787,8.98009091 26.7478525,8.69836364 L25.2980164,6.86890909 C25.0745902,6.58718182 24.8806475,6.35863636 24.8668525,6.36136364 C24.8360164,6.35863636 24.5468607,6.41263636 24.1954918,6.48081818 L21.9793525,6.91281818 C21.6279836,6.98127273 21.1916803,7.06581818 21.0093689,7.10072727 C20.8273279,7.13563636 20.3999508,7.07345455 20.0594016,6.96245455 L18.3087787,6.39272727 C17.9682295,6.28172727 17.4042541,6.12463636 17.0558607,6.04363636 C17.0558607,6.04363636 16.9024918,6.00790909 16.5018934,6.01445455 C16.1012951,6.00845455 15.9481967,6.04418182 15.9481967,6.04418182 C15.5998033,6.126 15.0360984,6.28363636 14.6955492,6.39490909 L12.9454672,6.96709091 C12.6051885,7.07836364 12.1778115,7.14081818 11.9957705,7.10618182 C11.813459,7.07154545 11.3771557,6.98754545 11.0257869,6.91963636 L8.80910656,6.49063636 C8.4577377,6.42245455 8.16831148,6.369 8.16641803,6.37172727 C8.12368033,6.369 7.9300082,6.59781818 7.70685246,6.87981818 L6.25945082,8.71118182 C6.03629508,8.99318182 5.69006557,9.46854545 5.48963115,9.76745455 L4.41631967,11.3686364 C4.21615574,11.6675455 3.98596721,12.0537273 3.90509016,12.2266364 C3.82421311,12.3998182 3.75307377,13.0399091 3.75848361,13.2406364 C3.75848361,13.2406364 3.75848361,13.2406364 3.81285246,13.4149091 C3.89968033,13.7282727 3.91239344,13.7440909 3.91239344,13.7440909 C4.13663115,14.0255455 4.52045902,14.4703636 4.76579508,14.733 L8.55565574,18.7906364 C8.8009918,19.0532727 8.88781967,19.5400909 8.74851639,19.8725455 L8.1280082,21.3529091 C7.98870492,21.6853636 7.97572131,22.2343636 8.09906557,22.5728182 L8.22457377,22.9175455 C8.4282541,23.4758182 8.77691803,23.9689091 9.23459016,24.3444545 L9.83021311,24.8334545 C10.1077377,25.0611818 10.5989508,25.1206364 10.921918,24.9651818 L13.0371639,23.9487273 C13.3601311,23.7935455 13.8416066,23.4687273 14.1075,23.2270909 L15.8018607,21.6853636 C16.086418,21.4265455 16.1018361,20.982 15.8362131,20.7035455 L12.0138934,18.1063636 C11.7171639,17.9048182 11.6119426,17.4793636 11.779918,17.1608182 L13.2624836,14.3509091 C13.4307295,14.0323636 13.462918,13.53 13.3344344,13.2343636 C13.2059508,12.9387273 12.8269918,12.5926364 12.4923934,12.4652727 L7.84588525,10.6958182 C7.51128689,10.5684545 7.52886885,10.4361818 7.88510656,10.4020909 L10.6132869,10.1416364 C10.9692541,10.1075455 11.5429672,10.1588182 11.8875738,10.2559091 L14.2638443,10.9235455 C14.6084508,11.0203636 14.8375574,11.3901818 14.7731803,11.745 L13.8402541,16.8826364 C13.7756066,17.2374545 13.7545082,17.6277273 13.793459,17.7499091 C13.8321393,17.8718182 14.1502377,18.0332727 14.4999836,18.1085455 L15.9465738,18.4197273 C16.2965902,18.495 16.8684098,18.4911818 17.2173443,18.4112727 L18.5186803,18.1134545 C18.8676148,18.0335455 19.1846311,17.8685455 19.2233115,17.7463636 C19.2619918,17.6244545 19.240623,17.2341818 19.1757049,16.8793636 L18.2373689,11.7425455 C18.1727213,11.3877273 18.4015574,11.0179091 18.7458934,10.9205455 L21.1213525,10.2499091 C21.4656885,10.1525455 22.0391311,10.1004545 22.3953689,10.134 L25.1238197,10.3917273 C25.4800574,10.4252727 25.4979098,10.5575455 25.1633115,10.6854545 L20.5189672,12.4606364 C20.1843689,12.5885455 19.8059508,12.9351818 19.6777377,13.2308182 C19.5497951,13.5264545 19.5827951,14.0288182 19.751041,14.3473636 L21.2368525,17.1561818 C21.4053689,17.4744545 21.300418,17.8999091 21.003959,18.102 L17.1848852,20.7027273 C16.9195328,20.9814545 16.9357623,21.426 17.2203197,21.6845455 L18.9168443,23.2240909 C19.1827377,23.4654545 19.6647541,23.7894545 19.9879918,23.9443636 L22.1043197,24.9583636 C22.4275574,25.113 22.9187705,25.0532727 23.1960246,24.825 L23.791377,24.3351818 C24.2485082,23.9588182 24.5966311,23.4657273 24.7992295,22.9071818 L24.9241967,22.5624545 C25.0472705,22.2237273 25.0334754,21.6747273 24.8939016,21.3425455 L24.2717705,19.8627273 C24.1319262,19.5305455 24.2182131,19.0437273 24.4632787,18.7808182 L28.2488115,14.7185455 C28.4936066,14.4553636 28.8771639,14.01 29.1008607,13.7285455 C29.1008607,13.7285455 29.1135738,13.7124545 29.2001311,13.3990909 L29.2545,13.2248182 Z" id="Fill-10" fill="#FFFFFE"></path>
            </g>
        </g>
    </g>
</svg>