<?xml version="1.0" encoding="UTF-8"?>
<svg width="57px" height="57px" viewBox="0 0 57 57" version="1.1" xmlns="http://www.w3.org/2000/svg" xmlns:xlink="http://www.w3.org/1999/xlink">
    <!-- Generator: Sketch 48.1 (47250) - http://www.bohemiancoding.com/sketch -->
    <title>Page 1</title>
    <desc>Created with Sketch.</desc>
    <defs></defs>
    <g id="sync_connect2chain" stroke="none" stroke-width="1" fill="none" fill-rule="evenodd" transform="translate(-392.000000, -293.000000)">
        <g id="Group-4" transform="translate(338.000000, 235.000000)">
            <g id="Group">
                <g id="Page-1" transform="translate(56.000000, 60.000000)">
                    <path d="M33,51.7458605 C27.0368026,53.845498 20.2519716,53.3710197 14.3763022,49.8507885 L14.3537143,49.8365826 C9.06815305,46.6686586 5.50491676,41.6227098 4,36" id="Stroke-1" stroke="#4A4A4A" stroke-width="3.25" stroke-linecap="round" stroke-linejoin="round"></path>
                    <path d="M42,13 C49.4193596,20.2334224 51.3006055,31.951453 45.9023719,41.3873416 L45.8880984,41.4072605 C44.9117918,43.1145986 43.7499298,44.6512029 42.4510423,46" id="Stroke-3" stroke="#4A4A4A" stroke-width="3.25" stroke-linecap="round" stroke-linejoin="round"></path>
                    <path d="M4,24 C4.5106383,22.1093508 5.26241135,20.2555509 6.27801418,18.4811186 L6.2893617,18.4584421 C11.6,9.15542784 22.3035461,5.05382465 32,7.87987744" id="Stroke-5" stroke="#4A4A4A" stroke-width="3.25" stroke-linecap="round" stroke-linejoin="round"></path>
                    <path d="M11.1831596,45.0210197 C9.51523542,47.8833738 5.84186442,48.8521706 2.97854766,47.1815466 C0.115230906,45.5136749 -0.849521204,41.8421552 0.815590309,38.979801 C2.4863272,36.1174468 6.1596982,35.14865 9.02020227,36.8165218 C11.883519,38.4843935 12.8510838,42.1586655 11.1831596,45.0210197" id="Fill-7" fill="#FFFFFF"></path>
                    <path d="M11.1831596,45.0210197 C9.51523542,47.8833738 5.84186442,48.8521706 2.97854766,47.1815466 C0.115230906,45.5136749 -0.849521204,41.8421552 0.815590309,38.979801 C2.4863272,36.1174468 6.1596982,35.14865 9.02020227,36.8165218 C11.883519,38.4843935 12.8510838,42.1586655 11.1831596,45.0210197 Z" id="Stroke-9" stroke="#4A4A4A" stroke-width="3.25" stroke-linecap="round" stroke-linejoin="round"></path>
                    <path d="M52.1831596,45.020199 C50.5124227,47.8825532 46.8418644,48.85135 43.9785477,47.1834782 C41.1152309,45.5128542 40.1504788,41.8413345 41.8155903,38.9789803 C43.4835145,36.1166262 47.1596982,35.1478294 50.0202023,36.8184534 C52.883519,38.4835729 53.8510838,42.1578448 52.1831596,45.020199" id="Fill-11" fill="#FFFFFF"></path>
                    <path d="M52.1831596,45.020199 C50.5124227,47.8825532 46.8418644,48.85135 43.9785477,47.1834782 C41.1152309,45.5128542 40.1504788,41.8413345 41.8155903,38.9789803 C43.4835145,36.1166262 47.1596982,35.1478294 50.0202023,36.8184534 C52.883519,38.4835729 53.8510838,42.1578448 52.1831596,45.020199 Z" id="Stroke-13" stroke="#4A4A4A" stroke-width="3.25" stroke-linecap="round" stroke-linejoin="round"></path>
                    <path d="M31.1832447,9.02101966 C29.5126818,11.8833738 25.8425059,12.8521706 22.9794873,11.1815466 C20.1164688,9.51367485 19.1490048,5.84215517 20.8167553,2.979801 C22.4845058,0.117446823 26.1574941,-0.851349974 29.0205127,0.816521785 C31.8835312,2.48439354 32.8509952,6.15866549 31.1832447,9.02101966" id="Fill-15" fill="#FFFFFF"></path>
                    <path d="M31.1832447,9.02101966 C29.5126818,11.8833738 25.8425059,12.8521706 22.9794873,11.1815466 C20.1164688,9.51367485 19.1490048,5.84215517 20.8167553,2.979801 C22.4845058,0.117446823 26.1574941,-0.851349974 29.0205127,0.816521785 C31.8835312,2.48439354 32.8509952,6.15866549 31.1832447,9.02101966 Z" id="Stroke-17" stroke="#4A4A4A" stroke-width="3.25" stroke-linecap="round" stroke-linejoin="round"></path>
                </g>
            </g>
        </g>
    </g>
</svg>