<?xml version="1.0" encoding="utf-8"?>
<!-- Generator: Adobe Illustrator 20.1.0, SVG Export Plug-In . SVG Version: 6.00 Build 0)  -->
<svg version="1.1" id="Layer_2" xmlns="http://www.w3.org/2000/svg" xmlns:xlink="http://www.w3.org/1999/xlink" x="0px" y="0px"
	 viewBox="0 0 100 100" style="enable-background:new 0 0 100 100;" xml:space="preserve">
<style type="text/css">
	.st0{fill:#FFFFFF;}
</style>
<g>
	<g id="X1vBn6.tif_36_">
		<g>
			<path class="st0" d="M10.8,42.9c3.8-2,7.6-4,11.4-6"/>
			<path class="st0" d="M22.7,0.2c1,0,1.5,0.8,1.9,1.7c1.8,3.7,3.6,7.3,5.4,11c0.2,0.3,0.3,0.4,0.7,0.5c4.3,0.6,8.6,1.2,12.9,1.8
				c1.4,0.2,2.1,1.8,1.2,2.9c-0.1,0.2-0.3,0.3-0.4,0.5c-3,3-6.1,5.9-9.1,8.9c-0.2,0.2-0.3,0.4-0.2,0.7c0.7,4.3,1.5,8.5,2.2,12.8
				c0.1,0.8,0,1.5-0.7,1.9c-0.6,0.5-1.3,0.4-2,0.1c-0.7-0.3-1.3-0.7-2-1.1c-3.2-1.7-6.3-3.3-9.5-5c-0.3-0.2-0.5-0.2-0.9,0
				c-3.8,2-7.6,4-11.4,6c-1,0.5-1.9,0.4-2.5-0.4C8,42,7.9,41.5,8,41c0.7-4.3,1.5-8.6,2.2-12.9c0.1-0.3,0-0.5-0.2-0.7
				c-3-2.9-6-5.9-9-8.8c-0.5-0.5-1-1-1-1.7c0,0,0-0.1,0-0.1c0-0.1,0-0.1,0.1-0.2c0.1-0.8,0.6-1.3,1.3-1.5C1.8,15.1,2.2,15,2.6,15
				c4-0.6,7.9-1.2,11.9-1.7c0.4-0.1,0.6-0.2,0.7-0.5c1.8-3.7,3.6-7.2,5.4-10.8C21,1,21.5,0.2,22.7,0.2C22.7,0.2,22.7,0.2,22.7,0.2z
				 M33,38.1c0-0.1,0-0.2,0-0.3c-0.6-3.3-1.1-6.6-1.7-9.9c-0.2-0.9,0-1.7,0.7-2.3c2.4-2.3,4.7-4.6,7.1-6.9c0.1-0.1,0.2-0.3,0.4-0.4
				c-3.5-0.5-7-1-10.4-1.5c-0.9-0.1-1.4-0.6-1.8-1.3c-1.5-3-2.9-5.9-4.4-8.9c-0.1-0.2-0.2-0.3-0.3-0.5c-0.1,0.2-0.2,0.4-0.3,0.5
				c-1.5,3-2.9,5.9-4.4,8.9c-0.3,0.7-0.9,1.2-1.7,1.3c-2.8,0.4-5.7,0.8-8.5,1.2c-0.7,0.1-1.3,0.2-2,0.3c0,0,0,0.1-0.1,0.1
				c0.1,0.1,0.3,0.2,0.4,0.3c2.4,2.3,4.7,4.6,7.1,6.9c0.7,0.6,0.9,1.3,0.7,2.2c-0.5,2.8-1,5.6-1.4,8.4c-0.1,0.6-0.2,1.3-0.3,2
				c0.2-0.1,0.4-0.2,0.5-0.2c2.9-1.5,5.8-3,8.6-4.6c0.9-0.5,1.8-0.5,2.7,0c2.9,1.5,5.7,3,8.6,4.5C32.7,37.9,32.9,38,33,38.1z"/>
		</g>
	</g>
	<path class="st0" d="M68.4,76.1H33.1c-1.5,0-2.7-1.2-2.7-2.7s1.2-2.7,2.7-2.7h35.3c1.5,0,2.7,1.2,2.7,2.7S69.9,76.1,68.4,76.1z"/>
	<path class="st0" d="M68.4,56.8H33.1c-1.5,0-2.7-1.2-2.7-2.7s1.2-2.7,2.7-2.7h35.3c1.5,0,2.7,1.2,2.7,2.7S69.9,56.8,68.4,56.8z"/>
	<g>
		<line class="st0" x1="22.4" y1="73.4" x2="22.4" y2="73.4"/>
		<path class="st0" d="M22.4,76.1c-0.2,0-0.4,0-0.5,0c-0.2,0-0.3-0.1-0.5-0.2c-0.2-0.1-0.3-0.1-0.5-0.2c-0.1-0.1-0.3-0.2-0.4-0.3
			c-0.1-0.1-0.2-0.3-0.3-0.4c-0.1-0.1-0.2-0.3-0.2-0.5c-0.1-0.2-0.1-0.3-0.2-0.5c0-0.2,0-0.4,0-0.5c0-0.2,0-0.3,0-0.5
			c0-0.2,0.1-0.3,0.2-0.5c0.1-0.2,0.1-0.3,0.2-0.5c0.1-0.2,0.2-0.3,0.3-0.4c0.1-0.1,0.3-0.2,0.4-0.3c0.1-0.1,0.3-0.2,0.5-0.2
			c0.2-0.1,0.3-0.1,0.5-0.2c0.3-0.1,0.7-0.1,1,0c0.2,0,0.3,0.1,0.5,0.2c0.2,0.1,0.3,0.1,0.5,0.2c0.1,0.1,0.3,0.2,0.4,0.3
			c0.1,0.1,0.2,0.3,0.3,0.4c0.1,0.1,0.2,0.3,0.2,0.5c0.1,0.2,0.1,0.3,0.1,0.5c0,0.2,0,0.3,0,0.5c0,0.2,0,0.4,0,0.5
			c0,0.2-0.1,0.3-0.1,0.5c-0.1,0.2-0.1,0.3-0.2,0.5c-0.1,0.1-0.2,0.3-0.3,0.4c-0.1,0.1-0.3,0.2-0.4,0.3c-0.1,0.1-0.3,0.2-0.5,0.2
			C23.3,75.9,23.1,76,23,76C22.8,76,22.6,76.1,22.4,76.1z"/>
	</g>
	<g>
		<line class="st0" x1="22.4" y1="54.2" x2="22.4" y2="54.2"/>
		<path class="st0" d="M22.4,56.8c-0.7,0-1.4-0.3-1.9-0.8c-0.1-0.1-0.2-0.3-0.3-0.4c-0.1-0.1-0.2-0.3-0.2-0.5
			c-0.1-0.2-0.1-0.3-0.2-0.5c0-0.2-0.1-0.3-0.1-0.5c0-0.2,0-0.3,0.1-0.5c0-0.2,0.1-0.3,0.2-0.5c0.1-0.2,0.1-0.3,0.2-0.5
			c0.1-0.2,0.2-0.3,0.3-0.4c0.6-0.6,1.5-0.9,2.4-0.7c0.2,0,0.3,0.1,0.5,0.1c0.2,0.1,0.3,0.2,0.5,0.2c0.1,0.1,0.3,0.2,0.4,0.3
			c0.1,0.1,0.2,0.3,0.3,0.4c0.1,0.1,0.2,0.3,0.2,0.5c0.1,0.2,0.1,0.3,0.1,0.5c0,0.2,0,0.3,0,0.5c0,0.2,0,0.4,0,0.5
			c0,0.2-0.1,0.3-0.1,0.5c-0.1,0.2-0.1,0.3-0.2,0.5c-0.1,0.2-0.2,0.3-0.3,0.4C23.8,56.5,23.2,56.8,22.4,56.8z"/>
	</g>
	<path class="st0" d="M67.3,37.6H47c-1.5,0-2.7-1.2-2.7-2.7s1.2-2.7,2.7-2.7h20.3c1.5,0,2.7,1.2,2.7,2.7S68.8,37.6,67.3,37.6z"/>
</g>
</svg>
