<?xml version="1.0" encoding="utf-8"?>
<!-- Generator: Adobe Illustrator 20.1.0, SVG Export Plug-In . SVG Version: 6.00 Build 0)  -->
<svg version="1.1" id="Layer_1" xmlns="http://www.w3.org/2000/svg" xmlns:xlink="http://www.w3.org/1999/xlink" x="0px" y="0px"
	 viewBox="0 0 40.2 47.1" style="enable-background:new 0 0 40.2 47.1;" xml:space="preserve">
<style type="text/css">
	.st0{opacity:0.2;}
	.st1{fill:none;stroke:#FFFFFF;stroke-miterlimit:10;}
	.st2{fill:#FFFFFF;}
</style>
<title>private_tab_pagearea_icon</title>
<g id="Layer_2">
	<g id="Layer_1-2">
		<g class="st0">
			<path class="st1" d="M39.7,15.4l-1.4-3.9l1-2.2c0.1-0.3,0.1-0.6-0.2-0.8l-2.7-2.7c-1.2-1.2-2.9-1.6-4.5-1L31.1,5l-4.1-4.5l-6.9,0
				l0,0l-7,0.1L9,5L8.3,4.7C6.7,4.2,4.9,4.6,3.8,5.8L1,8.6C0.8,8.8,0.8,9.1,0.9,9.3l1,2.3l-1.4,3.9l0.9,3.5l4.2,15.9
				c0.5,1.8,1.6,3.4,3.1,4.5c0,0,5,3.6,10,6.8c0.8,0.7,2,0.7,2.8,0c5.6-3.7,10-6.8,10-6.8c1.5-1.1,2.6-2.7,3.1-4.5l4.2-15.9
				L39.7,15.4z"/>
			<path class="st2" d="M21.2,29.1c-0.3-0.1-0.5-0.2-0.8-0.3h-0.5c-0.3,0.1-0.6,0.2-0.8,0.3l-1.2,0.5c-0.4,0.2-1,0.5-1.4,0.7
				l-2.3,1.2c-0.2,0.1-0.4,0.3-0.3,0.6c0,0.1,0.1,0.2,0.2,0.2l2,1.4c0.4,0.2,0.9,0.7,1.2,1l0.6,0.5l1.2,1l0.5,0.5
				c0.3,0.3,0.8,0.3,1.2,0l0.5-0.5l1.2-1l0.6-0.5c0.3-0.3,0.9-0.7,1.2-1l2-1.4c0.2-0.1,0.3-0.4,0.2-0.6c-0.1-0.1-0.1-0.2-0.3-0.2
				l-2.3-1.2c-0.4-0.2-1-0.5-1.4-0.6L21.2,29.1z"/>
			<path class="st2" d="M35.3,16.3l0.1-0.2c0-0.3,0-0.6,0-0.8c-0.2-0.5-0.4-1-0.7-1.4L33.3,12c-0.2-0.4-0.7-0.9-0.9-1.2l-1.7-2.2
				c-0.2-0.2-0.3-0.4-0.5-0.6l0,0l-0.8,0.1l-2.6,0.5l-1.2,0.2c-0.4,0-0.8,0-1.1-0.2L22.3,8c-0.4-0.1-1.1-0.3-1.5-0.4
				c-0.2,0-0.4,0-0.7,0c-0.2,0-0.4,0-0.7,0C19.1,7.7,18.4,7.9,18,8l-2.1,0.7c-0.4,0.1-0.7,0.2-1.1,0.2l-1.2-0.3L11,8.1L10.2,8l0,0
				c-0.2,0.2-0.4,0.4-0.5,0.6L8,10.7c-0.3,0.3-0.7,0.9-0.9,1.2l-1.3,1.9c-0.2,0.3-0.4,0.7-0.6,1C5.1,15.3,5,15.7,5,16.1l0.1,0.2
				c0,0.1,0.1,0.3,0.1,0.4c0.3,0.3,0.7,0.9,1,1.2l4.5,4.8c0.3,0.4,0.4,0.8,0.2,1.3l-0.7,1.8c-0.2,0.5-0.2,1,0,1.4l0.1,0.4
				c0.2,0.7,0.7,1.2,1.2,1.7l0.7,0.6c0.4,0.3,0.9,0.3,1.3,0.2l2.5-1.2c0.5-0.2,0.9-0.5,1.3-0.9l2-1.8c0.3-0.3,0.3-0.8,0-1.1
				c0,0,0,0,0,0l-4.6-3.1c-0.4-0.3-0.5-0.7-0.3-1.1l1.9-3.3c0.2-0.4,0.2-0.9,0.1-1.3c-0.2-0.4-0.6-0.7-1-0.9l-5.5-2.1
				c-0.4-0.1-0.4-0.3,0-0.4l3.2-0.3c0.5,0,1,0,1.5,0.1l2.8,0.8c0.4,0.1,0.7,0.6,0.6,1l-1,6.1c-0.1,0.3-0.1,0.7-0.1,1
				c0,0.1,0.4,0.3,0.8,0.4l1.7,0.4c0.5,0.1,1,0.1,1.5,0l1.5-0.4c0.4-0.1,0.8-0.3,0.8-0.4c0-0.3,0-0.7-0.1-1l-1.1-6.1
				c-0.1-0.4,0.2-0.9,0.6-1l2.8-0.8c0.5-0.1,1-0.2,1.5-0.1l3.2,0.3c0.4,0,0.5,0.2,0,0.4l-5.5,2.1c-0.4,0.2-0.8,0.5-1,0.9
				c-0.1,0.4-0.1,0.9,0.1,1.4l1.8,3.3c0.2,0.4,0.1,0.9-0.3,1.1L21,24.9c-0.3,0.3-0.3,0.8,0,1.1c0,0,0,0,0,0l2,1.8
				c0.4,0.3,0.8,0.6,1.3,0.9l2.5,1.2c0.4,0.2,0.9,0.1,1.3-0.2l0.7-0.6c0.5-0.5,0.9-1.1,1.2-1.7l0.1-0.4c0.2-0.5,0.2-1,0-1.4
				l-0.7-1.8c-0.2-0.4-0.1-0.9,0.2-1.3l4.5-4.8c0.3-0.3,0.8-0.8,1-1.2C35.2,16.5,35.2,16.4,35.3,16.3z"/>
		</g>
		<g id="dgbAtP.tif">
			<path class="st2" d="M28.5,21.1h-1.7c-0.3,0-0.5,0-0.8,0c-1.4-0.1-2.7-1-3.3-2.3c-0.2-0.4-0.3-0.7-0.5-1.1
				c-0.3-0.8-0.6-1.6-1-2.4c-0.1-0.3-0.3-0.5-0.5-0.7c-0.2-0.3-0.7-0.5-1-0.2c-0.1,0.1-0.2,0.1-0.2,0.2c-0.2,0.2-0.3,0.4-0.4,0.6
				c-0.3,0.6-0.5,1.2-0.7,1.7c-0.2,0.6-0.5,1.4-0.8,2.1c-0.5,1-1.5,1.7-2.6,1.9c-0.4,0.1-0.9,0.1-1.3,0.1h-1.7c-0.4,0-0.8,0-1.1-0.1
				c-2-0.3-3.6-1.7-4.1-3.6c-0.2-0.8-0.4-1.6-0.5-2.4c0-0.4-0.2-0.9-0.5-1.2v-2.1c1-0.1,1.8-0.3,2.7-0.4c2.8-0.2,5.7,0,8.4,0.6
				c2.1,0.5,4.2,0.5,6.3,0.1c1.9-0.4,3.8-0.6,5.7-0.7c1.9-0.1,3.8,0.1,5.7,0.4c0.2,0,0.3,0.1,0.2,0.3c0,0.5,0,1.1,0,1.6
				c0,0.1-0.1,0.3-0.1,0.4c-0.1,0.3-0.3,0.7-0.4,1c-0.1,0.6-0.1,1.2-0.2,1.8c-0.3,2.1-1.9,3.8-4,4.2C29.5,21.1,29,21.1,28.5,21.1z"
				/>
		</g>
	</g>
</g>
</svg>
