<svg xmlns="http://www.w3.org/2000/svg" viewBox="0 0 40.17 47.1"><title>private_tab_pagearea_icon</title><g id="Layer_2" data-name="Layer 2"><g id="Layer_1-2" data-name="Layer 1"><g opacity="0.2"><path d="M39.65,15.41l-1.42-3.86,1-2.22a.76.76,0,0,0-.15-.84L36.39,5.77a4.31,4.31,0,0,0-4.49-1L31.15,5,27.06.54,20.12.5h0l-7,.06L9,5l-.73-.26A4.32,4.32,0,0,0,3.75,5.84L1,8.61a.61.61,0,0,0-.12.67l1,2.3L.52,15.44l.91,3.48L5.59,34.78A8.08,8.08,0,0,0,8.7,39.3s5,3.57,10,6.81a2.21,2.21,0,0,0,2.77,0c5.59-3.68,10-6.83,10-6.83a8.08,8.08,0,0,0,3.11-4.53L38.74,18.9Z" fill="none" stroke="#fff" stroke-miterlimit="10"/><path d="M21.23,29.08a5.92,5.92,0,0,0-.82-.3h-.49a5.93,5.93,0,0,0-.82.3l-1.24.52c-.39.16-1,.46-1.4.66l-2.28,1.19a.44.44,0,0,0-.05.81l2,1.4c.35.25.9.68,1.22,1l.56.48,1.17,1,.53.47a.9.9,0,0,0,1.16,0l.55-.49,1.17-1,.56-.49c.32-.28.87-.71,1.21-1l2-1.42a.43.43,0,0,0-.06-.8l-2.27-1.16c-.38-.19-1-.49-1.41-.65Z" fill="#fff"/><path d="M35.26,16.28l.06-.21a5.46,5.46,0,0,0-.05-.83,7,7,0,0,0-.73-1.39L33.26,12c-.24-.35-.65-.92-.92-1.25L30.62,8.54a6,6,0,0,0-.51-.6h0l-.77.14-2.63.51-1.16.22a3,3,0,0,1-1.13-.16L22.31,8c-.41-.13-1.08-.32-1.49-.41a3.16,3.16,0,0,0-.66,0,3.16,3.16,0,0,0-.66,0c-.42.1-1.09.28-1.49.42l-2.08.68a3,3,0,0,1-1.13.17L13.64,8.6,11,8.09,10.24,8h0a6,6,0,0,0-.51.6L8,10.72c-.27.33-.68.9-.92,1.25l-1.28,1.9a10.16,10.16,0,0,0-.61,1A4.64,4.64,0,0,0,5,16.09l.06.21a3,3,0,0,0,.12.39c.27.33.72.86,1,1.17l4.51,4.81a1.3,1.3,0,0,1,.23,1.28l-.74,1.76a2.28,2.28,0,0,0,0,1.44l.15.41a3.93,3.93,0,0,0,1.2,1.69l.71.58a1.34,1.34,0,0,0,1.3.16L16,28.77a6.4,6.4,0,0,0,1.27-.86l2-1.83a.81.81,0,0,0,0-1.16l-4.55-3.08a.89.89,0,0,1-.28-1.12L16.3,17.4a1.74,1.74,0,0,0,.09-1.32,2,2,0,0,0-1-.91l-5.53-2.1c-.4-.15-.38-.31,0-.35l3.24-.31a5,5,0,0,1,1.52.14l2.82.79a.87.87,0,0,1,.61,1L17,20.4a3.15,3.15,0,0,0-.06,1c0,.14.43.34.84.43l1.72.37a4.19,4.19,0,0,0,1.51,0l1.55-.35c.42-.09.79-.29.84-.44a3.15,3.15,0,0,0-.06-1l-1.12-6.09a.87.87,0,0,1,.61-1l2.82-.79a5,5,0,0,1,1.52-.14l3.24.3c.42,0,.45.2,0,.35l-5.52,2.1a2,2,0,0,0-1,.91A1.74,1.74,0,0,0,24,17.4l1.77,3.33a.89.89,0,0,1-.28,1.12L21,24.93a.81.81,0,0,0,0,1.16l2,1.82a6.4,6.4,0,0,0,1.28.85L26.82,30a1.34,1.34,0,0,0,1.3-.16l.71-.58A3.92,3.92,0,0,0,30,27.54l.15-.41a2.28,2.28,0,0,0,0-1.44l-.74-1.75a1.3,1.3,0,0,1,.23-1.28l4.5-4.81c.29-.31.75-.84,1-1.17A3,3,0,0,0,35.26,16.28Z" fill="#fff"/></g><g id="dgbAtP.tif"><path d="M30.27,22.18H28.2a7.61,7.61,0,0,1-1,0,4.69,4.69,0,0,1-4-2.76c-.21-.46-.38-.91-.57-1.37-.39-1-.76-1.93-1.16-2.89a3.89,3.89,0,0,0-.56-.89.88.88,0,0,0-1.51,0,3.32,3.32,0,0,0-.47.72c-.32.7-.62,1.4-.91,2.11s-.64,1.75-1,2.58A4.24,4.24,0,0,1,13.82,22a8.11,8.11,0,0,1-1.62.17H10.13a7.43,7.43,0,0,1-1.39-.11,6,6,0,0,1-5-4.36,19.41,19.41,0,0,1-.55-2.94,2.28,2.28,0,0,0-.66-1.42V10.8c1.24-.16,2.15-.38,3.22-.47A35.63,35.63,0,0,1,16,11a18.47,18.47,0,0,0,7.7.1,38.4,38.4,0,0,1,6.87-.85,32.75,32.75,0,0,1,6.93.48c.26,0,.31.16.3.39,0,.64,0,1.29,0,1.93a1.73,1.73,0,0,1-.15.5,8.59,8.59,0,0,0-.43,1.21c-.14.71-.15,1.44-.3,2.15A6.1,6.1,0,0,1,32.06,22,7.82,7.82,0,0,1,30.27,22.18Z" fill="#fff"/></g><path d="M30.27,22.26H28.45a12.13,12.13,0,0,1-1.23-.12,4.69,4.69,0,0,1-4-2.76c-.21-.46-.38-.91-.57-1.37-.39-1-.76-1.93-1.16-2.89a3.89,3.89,0,0,0-.56-.89.88.88,0,0,0-1.51,0,3.32,3.32,0,0,0-.47.72c-.32.7-.62,1.4-.91,2.11s-.64,1.75-1,2.58A4.24,4.24,0,0,1,13.82,22a8.11,8.11,0,0,1-1.62.17H10.13a7.43,7.43,0,0,1-1.39-.11,6,6,0,0,1-5-4.36,19.41,19.41,0,0,1-.55-2.94,2.28,2.28,0,0,0-.66-1.42V10.8c1.24-.16,2.15-.38,3.22-.47A35.63,35.63,0,0,1,16,11a18.47,18.47,0,0,0,7.7.1,38.4,38.4,0,0,1,6.87-.85,32.75,32.75,0,0,1,6.93.48c.26,0,.31.16.3.39,0,.64,0,1.29,0,1.93a1.73,1.73,0,0,1-.15.5,8.59,8.59,0,0,0-.43,1.21c-.14.71-.15,1.44-.3,2.15A6.1,6.1,0,0,1,32.06,22,7.94,7.94,0,0,1,30.27,22.26Z" fill="#fff"/></g></g></svg>