<svg xmlns="http://www.w3.org/2000/svg" xmlns:xlink="http://www.w3.org/1999/xlink" width="44" height="44">
  <defs>
    <path id="a" d="M39 19.55c0 10.75-8.75 19.5-19.5 19.5A19.52 19.52 0 0 1 0 19.55C0 8.8 8.75.05 19.5.05S39 8.8 39 19.55z"/>
    <linearGradient id="c" x1="0%" x2="100.01%" y1="49.99%" y2="49.99%">
      <stop offset=".56%" stop-color="#6176B9"/>
      <stop offset="69.1%" stop-color="#394A9F"/>
    </linearGradient>
    <linearGradient id="d" x1=".01%" y1="50%" y2="50%">
      <stop offset=".56%" stop-color="#6176B9"/>
      <stop offset="69.1%" stop-color="#394A9F"/>
    </linearGradient>
  </defs>
  <g fill="none" fill-rule="evenodd" transform="translate(1 1)">
    <path fill="#FFF" fill-rule="nonzero" d="M21 40.5a19.5 19.5 0 1 0 0-39 19.5 19.5 0 0 0 0 39zm0 1.5a21 21 0 1 1 0-42 21 21 0 0 1 0 42z"/>
    <circle cx="21" cy="21" r="19.5" fill="#DE5833"/>
    <g transform="translate(1.5 1.58)">
      <mask id="b" fill="#fff">
        <use xlink:href="#a"/>
      </mask>
      <g mask="url(#b)">
        <path fill="#D5D7D8" d="M27.39 48.27c-.69-3.15-4.67-10.3-6.18-13.3-1.5-3.03-3.02-7.28-2.33-10.03.13-.5-1.3-4.3-.9-4.57 3.2-2.09 4.05.23 5.33-.7.66-.49 1.56.4 1.79-.4.82-2.89-1.15-7.9-3.34-10.1a5.89 5.89 0 0 0-3.05-1.4 6.77 6.77 0 0 0-2.34-1.86 22.66 22.66 0 0 0-5.22-1.73c-.95-.15-1.16.11-1.57.18.38.03 2.17.92 2.52.97-.35.23-1.37-.01-2.03.28-.33.15-.57.71-.57.98 1.87-.19 4.79 0 6.5.76-1.36.16-3.45.33-4.34.8-2.61 1.38-3.76 4.58-3.07 8.43.68 3.83 3.7 17.82 4.66 22.5a7.55 7.55 0 0 1-3.98 8.5l2.06.14-.68 1.51c2.46.27 5.2-.55 5.2-.55-.54 1.51-4.25 2.06-4.25 2.06s1.79.55 4.67-.55l4.66-1.78 1.38 3.56 2.6-2.6 1.1 2.74s2.07-.69 1.38-3.84z"/>
        <path fill="#FFF" d="M28.22 47.63c-.68-3.16-4.66-10.3-6.18-13.31-1.5-3.02-3.02-7.27-2.33-10.02.13-.5.13-2.54.54-2.8 3.2-2.1 2.98-.08 4.26-1.01a3.53 3.53 0 0 0 1.42-1.87c.83-2.88-1.14-7.9-3.33-10.1a5.87 5.87 0 0 0-3.06-1.4 6.75 6.75 0 0 0-2.33-1.86 10.97 10.97 0 0 0-6.95-1.1c.38.04 1.24.82 1.59.87-.53.36-1.93.31-1.92 1.1 1.87-.18 3.92.11 5.65.88-1.37.15-2.65.5-3.55.96-2.6 1.38-3.29 4.12-2.6 7.96.68 3.85 3.7 17.84 4.66 22.5a7.55 7.55 0 0 1-3.98 8.5l2.06.15-.68 1.5c2.46.28 5.2-.54 5.2-.54-.54 1.51-4.25 2.06-4.25 2.06s1.79.54 4.67-.55l4.67-1.79 1.37 3.57 2.6-2.6 1.1 2.74s2.06-.69 1.37-3.84z"/>
        <path fill="#2D4F8E" d="M12.45 16.13a1.44 1.44 0 1 1 2.88 0 1.44 1.44 0 0 1-2.88 0z"/>
        <path fill="#FFF" d="M14.15 15.65a.37.37 0 1 1 .75 0 .37.37 0 0 1-.75 0z"/>
        <path fill="#2D4F8E" d="M22.28 15.27a1.24 1.24 0 1 1 2.48 0 1.24 1.24 0 0 1-2.48 0z"/>
        <path fill="#FFF" d="M23.75 14.86c0-.18.14-.32.32-.32s.32.14.32.32-.14.32-.32.32a.32.32 0 0 1-.32-.32z"/>
        <path fill="url(#c)" d="M6.05 8.26s-1.1-.49-2.15.18c-1.05.66-1 1.34-1 1.34s-.56-1.25.93-1.86c1.5-.62 2.23.34 2.23.34z" transform="translate(8.25 3.69)"/>
        <path fill="url(#d)" d="M16.01 8.17s-.78-.45-1.38-.44c-1.25.01-1.59.56-1.59.56s.21-1.3 1.8-1.04c.87.14 1.17.92 1.17.92z" transform="translate(8.25 3.69)"/>
      </g>
    </g>
    <path fill="#FDD20A" d="M19.8 23.26c.14-.87 2.4-2.52 3.99-2.62 1.6-.1 2.1-.08 3.43-.4a53.4 53.4 0 0 0 5.72-1.61c.95-.44 4.99.21 2.14 1.8a46.13 46.13 0 0 1-6.91 2.66c-2.37.7-3.8-.68-4.6.49-.62.92-.12 2.19 2.7 2.45 3.83.36 7.5-1.72 7.9-.62.4 1.1-3.29 2.48-5.53 2.52-2.25.05-6.77-1.48-7.44-1.95-.68-.47-1.59-1.57-1.4-2.72z"/>
    <path fill="#65BC46" d="M21.53 34.79s-5.37-2.86-5.46-1.7c-.09 1.16 0 5.9.63 6.26.62.35 5.1-2.33 5.1-2.33l-.27-2.23zm2.05-.19s3.67-2.76 4.48-2.59c.8.19.98 5.9.26 6.18-.71.26-4.9-1.45-4.9-1.45l.16-2.13z"/>
    <path fill="#43A244" d="M20.23 35.1c0 1.87-.27 2.67.53 2.85a5 5 0 0 0 2.87-.35c.53-.36.08-2.77-.1-3.23-.17-.44-3.3-.08-3.3.72z"/>
    <path fill="#65BC46" d="M20.57 34.67c0 1.88-.27 2.69.54 2.87.8.18 2.32 0 2.86-.36.53-.36.08-2.77-.1-3.22-.17-.45-3.3-.09-3.3.71z"/>
  </g>
</svg>
