<?xml version="1.0" encoding="utf-8"?>
<!-- Generator: Adobe Illustrator 22.1.0, SVG Export Plug-In . SVG Version: 6.00 Build 0)  -->
<svg version="1.1" id="history" xmlns="http://www.w3.org/2000/svg" xmlns:xlink="http://www.w3.org/1999/xlink" x="0px" y="0px"
	 viewBox="0 0 100 100" style="enable-background:new 0 0 100 100;" xml:space="preserve">
<style type="text/css">
	.st0{fill:none;stroke:#FFFFFF;stroke-width:4;stroke-miterlimit:10;}
	.st1{fill:none;stroke:#FFFFFF;stroke-width:4;stroke-linecap:round;stroke-linejoin:round;stroke-miterlimit:10;}
</style>
<g>
	<path class="st0" d="M42,54.6c-2.6-4.4-1-10.1,3.4-12.7c4.4-2.6,10.1-1,12.7,3.4c2.6,4.4,1,10.1-3.4,12.7
		C50.2,60.6,44.5,59.1,42,54.6z"/>
	<path class="st1" d="M72.1,37.3c0.3,0.6,0.7,1.2,1,1.8c0.4,0.9,1.3,1.6,2.4,1.7l5.4,0.5c1.2,0.1,2.3,1,2.5,2.2
		c0.9,4.4,0.8,8.8,0,13.1c-0.2,1.2-1.3,2.1-2.5,2.2l-5.4,0.5c-1,0.1-1.9,0.7-2.4,1.7c-0.6,1.2-1.3,2.5-2.1,3.6
		c-0.6,0.9-0.7,1.9-0.3,2.9c1.1,2.4,3.2,6.8,3.2,6.8l0,0c-2,2-4.3,3.7-6.9,5.2c-2.6,1.5-5.2,2.6-8,3.3l0,0l-4.3-6.2
		c-0.6-0.9-1.6-1.3-2.6-1.2c-1.4,0.1-2.8,0.1-4.2,0c-1-0.1-2,0.3-2.6,1.2c-0.9,1.3-2.2,3.1-3.1,4.5c-0.7,1-2,1.5-3.2,1.1
		c-4.1-1.4-8-3.6-11.4-6.5c-0.9-0.8-1.2-2.2-0.6-3.3c0.7-1.5,1.7-3.5,2.3-4.9c0.4-0.9,0.3-2-0.3-2.9c-0.4-0.6-0.8-1.2-1.1-1.8
		c-0.3-0.6-0.7-1.2-1-1.8c-0.4-0.9-1.3-1.6-2.4-1.7l-5.4-0.4c-1.2-0.1-2.3-1-2.5-2.2c-0.9-4.4-0.8-8.8,0-13.1
		c0.2-1.2,1.3-2.1,2.5-2.2l5.4-0.5c1-0.1,1.9-0.8,2.4-1.7c0.6-1.2,1.3-2.5,2.1-3.6c0.6-0.9,0.7-1.9,0.3-2.9
		c-1.1-2.4-3.2-6.8-3.2-6.8l0,0c2-2,4.3-3.7,6.9-5.2c2.6-1.5,5.2-2.6,8-3.3l0,0l4.3,6.2c0.6,0.9,1.6,1.3,2.6,1.2
		c1.4-0.1,2.8-0.1,4.2,0c1,0.1,2-0.3,2.6-1.2c0.9-1.3,2.2-3.1,3.1-4.5c0.7-1,2-1.5,3.2-1.1c4.1,1.4,8,3.6,11.4,6.5
		c0.9,0.8,1.2,2.2,0.6,3.3c-0.7,1.5-1.7,3.5-2.3,4.9c-0.4,0.9-0.3,2,0.3,2.9C71.4,36.1,71.7,36.7,72.1,37.3z"/>
</g>
</svg>
