<?xml version="1.0" encoding="utf-8"?>
<svg version="1.1" id="Layer_1" xmlns="http://www.w3.org/2000/svg" xmlns:xlink="http://www.w3.org/1999/xlink" x="0px" y="0px"
viewBox="0 0 83.3 83.1" style="enable-background:new 0 0 83.3 83.1;" xml:space="preserve">
<style type="text/css">
  .st0{fill:#FFFFFF;}
  .st1{opacity:0.3;fill:#FFFFFF;}
</style>
<path class="st0" d="M20.3,3v17.3H3V3H20.3 M23.3,0H0v23.3h23.3V0L23.3,0z"/>
<path class="st0" d="M50.3,3v17.3H33V3H50.3 M53.3,0H30v23.3h23.3V0L53.3,0z"/>
<path class="st0" d="M80.3,3v17.3H63V3H80.3 M83.3,0H60v23.3h23.3V0L83.3,0z"/>
<path class="st1" d="M20.3,32.9v17.3H3V32.9H20.3 M23.3,29.9H0v23.3h23.3V29.9L23.3,29.9z"/>
<path class="st1" d="M50.3,32.9v17.3H33V32.9H50.3 M53.3,29.9H30v23.3h23.3V29.9L53.3,29.9z"/>
<path class="st1" d="M80.3,32.9v17.3H63V32.9H80.3 M83.3,29.9H60v23.3h23.3V29.9L83.3,29.9z"/>
<path class="st1" d="M20.3,62.8v17.3H3V62.8H20.3 M23.3,59.8H0v23.3h23.3V59.8L23.3,59.8z"/>
<path class="st1" d="M50.3,62.8v17.3H33V62.8H50.3 M53.3,59.8H30v23.3h23.3V59.8L53.3,59.8z"/>
<path class="st1" d="M80.3,62.8v17.3H63V62.8H80.3 M83.3,59.8H60v23.3h23.3V59.8L83.3,59.8z"/>
</svg>
