<svg width="116" height="116" xmlns="http://www.w3.org/2000/svg"><defs><filter x="-2.5%" y="-2.6%" width="105.1%" height="107.1%" filterUnits="objectBoundingBox" id="a"><feOffset dy="10" in="SourceAlpha" result="shadowOffsetOuter1"/><feGaussianBlur stdDeviation="10" in="shadowOffsetOuter1" result="shadowBlurOuter1"/><feColorMatrix values="0 0 0 0 0.0352941176 0 0 0 0 0.0352941176 0 0 0 0 0.0352941176 0 0 0 0.2 0" in="shadowBlurOuter1" result="shadowMatrixOuter1"/><feMerge><feMergeNode in="shadowMatrixOuter1"/><feMergeNode in="SourceGraphic"/></feMerge></filter></defs><g filter="url(#a)" transform="translate(-316 -621)" fill="none" fill-rule="evenodd"><path d="M411.5 706.5h-75v-72.917c0-1.253.83-2.083 2.083-2.083h70.833c1.253 0 2.084.83 2.084 2.083V706.5z" fill="#0796FA"/><path fill="#0069B3" d="M340.666 702.334h66.667v-56.25h-66.667z"/><path d="M381.5 646.083h25.834v-3.333a.938.938 0 0 0-.938-.938h-23.959a.937.937 0 0 0-.937.938v3.333z" fill="#002735"/><path d="M344.833 637.75a2.084 2.084 0 1 1-4.167-.001 2.084 2.084 0 0 1 4.167 0M353.167 637.75a2.084 2.084 0 1 1-4.168-.001 2.084 2.084 0 0 1 4.168 0M361.5 637.75a2.084 2.084 0 1 1-4.167-.001 2.084 2.084 0 0 1 4.167 0" fill="#FFF"/><path d="M352.54 673.366s7.592-9.448 20.626-9.448c13.033 0 20.625 9.448 20.625 9.448s-9.9 13.052-20.625 13.052c-10.726 0-20.625-13.052-20.625-13.052" fill="#FAFAFA"/><path d="M383.478 673.293c0 5.694-4.619 10.312-10.313 10.312-5.694 0-10.312-4.618-10.312-10.312 0-5.694 4.618-10.313 10.312-10.313 5.694 0 10.313 4.619 10.313 10.313" fill="#0796FA"/><path d="M352.54 673.366s7.592 15.865 20.626 15.865c13.033 0 20.625-15.865 20.625-15.865s-9.9 11.214-20.625 11.214c-10.726 0-20.625-11.214-20.625-11.214M352.54 673.366s7.592-7.573 20.626-7.573c13.033 0 20.625 7.573 20.625 7.573s-6.27-14.135-20.625-14.135c-14.356 0-20.625 14.135-20.625 14.135" fill="#002735"/><path d="M377.853 673.293a4.687 4.687 0 1 1-9.375 0 4.687 4.687 0 1 1 9.375 0" fill="#0069B3"/><path d="M355.25 654.417l37.5 37.5" stroke="#FFF" stroke-width="2.1" stroke-linecap="square"/></g></svg>
