<?xml version="1.0" encoding="UTF-8"?>
<svg width="116px" height="116px" viewBox="0 0 116 116" version="1.1" xmlns="http://www.w3.org/2000/svg" xmlns:xlink="http://www.w3.org/1999/xlink">
    <!-- Generator: Sketch 50.2 (55047) - http://www.bohemiancoding.com/sketch -->
    <title>icn_hide_isp</title>
    <desc>Created with Sketch.</desc>
    <defs>
        <filter x="-2.5%" y="-2.6%" width="105.1%" height="107.1%" filterUnits="objectBoundingBox" id="filter-1">
            <feOffset dx="0" dy="10" in="SourceAlpha" result="shadowOffsetOuter1"></feOffset>
            <feGaussianBlur stdDeviation="10" in="shadowOffsetOuter1" result="shadowBlurOuter1"></feGaussianBlur>
            <feColorMatrix values="0 0 0 0 0.0352941176   0 0 0 0 0.0352941176   0 0 0 0 0.0352941176  0 0 0 0.2 0" type="matrix" in="shadowBlurOuter1" result="shadowMatrixOuter1"></feColorMatrix>
            <feMerge>
                <feMergeNode in="shadowMatrixOuter1"></feMergeNode>
                <feMergeNode in="SourceGraphic"></feMergeNode>
            </feMerge>
        </filter>
    </defs>
    <g id="private_tab_2" stroke="none" stroke-width="1" fill="none" fill-rule="evenodd">
        <g id="Private-Tab-#1" transform="translate(-347.000000, -734.000000)">
            <g id="browser" filter="url(#filter-1)" transform="translate(31.000000, 48.000000)">
                <g id="viewport" transform="translate(0.000000, 74.000000)">
                    <g id="info" transform="translate(324.000000, 250.000000)">
                        <g id="Group-7-Copy" transform="translate(0.000000, 320.000000)">
                            <g id="Stacked-Group">
                                <g id="icn/logos/vpn-copy" transform="translate(0.000000, 40.000000)">
                                    <g id="Group" transform="translate(12.500000, 12.500000)">
                                        <path d="M75,75 L0,75 L0,2.083125 C0,0.8296875 0.8296875,0 2.083125,0 L72.9159375,0 C74.169375,0 75,0.8296875 75,2.083125 L75,75 Z" id="Fill-1" fill="#0796FA"></path>
                                        <polygon id="Fill-3" fill="#0069B3" points="4.16625 70.83375 70.8328125 70.83375 70.8328125 14.58375 4.16625 14.58375"></polygon>
                                        <path d="M45,14.5834688 L70.83375,14.5834688 L70.83375,11.2497188 C70.83375,10.7322188 70.4128125,10.3122188 69.89625,10.3122188 L45.9375,10.3122188 C45.4190625,10.3122188 45,10.7322188 45,11.2497188 L45,14.5834688 Z" id="Fill-5" fill="#002735"></path>
                                        <path d="M8.33346875,6.24975521 C8.33346875,7.39973509 7.40036008,8.33284376 6.2503802,8.33284376 C5.09977534,8.33284376 4.16666667,7.39973509 4.16666667,6.24975521 C4.16666667,5.09977534 5.09977534,4.16666667 6.2503802,4.16666667 C7.40036008,4.16666667 8.33346875,5.09977534 8.33346875,6.24975521" id="Fill-8" fill="#FFFFFF"></path>
                                        <path d="M16.6668021,6.24975521 C16.6668021,7.39973509 15.7336934,8.33284376 14.5837135,8.33284376 C13.4331087,8.33284376 12.5,7.39973509 12.5,6.24975521 C12.5,5.09977534 13.4331087,4.16666667 14.5837135,4.16666667 C15.7336934,4.16666667 16.6668021,5.09977534 16.6668021,6.24975521" id="Fill-8-Copy" fill="#FFFFFF"></path>
                                        <path d="M25.0001354,6.24975521 C25.0001354,7.39973509 24.0670267,8.33284376 22.9170469,8.33284376 C21.766442,8.33284376 20.8333333,7.39973509 20.8333333,6.24975521 C20.8333333,5.09977534 21.766442,4.16666667 22.9170469,4.16666667 C24.0670267,4.16666667 25.0001354,5.09977534 25.0001354,6.24975521" id="Fill-8-Copy-2" fill="#FFFFFF"></path>
                                        <path d="M16.0405312,41.866125 C16.0405312,41.866125 23.6324062,32.418 36.6655312,32.418 C49.6986562,32.418 57.2905312,41.866125 57.2905312,41.866125 C57.2905312,41.866125 47.3914687,54.918 36.6655312,54.918 C25.9395937,54.918 16.0405312,41.866125 16.0405312,41.866125" id="Fill-9" fill="#FAFAFA"></path>
                                        <path d="M46.9775625,41.7929062 C46.9775625,47.4872812 42.3594375,52.1054062 36.6650625,52.1054062 C30.9706875,52.1054062 26.3525625,47.4872812 26.3525625,41.7929062 C26.3525625,36.0985312 30.9706875,31.4804062 36.6650625,31.4804062 C42.3594375,31.4804062 46.9775625,36.0985312 46.9775625,41.7929062" id="Fill-10" fill="#0796FA"></path>
                                        <path d="M16.0405312,41.866125 C16.0405312,41.866125 23.6324062,57.7305 36.6655312,57.7305 C49.6986562,57.7305 57.2905312,41.866125 57.2905312,41.866125 C57.2905312,41.866125 47.3914687,53.0795625 36.6655312,53.0795625 C25.9395937,53.0795625 16.0405312,41.866125 16.0405312,41.866125" id="Fill-11" fill="#002735"></path>
                                        <path d="M16.0405312,41.866125 C16.0405312,41.866125 23.6324062,34.293 36.6655312,34.293 C49.6986562,34.293 57.2905312,41.866125 57.2905312,41.866125 C57.2905312,41.866125 51.0205312,27.7305 36.6655312,27.7305 C22.3095937,27.7305 16.0405312,41.866125 16.0405312,41.866125" id="Fill-12" fill="#002735"></path>
                                        <path d="M41.3525625,41.7929062 C41.3525625,44.3822812 39.2544375,46.4804062 36.6650625,46.4804062 C34.076625,46.4804062 31.9775625,44.3822812 31.9775625,41.7929062 C31.9775625,39.2035312 34.076625,37.1054062 36.6650625,37.1054062 C39.2544375,37.1054062 41.3525625,39.2035312 41.3525625,41.7929062" id="Fill-13" fill="#0069B3"></path>
                                        <path d="M18.75,22.9166667 L56.25,60.4166667" id="Line" stroke="#FFFFFF" stroke-width="2.1" stroke-linecap="square"></path>
                                    </g>
                                </g>
                            </g>
                        </g>
                    </g>
                </g>
            </g>
        </g>
    </g>
</svg>