<svg xmlns="http://www.w3.org/2000/svg" viewBox="0 0 15.51 11.41"><defs><style>.cls-1{fill:none;stroke:#6d6e70;stroke-linecap:round;stroke-linejoin:round;stroke-width:0.83px;}.cls-2{fill:#6d6e70;}</style></defs><title>add_BM_folder_btn</title><g id="Layer_2" data-name="Layer 2"><g id="Layer_1-2" data-name="Layer 1"><line class="cls-1" x1="12.92" y1="4.78" x2="12.92" y2="0.41"/><line class="cls-1" x1="10.73" y1="2.6" x2="15.1" y2="2.6"/><path class="cls-2" d="M12.28,10H1.36V3.23H8.56a.61.61,0,0,0,.61-.61V2.4a.54.54,0,0,0-.54-.54H6.82L5.46.5H1.36A1.36,1.36,0,0,0,0,1.86V10a1.36,1.36,0,0,0,1.36,1.36H12.28A1.36,1.36,0,0,0,13.65,10V7.21a.71.71,0,0,0-.71-.71h-.06a.6.6,0,0,0-.6.6Z"/></g></g></svg>