<svg xmlns="http://www.w3.org/2000/svg" viewBox="0 0 15.13 15.46"><defs><style>.cls-1,.cls-2{fill:none;stroke:#6d6e70;stroke-linecap:round;stroke-linejoin:round;}.cls-2{stroke-width:0.96px;}</style></defs><title>add_bookmark_btn</title><g id="Layer_2" data-name="Layer 2"><g id="Layer_1-2" data-name="Layer 1"><g id="X1vBn6.tif"><path class="cls-1" d="M11.16,15a.89.89,0,0,0,0-.13c-.22-1.29-.44-2.57-.67-3.86a.94.94,0,0,1,.29-.92c.93-.89,1.84-1.79,2.76-2.68l.15-.17L9.63,6.61a.87.87,0,0,1-.71-.52L7.2,2.61l-.11-.2L7,2.62C6.41,3.78,5.84,4.94,5.27,6.1a.82.82,0,0,1-.64.5L1.3,7.08.53,7.2l0,.05.17.13c.92.89,1.83,1.8,2.76,2.68a.89.89,0,0,1,.27.85l-.57,3.27c0,.25-.08.49-.13.77l.19-.1c1.12-.59,2.25-1.17,3.37-1.78a1,1,0,0,1,1,0c1.11.6,2.24,1.18,3.35,1.77Z"/></g><line class="cls-2" x1="12.49" y1="4.79" x2="12.49" y2="0.48"/><line class="cls-2" x1="10.33" y1="2.64" x2="14.65" y2="2.64"/></g></g></svg>