<svg version="1.2" baseProfile="tiny" id="Layer_1_copy" xmlns="http://www.w3.org/2000/svg" xmlns:xlink="http://www.w3.org/1999/xlink" x="0px" y="0px" viewBox="0 0 48 48" xml:space="preserve"><g><line fill="none" stroke="#6D6E70" stroke-width="2.4266" stroke-linecap="round" stroke-linejoin="round" stroke-miterlimit="10" x1="38.8" y1="20.5" x2="38.8" y2="7.7"/><line fill="none" stroke="#6D6E70" stroke-width="2.4266" stroke-linecap="round" stroke-linejoin="round" stroke-miterlimit="10" x1="32.4" y1="14.1" x2="45.1" y2="14.1"/></g><g>	<path fill="#6D6E70" d="M36.9,35.9H5V16H26c1,0,1.8-0.8,1.8-1.8v-0.6c0-0.9-0.7-1.6-1.6-1.6h-5.3l-4-4H5c-2.2,0-4,1.8-4,4l0,24c0,2.2,1.8,4,4,4h32c2.2,0,4-1.8,4-4v-8.3c0-1.1-0.9-2.1-2.1-2.1h-0.2c-1,0-1.8,0.8-1.8,1.8V35.9z"/></g></svg>
