<svg version="1.2" baseProfile="tiny" id="Layer_1_copy" xmlns="http://www.w3.org/2000/svg" xmlns:xlink="http://www.w3.org/1999/xlink" x="0px" y="0px" viewBox="0 0 48 48" xml:space="preserve"><g id="X1vBn6.tif_19_"><g><path fill="none" stroke="#6D6E70" stroke-width="3" stroke-linecap="round" stroke-linejoin="round" stroke-miterlimit="10" d="M34.9,44.3c0-0.2,0-0.3,0-0.4c-0.6-3.8-1.3-7.5-1.9-11.3c-0.2-1.1,0-1.9,0.8-2.7c2.7-2.6,5.4-5.2,8.1-7.8c0.1-0.1,0.3-0.3,0.4-0.5c-4-0.6-7.9-1.2-11.9-1.7c-1-0.1-1.6-0.6-2.1-1.5c-1.7-3.4-3.3-6.8-5-10.2c-0.1-0.2-0.2-0.3-0.3-0.6c-0.1,0.3-0.2,0.4-0.3,0.6c-1.7,3.4-3.4,6.8-5,10.2c-0.4,0.8-1,1.3-1.9,1.5c-3.2,0.5-6.5,0.9-9.7,1.4c-0.8,0.1-1.5,0.2-2.3,0.3c0,0.1-0.1,0.1-0.1,0.2c0.2,0.1,0.3,0.2,0.5,0.4c2.7,2.6,5.4,5.2,8.1,7.8c0.7,0.7,1,1.5,0.8,2.5c-0.5,3.2-1.1,6.4-1.7,9.6c-0.1,0.7-0.2,1.4-0.4,2.3c0.3-0.1,0.4-0.2,0.6-0.3c3.3-1.7,6.6-3.4,9.8-5.2c1.1-0.6,2-0.5,3,0c3.3,1.7,6.5,3.4,9.8,5.2C34.5,44.2,34.7,44.2,34.9,44.3z"/></g></g><g><line fill="none" stroke="#6D6E70" stroke-width="2.4266" stroke-linecap="round" stroke-linejoin="round" stroke-miterlimit="10" x1="37.7" y1="15.8" x2="37.7" y2="3.1"/><line fill="none" stroke="#6D6E70" stroke-width="2.4266" stroke-linecap="round" stroke-linejoin="round" stroke-miterlimit="10" x1="31.4" y1="9.4" x2="44" y2="9.4"/></g></svg>
