<svg version="1.1" id="Layer_1_copy" xmlns="http://www.w3.org/2000/svg" xmlns:xlink="http://www.w3.org/1999/xlink" x="0px" y="0px" viewBox="0 0 47.1 25.3" style="enable-background:new 0 0 47.1 25.3;" xml:space="preserve"><g><path style="fill:none;stroke:#666666;stroke-width:1.9786;stroke-linecap:round;stroke-linejoin:round;stroke-miterlimit:10;" d="M23.7,8.2c1.8-4.3,6.1-7.3,11.1-7.2c6.4,0.2,11.5,5.5,11.3,12c-0.2,6.4-5.5,11.5-12,11.3c-4.8-0.1-8.9-3.2-10.5-7.4"/><g>		<line style="fill:none;stroke:#666666;stroke-width:1.7128;stroke-linecap:round;stroke-linejoin:round;stroke-miterlimit:10;" x1="31.9" y1="17.6" x2="37.4" y2="12.6"/><line style="fill:none;stroke:#666666;stroke-width:1.7128;stroke-linecap:round;stroke-linejoin:round;stroke-miterlimit:10;" x1="31.9" y1="7.8" x2="37.4" y2="12"/><line style="fill:none;stroke:#666666;stroke-width:1.7128;stroke-linecap:round;stroke-linejoin:round;stroke-miterlimit:10;" x1="22.1" y1="12.5" x2="36.9" y2="12.5"/></g><g id="X1vBn6.tif_9_"><g><path style="fill:#666666;stroke:#666666;stroke-width:1.9786;stroke-linecap:round;stroke-linejoin:round;stroke-miterlimit:10;" d="M16,19.9c0-0.1,0-0.1,0-0.2c-0.3-1.8-0.6-3.6-0.9-5.4c-0.1-0.5,0-0.9,0.4-1.3c1.3-1.2,2.6-2.5,3.9-3.8c0.1-0.1,0.1-0.1,0.2-0.2c-1.9-0.3-3.8-0.6-5.7-0.8c-0.5-0.1-0.8-0.3-1-0.7c-0.8-1.6-1.6-3.3-2.4-4.9c0-0.1-0.1-0.2-0.2-0.3c-0.1,0.1-0.1,0.2-0.2,0.3C9.3,4.2,8.5,5.9,7.7,7.5C7.5,7.9,7.2,8.1,6.8,8.2C5.2,8.4,3.7,8.6,2.1,8.9C1.7,9,1.4,9,1,9.1v0.1c0.1,0.1,0.2,0.1,0.2,0.2c1.3,1.3,2.6,2.5,3.9,3.8c0.4,0.1,0.5,0.5,0.4,1c-0.3,1.5-0.5,3.1-0.8,4.6c0,0.3-0.1,0.7-0.1,1.1c0.1-0.1,0.2-0.1,0.3-0.1c1.6-0.8,3.2-1.6,4.7-2.5c0.5-0.3,1-0.3,1.5,0c1.6,0.8,3.1,1.7,4.7,2.5C15.8,19.8,15.9,19.8,16,19.9z"/></g></g></g></svg>
