<svg version="1.1" id="Layer_1_copy" xmlns="http://www.w3.org/2000/svg" xmlns:xlink="http://www.w3.org/1999/xlink" x="0px" y="0px" viewBox="0 0 39.7 26.6" style="enable-background:new 0 0 39.7 26.6;" xml:space="preserve"><g>	<path style="fill:none;stroke:#666666;stroke-width:1.9786;stroke-linecap:round;stroke-linejoin:round;stroke-miterlimit:10;" d="
		M24.9,17.4c-1.7,4.7-6.1,8.1-11.4,8.2C6.7,25.7,1.1,20.3,1,13.5S6.3,1.1,13.1,1c5.1-0.1,9.5,3,11.5,7.3"/><g id="X1vBn6.tif_10_"><g><path style="fill:#666666;stroke:#666666;stroke-width:1.6451;stroke-linecap:round;stroke-linejoin:round;stroke-miterlimit:10;" d="M18.4,19.8c0-0.1,0-0.1,0-0.1c-0.3-1.5-0.5-3-0.8-4.5c-0.1-0.4,0-0.8,0.3-1.1c1.1-1,2.1-2.1,3.2-3.1c0.1-0.1,0.1-0.1,0.2-0.2c-1.6-0.2-3.2-0.5-4.7-0.7c-0.4-0.1-0.7-0.3-0.8-0.6c-0.7-1.4-1.3-2.7-2-4.1c0-0.1-0.1-0.1-0.1-0.2c-0.1,0.1-0.1,0.2-0.1,0.2c-0.7,1.4-1.3,2.7-2,4.1c-0.2,0.3-0.4,0.5-0.8,0.6c-1.3,0.2-2.6,0.4-3.9,0.6c-0.3,0-0.6,0.1-0.9,0.1c0,0,0,0,0,0.1C6.1,11,6.1,11,6.2,11.1c1.1,1,2.1,2.1,3.2,3.1c0.3,0.3,0.4,0.6,0.3,1C9.5,16.5,9.3,17.7,9,19c0,0.3-0.1,0.6-0.1,0.9c0.1-0.1,0.2-0.1,0.2-0.1c1.3-0.7,2.6-1.4,3.9-2.1c0.4-0.2,0.8-0.2,1.2,0c1.3,0.7,2.6,1.4,3.9,2.1C18.2,19.7,18.3,19.8,18.4,19.8z"/></g></g><g><line style="fill:none;stroke:#666666;stroke-width:1.7128;stroke-linecap:round;stroke-linejoin:round;stroke-miterlimit:10;" x1="33.4" y1="17.9" x2="38.9" y2="12.9"/><line style="fill:none;stroke:#666666;stroke-width:1.7128;stroke-linecap:round;stroke-linejoin:round;stroke-miterlimit:10;" x1="33.4" y1="8.1" x2="38.9" y2="12.3"/><line style="fill:none;stroke:#666666;stroke-width:1.7128;stroke-linecap:round;stroke-linejoin:round;stroke-miterlimit:10;" x1="23.6" y1="12.8" x2="38.5" y2="12.8"/></g></g></svg>
