<svg xmlns="http://www.w3.org/2000/svg" xmlns:xlink="http://www.w3.org/1999/xlink" viewBox="0 0 35.19 41.12"><defs><style>.cls-1{isolation:isolate;}.cls-2{fill:url(#linear-gradient);}.cls-3{opacity:0.15;fill:url(#linear-gradient-2);}.cls-4{fill:#fff;}.cls-5{opacity:0.4;mix-blend-mode:darken;fill:url(#linear-gradient-3);}</style><linearGradient id="linear-gradient" x1="17.59" x2="17.59" y2="41.12" gradientUnits="userSpaceOnUse"><stop offset="0" stop-color="#f6921e"/><stop offset="0.03" stop-color="#f47f1f"/><stop offset="0.07" stop-color="#f36e21"/><stop offset="0.13" stop-color="#f26321"/><stop offset="0.2" stop-color="#f15c22"/><stop offset="0.4" stop-color="#f15a22"/></linearGradient><linearGradient id="linear-gradient-2" y1="22.84" x2="17.8" y2="22.84" gradientUnits="userSpaceOnUse"><stop offset="0" stop-color="#fff"/><stop offset="0.05" stop-color="#fff" stop-opacity="0.93"/><stop offset="0.13" stop-color="#fff" stop-opacity="0.85"/><stop offset="0.23" stop-color="#fff" stop-opacity="0.78"/><stop offset="0.35" stop-color="#fff" stop-opacity="0.73"/><stop offset="0.53" stop-color="#fff" stop-opacity="0.71"/><stop offset="1" stop-color="#fff" stop-opacity="0.7"/></linearGradient><linearGradient id="linear-gradient-3" x1="17.72" y1="22.48" x2="35.19" y2="22.48" gradientUnits="userSpaceOnUse"><stop offset="0" stop-color="#f1f1f2"/><stop offset="0.09" stop-color="#e4e5e6"/><stop offset="0.24" stop-color="#d9dadb"/><stop offset="0.44" stop-color="#d2d4d5"/><stop offset="1" stop-color="#d0d2d3"/></linearGradient></defs><title>brave_btn</title><g class="cls-1"><g id="Layer_2" data-name="Layer 2"><g id="Layer_1-2" data-name="Layer 1"><path class="cls-2" d="M35.11,13.3,33.85,9.86l.88-2a.68.68,0,0,0-.14-.75L32.19,4.7a3.87,3.87,0,0,0-4-.94L27.5,4,23.84,0,17.63,0h0L11.33.05,7.67,4,7,3.82A3.88,3.88,0,0,0,3,4.76L.52,7.23a.54.54,0,0,0-.11.6l.92,2.05L.07,13.33l.82,3.1L4.61,30.57a7.2,7.2,0,0,0,2.79,4s4.52,3.18,9,6.08a2,2,0,0,0,2.48,0c5-3.28,9-6.09,9-6.09a7.21,7.21,0,0,0,2.78-4l3.7-14.15Z"/><path class="cls-3" d="M4.73,31.18,0,13.63l1.39-3.44-1-2.54L2.72,5.32a3,3,0,0,1,2.92-.51L9.22,6.86l4.65,1.08,3.63-1.5.3,31.17c0,4.49.24,4-3.07,1.89L6.59,34A6.17,6.17,0,0,1,4.73,31.18Z"/><path class="cls-4" d="M18.62,25.49a5.31,5.31,0,0,0-.73-.27h-.44a5.31,5.31,0,0,0-.73.27L15.6,26c-.35.15-.92.41-1.25.59l-2,1.06a.39.39,0,0,0,0,.72L14,29.57c.31.22.8.6,1.09.85l.5.43,1,.91.47.42a.81.81,0,0,0,1,0l.5-.43,1-.91.5-.44c.29-.25.78-.64,1.09-.86l1.77-1.27a.39.39,0,0,0-.05-.72l-2-1c-.34-.17-.91-.43-1.26-.58Z"/><path class="cls-4" d="M31.18,14.07l.06-.18a4.85,4.85,0,0,0,0-.74,6.22,6.22,0,0,0-.66-1.24l-1.15-1.69c-.21-.32-.58-.82-.82-1.12L27,7.17a5.4,5.4,0,0,0-.46-.54h0l-.68.13-2.36.46-1,.2a2.69,2.69,0,0,1-1-.15l-1.87-.6c-.36-.12-1-.28-1.33-.37a2.84,2.84,0,0,0-.59,0,2.84,2.84,0,0,0-.59,0c-.37.09-1,.25-1.33.37l-1.86.6a2.69,2.69,0,0,1-1,.15l-1-.2L9.46,6.77l-.68-.13h0a5.4,5.4,0,0,0-.46.54L6.74,9.12c-.24.3-.61.8-.82,1.12L4.78,11.93a9.06,9.06,0,0,0-.54.91,4.13,4.13,0,0,0-.16,1.07l.06.18a2.74,2.74,0,0,0,.11.35c.24.3.65.77.91,1l4,4.29a1.16,1.16,0,0,1,.21,1.14l-.66,1.56a2,2,0,0,0,0,1.29l.13.36a3.5,3.5,0,0,0,1.08,1.51l.63.52a1.2,1.2,0,0,0,1.16.14L14,25.22a5.73,5.73,0,0,0,1.14-.76l1.81-1.63a.72.72,0,0,0,0-1L12.87,19a.79.79,0,0,1-.25-1l1.58-3a1.54,1.54,0,0,0,.08-1.18,1.8,1.8,0,0,0-.9-.81L8.43,11.21c-.36-.13-.34-.27,0-.31l2.91-.28a4.49,4.49,0,0,1,1.36.12l2.53.71a.78.78,0,0,1,.54.87l-1,5.43a2.81,2.81,0,0,0,0,.92c0,.13.38.3.75.38l1.54.33a3.76,3.76,0,0,0,1.35,0l1.39-.31c.37-.08.71-.26.75-.39a2.81,2.81,0,0,0-.05-.92l-1-5.43a.78.78,0,0,1,.54-.87l2.53-.71a4.48,4.48,0,0,1,1.36-.12l2.91.27c.38,0,.4.18,0,.31l-4.95,1.88a1.8,1.8,0,0,0-.9.81,1.54,1.54,0,0,0,.08,1.18l1.58,3a.79.79,0,0,1-.25,1l-4.07,2.75a.72.72,0,0,0,0,1l1.81,1.63a5.73,5.73,0,0,0,1.14.76l2.25,1.07a1.2,1.2,0,0,0,1.16-.14l.63-.52a3.5,3.5,0,0,0,1.07-1.51l.13-.36a2,2,0,0,0,0-1.29l-.66-1.56a1.16,1.16,0,0,1,.2-1.14l4-4.29c.26-.28.67-.75.91-1A2.74,2.74,0,0,0,31.18,14.07Z"/><path class="cls-5" d="M27.82,34.6l-6.93,4.74c-1.92,1.06-2.86,2.09-3,1.59a29,29,0,0,1-.07-3.37l-.08-30.5c0-.3.22-.8.57-.75l3.53,1.07,5.1-.8L30.3,4.1a.93.93,0,0,1,1.2.07l3,2.87a1.2,1.2,0,0,1,.13,1.21L33.8,9.78l1.38,3.59L30.42,31.09A6.62,6.62,0,0,1,27.82,34.6Z"/></g></g></g></svg>