<svg xmlns="http://www.w3.org/2000/svg" viewBox="0 0 12.88 12.31"><defs><style>.cls-1{fill:#ff5000;stroke:#ff5000;stroke-linecap:round;stroke-linejoin:round;}</style></defs><title>bookmark_marked</title><g id="Layer_2" data-name="Layer 2"><g id="Layer_1-2" data-name="Layer 1"><g id="X1vBn6.tif"><path class="cls-1" d="M10.1,11.8a.8.8,0,0,0,0-.12c-.2-1.16-.39-2.32-.6-3.48a.84.84,0,0,1,.26-.83c.83-.8,1.66-1.61,2.49-2.42l.14-.15L8.73,4.28a.78.78,0,0,1-.64-.46L6.54.68,6.44.5l-.1.19L4.8,3.83a.74.74,0,0,1-.58.45l-3,.43-.7.11,0,0L.65,5c.83.81,1.65,1.62,2.49,2.42a.8.8,0,0,1,.25.77l-.51,2.95c0,.22-.07.45-.11.7l.17-.09c1-.53,2-1.06,3-1.6a.9.9,0,0,1,.94,0c1,.54,2,1.06,3,1.59Z"/></g></g></g></svg>