<svg xmlns="http://www.w3.org/2000/svg" viewBox="0 0 13.08 12.51"><defs><style>.cls-1{fill:none;stroke:#ff5000;stroke-linecap:round;stroke-linejoin:round;stroke-width:1.2px;}</style></defs><title>bookmark_btn_hover</title><g id="Layer_2" data-name="Layer 2"><g id="Layer_1-2" data-name="Layer 1"><g id="X1vBn6.tif"><path class="cls-1" d="M10.2,11.9a.8.8,0,0,0,0-.12c-.2-1.16-.39-2.32-.6-3.48a.84.84,0,0,1,.26-.83c.83-.8,1.66-1.61,2.49-2.42l.14-.15L8.83,4.38a.78.78,0,0,1-.64-.46L6.64.78,6.54.6l-.1.19L4.9,3.93a.74.74,0,0,1-.58.45l-3,.43-.7.11,0,0,.15.12c.83.81,1.65,1.62,2.49,2.42a.8.8,0,0,1,.25.77L3,11.21c0,.22-.07.45-.11.7L3,11.82c1-.53,2-1.06,3-1.6a.9.9,0,0,1,.94,0c1,.54,2,1.06,3,1.59Z"/></g></g></g></svg>