<svg xmlns="http://www.w3.org/2000/svg" viewBox="0 0 11.39 15.9"><defs><style>.cls-1{fill:#39b54a;}</style></defs><title>secure_extended_URL_icon</title><g id="Layer_2" data-name="Layer 2"><g id="Layer_1-2" data-name="Layer 1"><path class="cls-1" d="M10.08,5.83V4.42a4.42,4.42,0,0,0-8.85,0v1.4A2.4,2.4,0,0,0,0,8v5.5A2.41,2.41,0,0,0,2.43,15.9h6.5a2.43,2.43,0,0,0,2.46-2.42V8A2.47,2.47,0,0,0,10.08,5.83ZM6.67,11v1.7a1,1,0,0,1-.94,1h0a1,1,0,0,1-1-1V11a1.88,1.88,0,0,1,1-3.48A1.87,1.87,0,0,1,7.6,9.42,1.8,1.8,0,0,1,6.67,11ZM8.54,5.51H2.77V4.42a2.89,2.89,0,1,1,5.77,0Z"/></g></g></svg>