<?xml version="1.0" encoding="utf-8"?>
<!-- Generator: Adobe Illustrator 20.1.0, SVG Export Plug-In . SVG Version: 6.00 Build 0)  -->
<svg version="1.1" id="Layer_1" xmlns="http://www.w3.org/2000/svg" xmlns:xlink="http://www.w3.org/1999/xlink" x="0px" y="0px"
	 viewBox="0 0 100 100" style="enable-background:new 0 0 100 100;" xml:space="preserve">
<style type="text/css">
	.st0{fill:#FFFFFF;}
</style>
<path class="st0" d="M45.3,4.1C25.3,4.1,8.9,20,8.1,40H0.4L11,50.6L21.6,40H14C14.7,23,28.5,9.9,45.3,9.9c17.3,0,31.4,14,31.4,31.3
	S62.6,72.5,45.3,72.5c-8.3,0-16.2-3.3-22.1-9.1c-1.1-1.1-3-1.1-4.1,0c-1.1,1.1-1.1,3,0,4.1c7,7,16.3,10.8,26.2,10.8
	c20.5,0,37.2-16.6,37.2-37.1C82.5,20.7,65.8,4.1,45.3,4.1z"/>
<path class="st0" d="M59.9,54.5c-0.5,0-1-0.1-1.5-0.4L40.9,43.4V23c0-1.6,1.3-2.9,2.9-2.9s2.9,1.3,2.9,2.9v17.2l14.7,9
	c1.4,0.8,1.8,2.6,1,4C61.8,54,60.9,54.5,59.9,54.5z"/>
</svg>
