<?xml version="1.0" encoding="utf-8"?>
<!-- Generator: Adobe Illustrator 20.1.0, SVG Export Plug-In . SVG Version: 6.00 Build 0)  -->
<svg version="1.1" id="Layer_3" xmlns="http://www.w3.org/2000/svg" xmlns:xlink="http://www.w3.org/1999/xlink" x="0px" y="0px"
	 viewBox="0 0 100 100" style="enable-background:new 0 0 100 100;" xml:space="preserve">
<style type="text/css">
	.st0{fill:#FFFFFF;}
</style>
<path class="st0" d="M63.6,40.9c0.1-1.2,0.3-2.4,0.3-3.6s-0.1-2.4-0.3-3.6l7.8-6.1c0.7-0.6,0.9-1.6,0.4-2.4l-7.4-12.8
	c-0.5-0.8-1.4-1.1-2.3-0.8L53,15.3c-1.9-1.5-4-2.7-6.3-3.6l-1.4-9.8c-0.2-0.9-0.9-1.6-1.8-1.6H28.7c-0.9,0-1.7,0.7-1.8,1.6l-1.4,9.8
	c-2.3,0.9-4.3,2.2-6.3,3.6L10,11.6c-0.8-0.3-1.8,0-2.3,0.8L0.3,25.2C-0.1,26,0.1,27,0.8,27.6l7.8,6.1c-0.1,1.2-0.3,2.4-0.3,3.6
	s0.1,2.4,0.3,3.6l-7.8,6.1c-0.7,0.6-0.9,1.6-0.4,2.4l7.4,12.8C8.2,63,9.2,63.4,10,63l9.2-3.7c1.9,1.5,4,2.7,6.3,3.6l1.4,9.8
	c0.1,0.9,0.9,1.6,1.8,1.6h14.8c0.9,0,1.7-0.7,1.8-1.6l1.4-9.8C49,62,51,60.8,53,59.3l9.2,3.7c0.8,0.3,1.8,0,2.3-0.8l7.4-12.8
	c0.5-0.8,0.3-1.8-0.4-2.4L63.6,40.9z M36.1,58.3c-11.6,0-21-9.4-21-21s9.4-21,21-21s21,9.4,21,21S47.7,58.3,36.1,58.3z"/>
</svg>
