<?xml version="1.0" encoding="utf-8"?>
<!-- Generator: Adobe Illustrator 15.1.0, SVG Export Plug-In  -->
<!DOCTYPE svg PUBLIC "-//W3C//DTD SVG 1.1//EN" "http://www.w3.org/Graphics/SVG/1.1/DTD/svg11.dtd" [
	<!ENTITY ns_flows "http://ns.adobe.com/Flows/1.0/">
]>
<svg version="1.1"
	 xmlns="http://www.w3.org/2000/svg" xmlns:xlink="http://www.w3.org/1999/xlink" xmlns:a="http://ns.adobe.com/AdobeSVGViewerExtensions/3.0/"
	 x="0em" y="0em" width="120em" height="40em" viewBox="-0.26 -0.074 512 168"
	 overflow="visible" enable-background="new -0.26 -0.074 512 168" xml:space="preserve">
<defs>
</defs>
<path d="M511.48,144.699c0,12.486-10.121,22.612-22.605,22.612H22.61C10.125,167.312,0,157.186,0,144.699V22.61
	C0,10.125,10.125,0,22.61,0h466.264c12.484,0,22.605,10.125,22.605,22.61V144.699z"/>
<g id="PLAY_2_">
	<defs>
		<path id="SVGID_1_" d="M110.844,73.646L87.781,60.331c0,0-42.016-24.261-44.486-25.687s-4.931-0.562-4.931,2.418
			c0,4.965,0,51.8,0,51.8s0,50.615,0,52.851c0,2.234,1.759,3.197,3.905,1.959c2.145-1.24,45.512-26.279,45.512-26.279l23.062-13.314
			c0,0,19.568-11.297,22.169-12.798c2.601-1.503,2.351-3.563,0.156-4.745C130.974,85.353,110.844,73.646,110.844,73.646z"/>
	</defs>
	<clipPath id="SVGID_2_">
		<use xlink:href="#SVGID_1_"  overflow="visible"/>
	</clipPath>
	<linearGradient id="SVGID_3_" gradientUnits="userSpaceOnUse" x1="66.9316" y1="32.2109" x2="66.9316" y2="145.5137">
		<stop  offset="0" style="stop-color:#257CB0"/>
		<stop  offset="0.2863" style="stop-color:#4A93B5"/>
		<stop  offset="0.767" style="stop-color:#78BCBB"/>
		<stop  offset="1" style="stop-color:#89CFBD"/>
	</linearGradient>
	<polygon clip-path="url(#SVGID_2_)" fill="url(#SVGID_3_)" points="38.365,32.211 38.365,88.862 38.365,145.514 95.499,88.863 	"/>
	<linearGradient id="SVGID_4_" gradientUnits="userSpaceOnUse" x1="38.3647" y1="60.3311" x2="110.8442" y2="60.3311">
		<stop  offset="0" style="stop-color:#52C1AD"/>
		<stop  offset="1" style="stop-color:#DEE89A"/>
	</linearGradient>
	<polygon clip-path="url(#SVGID_2_)" fill="url(#SVGID_4_)" points="110.844,73.646 87.781,60.331 38.365,31.799 38.365,32.211 
		95.499,88.863 	"/>
	<linearGradient id="SVGID_5_" gradientUnits="userSpaceOnUse" x1="74.604" y1="88.8633" x2="74.604" y2="145.9258">
		<stop  offset="0" style="stop-color:#EC413D"/>
		<stop  offset="0.1668" style="stop-color:#DA4452"/>
		<stop  offset="0.5748" style="stop-color:#B0487A"/>
		<stop  offset="0.8619" style="stop-color:#954A92"/>
		<stop  offset="1" style="stop-color:#8A4A9D"/>
	</linearGradient>
	<polygon clip-path="url(#SVGID_2_)" fill="url(#SVGID_5_)" points="38.365,145.514 38.365,145.926 87.781,117.393 110.843,104.078 
		95.499,88.863 	"/>
	<linearGradient id="SVGID_6_" gradientUnits="userSpaceOnUse" x1="116.3496" y1="73.6465" x2="116.3496" y2="104.0781">
		<stop  offset="0" style="stop-color:#F58879"/>
		<stop  offset="0.1194" style="stop-color:#F69079"/>
		<stop  offset="0.7128" style="stop-color:#FCB877"/>
		<stop  offset="1" style="stop-color:#FEC874"/>
	</linearGradient>
	<polygon clip-path="url(#SVGID_2_)" fill="url(#SVGID_6_)" points="110.844,73.646 95.499,88.863 110.843,104.078 137.2,88.862 	
		"/>
</g>
<path fill="#F9F9F9" d="M398.058,111.011c-2.146,0-4.104-0.396-5.877-1.187c-1.773-0.792-3.263-2.01-4.466-3.652h-0.36
	c0.24,1.924,0.36,3.748,0.36,5.471v13.559h-4.988V77.459h4.058l0.69,4.51h0.24c1.284-1.805,2.778-3.106,4.481-3.908
	s3.658-1.203,5.861-1.203c4.37,0,7.743,1.494,10.117,4.48c2.375,2.986,3.563,7.176,3.563,12.566c0,5.412-1.208,9.615-3.621,12.614
	C405.701,109.514,402.349,111.011,398.058,111.011z M397.336,81.097c-3.367,0-5.802,0.933-7.305,2.796
	c-1.503,1.864-2.275,4.831-2.316,8.9v1.111c0,4.631,0.772,7.943,2.316,9.938s4.02,2.99,7.425,2.99c2.848,0,5.078-1.151,6.692-3.456
	c1.612-2.304,2.419-5.481,2.419-9.532c0-4.107-0.807-7.261-2.419-9.455C402.535,82.193,400.263,81.097,397.336,81.097z"/>
<path fill="#F9F9F9" d="M423.293,110.409h-4.99v-46.78h4.99V110.409z"/>
<path fill="#F9F9F9" d="M451.986,110.409l-0.993-4.69h-0.24c-1.644,2.066-3.282,3.465-4.916,4.194
	c-1.633,0.733-3.673,1.098-6.117,1.098c-3.267,0-5.827-0.842-7.682-2.525s-2.781-4.077-2.781-7.185
	c0-6.653,5.322-10.141,15.964-10.463l5.594-0.181v-2.044c0-2.586-0.557-4.496-1.67-5.727c-1.111-1.234-2.893-1.85-5.336-1.85
	c-2.747,0-5.854,0.842-9.32,2.525l-1.534-3.818c1.625-0.882,3.402-1.573,5.338-2.074c1.934-0.501,3.872-0.752,5.817-0.752
	c3.928,0,6.839,0.871,8.734,2.615c1.893,1.744,2.84,4.54,2.84,8.389v22.487H451.986z M440.712,106.893
	c3.105,0,5.545-0.852,7.32-2.555c1.772-1.703,2.661-4.089,2.661-7.157v-2.976l-4.993,0.209c-3.968,0.143-6.827,0.757-8.583,1.852
	c-1.753,1.092-2.63,2.791-2.63,5.096c0,1.803,0.545,3.177,1.639,4.117C437.219,106.422,438.746,106.893,440.712,106.893z"/>
<path fill="#F9F9F9" d="M458.581,77.459h5.35l7.216,18.791c1.583,4.29,2.566,7.386,2.948,9.291h0.24
	c0.261-1.024,0.808-2.771,1.638-5.249c0.832-2.476,3.554-10.085,8.162-22.833h5.354l-14.162,37.521
	c-1.402,3.708-3.041,6.339-4.917,7.895c-1.873,1.552-4.174,2.327-6.897,2.327c-1.524,0-3.027-0.17-4.512-0.51v-3.998
	c1.102,0.24,2.336,0.361,3.699,0.361c3.428,0,5.871-1.924,7.336-5.773l1.833-4.689L458.581,77.459z"/>
<path fill="#F9F9F9" d="M305.609,80.521c1.584,1.311,4.892,4.065,4.892,9.306c0,5.097-2.895,7.514-5.79,9.785
	c-0.896,0.895-1.93,1.863-1.93,3.381c0,1.513,1.033,2.341,1.794,2.962l2.482,1.926c3.032,2.551,5.786,4.896,5.786,9.653
	c0,6.478-6.272,13.023-18.124,13.023c-9.995,0-14.817-4.754-14.817-9.857c0-2.48,1.235-5.993,5.307-8.408
	c4.27-2.619,10.063-2.96,13.163-3.172c-0.968-1.239-2.068-2.549-2.068-4.682c0-1.17,0.346-1.86,0.689-2.691
	c-0.761,0.07-1.518,0.139-2.208,0.139c-7.303,0-11.438-5.445-11.438-10.818c0-3.171,1.449-6.688,4.409-9.235
	c3.93-3.239,8.616-3.792,12.341-3.792h14.194l-4.411,2.481H305.609z M300.714,111.123c-0.551-0.072-0.897-0.072-1.583-0.072
	c-0.62,0-4.347,0.141-7.238,1.108c-1.516,0.547-5.928,2.201-5.928,7.097c0,4.891,4.758,8.411,12.133,8.411
	c6.612,0,10.131-3.177,10.131-7.446C308.229,116.699,305.954,114.846,300.714,111.123z M302.714,98.026
	c1.583-1.587,1.719-3.79,1.719-5.032c0-4.961-2.962-12.68-8.681-12.68c-1.794,0-3.722,0.895-4.825,2.275
	c-1.17,1.447-1.518,3.306-1.518,5.1c0,4.617,2.688,12.268,8.618,12.268C299.75,99.957,301.607,99.13,302.714,98.026z"/>
<path fill="#F9F9F9" d="M262.22,110.02c-10.939,0-16.788-8.533-16.788-16.241c0-9.015,7.361-16.718,17.824-16.718
	c10.11,0,16.441,7.91,16.441,16.238C279.698,101.415,273.439,110.02,262.22,110.02z M270.82,104.447
	c1.654-2.204,2.067-4.955,2.067-7.641c0-6.057-2.89-17.615-11.423-17.615c-2.27,0-4.54,0.896-6.191,2.344
	c-2.684,2.405-3.168,5.434-3.168,8.396c0,6.807,3.372,18.02,11.7,18.02C266.488,107.951,269.241,106.646,270.82,104.447z"/>
<path fill="#F9F9F9" d="M224.925,110.02c-10.941,0-16.791-8.533-16.791-16.241c0-9.015,7.364-16.718,17.824-16.718
	c10.113,0,16.443,7.91,16.443,16.238C242.402,101.415,236.142,110.02,224.925,110.02z M233.527,104.447
	c1.651-2.204,2.065-4.955,2.065-7.641c0-6.057-2.892-17.615-11.425-17.615c-2.269,0-4.541,0.896-6.191,2.344
	c-2.684,2.405-3.165,5.434-3.165,8.396c0,6.807,3.37,18.02,11.699,18.02C229.194,107.951,231.945,106.646,233.527,104.447z"/>
<path fill="#F9F9F9" d="M202.878,108.941l-9.894,2.283c-4.014,0.624-7.61,1.173-11.413,1.173c-19.096,0-26.357-14.044-26.357-25.044
	c0-13.419,10.306-25.868,27.949-25.868c3.737,0,7.331,0.552,10.582,1.452c5.188,1.453,7.609,3.25,9.132,4.289l-5.744,5.465
	l-2.42,0.551l1.729-2.768c-2.351-2.281-6.644-6.5-14.804-6.5c-10.931,0-19.165,8.305-19.165,20.41
	c0,13.002,9.41,25.247,24.488,25.247c4.432,0,6.71-0.898,8.787-1.73V96.766l-10.444,0.553l5.532-2.978h14.667l-1.797,1.729
	c-0.488,0.417-0.555,0.557-0.693,1.105c-0.072,0.624-0.137,2.632-0.137,3.323V108.941z"/>
<path fill="#F9F9F9" d="M327.474,106.949c-2.284-0.208-2.762-0.621-2.762-3.322v-0.762V64.473c0.014-0.149,0.023-0.302,0.037-0.446
	c0.279-2.42,0.97-2.835,3.117-4.082h-9.896l-5.19,2.491h5.289v0.031l-0.004-0.025v40.424v2.285c0,1.381-0.273,1.591-1.866,3.664
	h12.246l2.56-1.518C329.83,107.154,328.652,107.087,327.474,106.949z"/>
<path fill="#F9F9F9" d="M355.624,107.585c-0.753,0.413-1.509,0.896-2.262,1.237c-2.271,1.03-4.606,1.306-6.671,1.306
	c-2.193,0-5.631-0.142-9.138-2.681c-4.874-3.438-7.004-9.346-7.004-14.497c0-10.647,8.656-15.868,15.732-15.868
	c2.474,0,5.019,0.617,7.08,1.925c3.432,2.263,4.325,5.217,4.803,6.798l-16.141,6.529l-5.291,0.412
	c1.715,8.725,7.623,13.805,14.152,13.805c3.503,0,6.046-1.234,8.381-2.4L355.624,107.585z M349.168,87.109
	c1.303-0.479,1.99-0.893,1.99-1.854c0-2.746-3.09-5.908-6.803-5.908c-2.751,0-7.9,2.131-7.9,9.549c0,1.168,0.138,2.404,0.209,3.645
	L349.168,87.109z"/>
<path fill="#F9F9F9" d="M362.255,77.552v4.533h-0.551v-4.533h-1.5v-0.47h3.55v0.47H362.255z"/>
<path fill="#F9F9F9" d="M368.435,82.085V77.51h-0.025l-1.396,4.575h-0.431l-1.408-4.575h-0.018v4.575h-0.5v-5.003h0.857l1.274,4.044
	h0.018l1.255-4.044h0.869v5.003H368.435z"/>
<path fill="#F9F9FA" d="M168.954,48.015h-3.438c0-0.473-0.326-1.812-0.978-4.018h-4.963c-0.673,2.17-1.01,3.509-1.01,4.018h-3.233
	c0-0.279,0.836-2.571,2.508-6.875c1.672-4.304,2.508-6.675,2.508-7.111h4.061c0,0.408,0.757,2.744,2.272,7.009
	S168.954,47.628,168.954,48.015z M163.991,41.945c-1.225-3.695-1.837-5.693-1.837-5.994h-0.172c0,0.279-0.634,2.277-1.901,5.994
	H163.991z"/>
<path fill="#F9F9FA" d="M182.806,48.015h-2.653c0-0.294-0.985-1.844-2.954-4.651c-2.062-2.958-3.237-4.98-3.523-6.069h-0.172
	c0.179,1.568,0.269,2.986,0.269,4.254c0,1.769,0.05,3.925,0.15,6.467h-2.643c0.107-2.22,0.161-4.658,0.161-7.315
	c0-2.614-0.054-4.838-0.161-6.671h3.19c0,0.38,0.884,1.895,2.653,4.544c1.883,2.814,2.965,4.723,3.244,5.726h0.161
	c-0.172-1.597-0.258-3.029-0.258-4.297c0-1.94-0.05-3.932-0.15-5.973h2.686c-0.101,1.776-0.15,4-0.15,6.671
	C182.655,43.392,182.705,45.83,182.806,48.015z"/>
<path fill="#F9F9FA" d="M198.375,40.538c0,2.034-0.652,3.81-1.955,5.328c-1.304,1.519-3.13,2.277-5.479,2.277
	c-1.06,0-2.521-0.043-4.383-0.129c0.093-2.163,0.14-4.602,0.14-7.315c0-2.606-0.047-4.83-0.14-6.671h1.88
	c0.308,0,0.766-0.011,1.375-0.032c0.608-0.021,1.006-0.032,1.192-0.032c2.585,0,4.459,0.645,5.624,1.934
	C197.793,37.187,198.375,38.733,198.375,40.538z M195.443,41c0-1.375-0.401-2.533-1.203-3.476c-0.802-0.941-2.027-1.412-3.674-1.412
	c-0.308,0-0.73,0.032-1.268,0.097c0.071,1.433,0.107,2.929,0.107,4.49c0,1.712,0.036,3.409,0.107,5.092
	c0.465,0.093,0.931,0.14,1.396,0.14c1.54,0,2.68-0.479,3.421-1.435S195.443,42.375,195.443,41z"/>
<path fill="#F9F9FA" d="M212.732,48.015h-3.18c-0.831-2.535-1.468-4.1-1.912-4.694c-0.444-0.595-1.16-0.892-2.148-0.892
	c-0.416,0-0.813,0.004-1.192,0.011c0,1.841,0.032,3.699,0.097,5.575h-2.986c0.093-2.163,0.14-4.602,0.14-7.315
	c0-2.606-0.047-4.83-0.14-6.671h1.858c0.215,0,0.664-0.011,1.348-0.032c0.684-0.021,1.316-0.032,1.896-0.032
	c3.287,0,4.931,1.124,4.931,3.373c0,1.783-0.938,3.025-2.814,3.728v0.161c0.723,0.2,1.357,0.765,1.901,1.691
	C211.074,43.845,211.808,45.544,212.732,48.015z M208.704,38.132c0-1.425-0.917-2.138-2.75-2.138c-0.673,0-1.268,0.05-1.783,0.15
	c0.079,1.11,0.118,2.557,0.118,4.34c0.394,0.015,0.727,0.021,0.999,0.021C207.565,40.506,208.704,39.715,208.704,38.132z"/>
<path fill="#F9F9FA" d="M228.13,40.764c0,2.198-0.673,4.021-2.02,5.468c-1.347,1.446-3.012,2.17-4.995,2.17
	c-1.891,0-3.474-0.664-4.748-1.993c-1.275-1.328-1.912-3.017-1.912-5.064c0-2.198,0.673-4.021,2.02-5.468
	c1.346-1.446,3.011-2.17,4.995-2.17c1.891,0,3.473,0.662,4.748,1.987C227.493,37.019,228.13,38.708,228.13,40.764z M225.166,41.075
	c0-1.497-0.383-2.711-1.149-3.642c-0.767-0.931-1.712-1.396-2.836-1.396c-1.046,0-1.934,0.469-2.664,1.407S217.42,39.567,217.42,41
	c0,1.489,0.385,2.701,1.155,3.636c0.77,0.935,1.713,1.402,2.831,1.402c1.045,0,1.934-0.471,2.664-1.413
	C224.8,43.684,225.166,42.5,225.166,41.075z"/>
<path fill="#F9F9FA" d="M234.204,48.015h-3.04c0.093-2.22,0.14-4.658,0.14-7.315c0-2.614-0.047-4.838-0.14-6.671h3.04
	c-0.093,1.805-0.14,4.028-0.14,6.671C234.064,43.399,234.111,45.838,234.204,48.015z"/>
<path fill="#F9F9FA" d="M249.774,40.538c0,2.034-0.652,3.81-1.955,5.328c-1.304,1.519-3.13,2.277-5.479,2.277
	c-1.06,0-2.521-0.043-4.383-0.129c0.093-2.163,0.14-4.602,0.14-7.315c0-2.606-0.047-4.83-0.14-6.671h1.88
	c0.308,0,0.766-0.011,1.375-0.032c0.608-0.021,1.006-0.032,1.192-0.032c2.585,0,4.459,0.645,5.624,1.934
	C249.192,37.187,249.774,38.733,249.774,40.538z M246.842,41c0-1.375-0.401-2.533-1.203-3.476c-0.802-0.941-2.027-1.412-3.674-1.412
	c-0.308,0-0.73,0.032-1.268,0.097c0.071,1.433,0.107,2.929,0.107,4.49c0,1.712,0.036,3.409,0.107,5.092
	c0.465,0.093,0.931,0.14,1.396,0.14c1.54,0,2.68-0.479,3.421-1.435S246.842,42.375,246.842,41z"/>
<path fill="#F9F9FA" d="M270.43,48.015h-3.438c0-0.473-0.326-1.812-0.979-4.018h-4.963c-0.673,2.17-1.01,3.509-1.01,4.018h-3.232
	c0-0.279,0.836-2.571,2.508-6.875s2.508-6.675,2.508-7.111h4.061c0,0.408,0.758,2.744,2.272,7.009S270.43,47.628,270.43,48.015z
	 M265.467,41.945c-1.225-3.695-1.838-5.693-1.838-5.994h-0.172c0,0.279-0.633,2.277-1.9,5.994H265.467z"/>
<path fill="#F9F9FA" d="M282.96,37.691c0,1.712-0.636,2.976-1.907,3.792c-1.271,0.816-2.83,1.225-4.678,1.225
	c-0.337,0-0.576-0.007-0.72-0.021c0,1.347,0.039,3.122,0.118,5.328h-3.019c0.093-2.069,0.14-4.508,0.14-7.315
	c0-2.578-0.047-4.802-0.14-6.671h1.869c0.265,0,0.773-0.011,1.525-0.032s1.403-0.032,1.955-0.032c1.36,0,2.51,0.308,3.448,0.924
	S282.96,36.438,282.96,37.691z M280.189,38.282c0-1.532-1.017-2.299-3.051-2.299c-0.509,0-1.046,0.054-1.611,0.161
	c0.079,1.354,0.118,2.886,0.118,4.598c0.179,0.015,0.387,0.021,0.623,0.021C278.882,40.764,280.189,39.937,280.189,38.282z"/>
<path fill="#F9F9FA" d="M295.844,37.691c0,1.712-0.636,2.976-1.906,3.792c-1.271,0.816-2.831,1.225-4.679,1.225
	c-0.337,0-0.576-0.007-0.72-0.021c0,1.347,0.039,3.122,0.118,5.328h-3.019c0.093-2.069,0.14-4.508,0.14-7.315
	c0-2.578-0.047-4.802-0.14-6.671h1.869c0.265,0,0.773-0.011,1.525-0.032s1.403-0.032,1.955-0.032c1.36,0,2.51,0.308,3.448,0.924
	S295.844,36.438,295.844,37.691z M293.073,38.282c0-1.532-1.017-2.299-3.051-2.299c-0.509,0-1.046,0.054-1.611,0.161
	c0.079,1.354,0.118,2.886,0.118,4.598c0.179,0.015,0.387,0.021,0.623,0.021C291.766,40.764,293.073,39.937,293.073,38.282z"/>
<path fill="#F9F9FA" d="M316.909,40.764c0,2.198-0.673,4.021-2.02,5.468s-3.012,2.17-4.995,2.17c-1.891,0-3.474-0.664-4.748-1.993
	c-1.274-1.328-1.912-3.017-1.912-5.064c0-2.198,0.673-4.021,2.02-5.468s3.012-2.17,4.995-2.17c1.891,0,3.474,0.662,4.748,1.987
	S316.909,38.708,316.909,40.764z M313.944,41.075c0-1.497-0.383-2.711-1.149-3.642s-1.712-1.396-2.836-1.396
	c-1.046,0-1.934,0.469-2.664,1.407s-1.096,2.123-1.096,3.556c0,1.489,0.385,2.701,1.155,3.636c0.77,0.935,1.713,1.402,2.83,1.402
	c1.046,0,1.934-0.471,2.664-1.413C313.579,43.684,313.944,42.5,313.944,41.075z"/>
<path fill="#F9F9FA" d="M331.469,48.015h-2.653c0-0.294-0.984-1.844-2.954-4.651c-2.062-2.958-3.237-4.98-3.523-6.069h-0.172
	c0.179,1.568,0.269,2.986,0.269,4.254c0,1.769,0.05,3.925,0.15,6.467h-2.643c0.107-2.22,0.161-4.658,0.161-7.315
	c0-2.614-0.054-4.838-0.161-6.671h3.19c0,0.38,0.885,1.895,2.653,4.544c1.884,2.814,2.965,4.723,3.244,5.726h0.161
	c-0.172-1.597-0.258-3.029-0.258-4.297c0-1.94-0.05-3.932-0.15-5.973h2.686c-0.101,1.776-0.15,4-0.15,6.671
	C331.319,43.392,331.369,45.83,331.469,48.015z"/>
</svg>
