<?xml version="1.0" encoding="utf-8"?>
<!-- Generator: Adobe Illustrator 15.1.0, SVG Export Plug-In . SVG Version: 6.00 Build 0)  -->
<!DOCTYPE svg PUBLIC "-//W3C//DTD SVG 1.1//EN" "http://www.w3.org/Graphics/SVG/1.1/DTD/svg11.dtd">
<svg version="1.1" id="Layer_1" xmlns="http://www.w3.org/2000/svg" xmlns:xlink="http://www.w3.org/1999/xlink" x="0px" y="0px"
	 width="521.708px" height="170.657px" viewBox="0 0 521.708 170.657" enable-background="new 0 0 521.708 170.657"
	 xml:space="preserve">
<g>
	<defs>
		<rect id="SVGID_1_" width="521.708" height="170.657"/>
	</defs>
	<clipPath id="SVGID_2_">
		<use xlink:href="#SVGID_1_"  overflow="visible"/>
	</clipPath>
	<path clip-path="url(#SVGID_2_)" d="M521.709,147.593c0,12.736-10.322,23.064-23.058,23.064H23.062
		C10.328,170.657,0,160.329,0,147.593V23.062C0,10.327,10.328,0,23.062,0h475.589c12.735,0,23.058,10.327,23.058,23.062V147.593z"/>
	<path clip-path="url(#SVGID_2_)" fill="#FFFFFF" d="M136.047,112.804c-2.762,6.122-4.084,8.854-7.639,14.264
		c-4.963,7.555-11.955,16.961-20.619,17.04c-7.701,0.071-9.678-5.012-20.127-4.954c-10.449,0.057-12.631,5.043-20.333,4.973
		c-8.664-0.08-15.291-8.574-20.253-16.127c-13.875-21.121-15.324-45.908-6.768-59.085c6.082-9.365,15.673-14.846,24.694-14.846
		c9.184,0,14.958,5.037,22.551,5.037c7.365,0,11.855-5.045,22.473-5.045c8.025,0,16.529,4.369,22.589,11.928
		C112.762,76.866,115.986,105.224,136.047,112.804"/>
	<path clip-path="url(#SVGID_2_)" fill="#FFFFFF" d="M101.971,45.622c3.855-4.951,6.787-11.945,5.725-19.092
		c-6.301,0.434-13.674,4.444-17.979,9.67c-3.906,4.746-7.131,11.784-5.875,18.623C90.721,55.036,97.838,50.928,101.971,45.622"/>
	<path clip-path="url(#SVGID_2_)" fill="#FFFFFF" d="M178.316,68.595l-19.875,58.504h9.102l5.933-17.964h19.244l6.102,17.964h9.353
		l-19.96-58.504H178.316z M183.032,78.214c0.671,2.611,1.395,5.323,2.326,8.254l5.357,15.512H175.47l5.282-15.613
		C181.556,83.835,182.32,81.101,183.032,78.214"/>
	<path clip-path="url(#SVGID_2_)" fill="#FFFFFF" d="M233.894,83.761c-6.029,0-10.857,2.327-14.072,6.751l-0.353-5.819h-8.096
		l0.048,0.744c0.239,3.625,0.338,7.615,0.338,13.343v45.094h8.852V122.83c2.746,3.286,7.131,5.199,12.099,5.199
		c5.174,0,9.94-2.026,13.413-5.702c3.877-4.098,5.922-9.988,5.922-17.025c0-6.219-1.776-11.596-5.142-15.546
		C243.606,85.89,238.988,83.761,233.894,83.761 M231.689,91.089c7.891,0,11.422,7.309,11.422,14.553
		c0,9.343-4.506,15.146-11.758,15.146c-4.951,0-9.234-3.37-10.428-8.214c-0.205-0.75-0.314-1.744-0.314-2.865v-7.118
		c0-0.645,0.144-1.427,0.281-2.185c0.044-0.242,0.092-0.484,0.127-0.719C222.339,94.622,226.721,91.089,231.689,91.089"/>
	<path clip-path="url(#SVGID_2_)" fill="#FFFFFF" d="M279.474,83.761c-6.026,0-10.854,2.327-14.072,6.751l-0.354-5.819h-8.093
		l0.044,0.744c0.241,3.629,0.342,7.615,0.342,13.343v45.094h8.853V122.83c2.746,3.286,7.128,5.199,12.096,5.199
		c5.173,0,9.939-2.026,13.418-5.702c3.872-4.098,5.919-9.988,5.919-17.025c0-6.219-1.779-11.596-5.145-15.546
		C289.186,85.89,284.568,83.761,279.474,83.761 M277.271,91.089c7.887,0,11.419,7.309,11.419,14.553
		c0,9.343-4.51,15.146-11.758,15.146c-4.948,0-9.235-3.37-10.428-8.214c-0.205-0.75-0.312-1.744-0.312-2.865v-7.118
		c0-0.648,0.142-1.434,0.281-2.192c0.044-0.238,0.088-0.477,0.128-0.711C267.918,94.622,272.302,91.089,277.271,91.089"/>
	<path clip-path="url(#SVGID_2_)" fill="#FFFFFF" d="M336.577,93.384c-8.262-3.199-10.907-5.715-10.907-10.363
		c0-3.914,3.108-7.862,10.06-7.862c5.735,0,9.403,1.995,10.392,2.609l0.75,0.463l2.498-7.387l-0.494-0.289
		c-1.483-0.869-5.709-2.892-12.891-2.892c-11.288,0-19.172,6.664-19.172,16.202c0,7.693,4.938,13.07,15.536,16.923
		c7.512,2.808,10.308,5.684,10.308,10.614c0,5.581-4.312,9.044-11.251,9.044c-4.519,0-9.169-1.317-12.758-3.617l-0.767-0.492
		l-2.376,7.558l0.436,0.289c3.342,2.231,9.631,3.847,14.959,3.847c15.213,0,20.608-9.277,20.608-17.221
		C351.508,102.62,347.183,97.57,336.577,93.384"/>
	<path clip-path="url(#SVGID_2_)" fill="#FFFFFF" d="M367.44,74.613l-8.682,2.726v7.353h-6.354v7.074h6.354v21.67
		c0,5.238,1.002,8.91,3.065,11.23c1.978,2.168,5.019,3.362,8.563,3.362c3.347,0,5.724-0.661,6.842-1.057l0.496-0.176l-0.424-7.087
		l-0.849,0.261c-1.119,0.344-2.269,0.476-4.117,0.476c-3.43,0-4.896-2.17-4.896-7.265V91.767h10.679v-7.074H367.44V74.613z"/>
	<path clip-path="url(#SVGID_2_)" fill="#FFFFFF" d="M400.055,83.761c-12.386,0-21.033,9.244-21.033,22.472
		c0,12.834,8.369,21.796,20.354,21.796h0.082c10.134,0,21.033-7.059,21.033-22.558c0-6.302-1.949-11.715-5.64-15.656
		C411.139,85.856,406.02,83.761,400.055,83.761 M399.799,90.749c7.963,0,11.588,7.763,11.588,14.979
		c0,8.873-4.947,15.313-11.756,15.313h-0.087c-6.713,0-11.586-6.333-11.586-15.058C387.958,98.401,391.62,90.749,399.799,90.749"/>
	<path clip-path="url(#SVGID_2_)" fill="#FFFFFF" d="M447.603,84.172l-0.53-0.135c-0.78-0.194-1.416-0.276-2.201-0.276
		c-4.631,0-8.786,2.727-11.098,7.126l-0.261-6.194h-7.942l0.051,0.744c0.236,3.504,0.334,7.437,0.334,12.746l-0.082,28.916h8.851
		V104.54c0-1.229,0.084-2.389,0.244-3.431c0.998-5.418,4.655-8.921,9.313-8.921c0.905,0,1.619,0.074,2.375,0.148l0.946,0.098V84.172
		z"/>
	<path clip-path="url(#SVGID_2_)" fill="#FFFFFF" d="M467.504,83.677c-11.783,0-20.015,9.415-20.015,22.896
		c0,12.981,8.188,21.372,20.861,21.372c6.665,0,11.301-1.463,14.014-2.688l0.533-0.239l-1.701-6.597l-0.737,0.298
		c-2.412,0.981-5.619,1.983-11.091,1.983c-3.846,0-12.715-1.268-13.258-12.834l28.571,0.086l0.115-0.565
		c0.179-0.899,0.265-2.111,0.265-3.694C485.062,94.46,480.465,83.677,467.504,83.677 M466.914,90.411
		c2.694,0,4.883,0.834,6.497,2.479c2.548,2.592,2.992,6.408,3.05,8.24h-20.188C457.096,96.019,460.293,90.411,466.914,90.411"/>
	<path clip-path="url(#SVGID_2_)" fill="#FFFFFF" d="M158.44,28.63c2.466-0.328,5.342-0.574,8.491-0.574
		c5.707,0,9.769,1.15,12.463,3.41c2.784,2.258,4.382,5.504,4.382,9.982c0,4.519-1.598,8.215-4.427,10.763
		c-2.922,2.588-7.67,3.985-13.65,3.985c-2.876,0-5.204-0.082-7.259-0.329V28.63z M162.458,53.156
		c1.004,0.164,2.465,0.164,4.018,0.164c8.49,0.04,13.099-4.272,13.099-11.749c0.046-6.614-4.062-10.682-12.461-10.682
		c-2.052,0-3.606,0.167-4.656,0.37V53.156z"/>
	<path clip-path="url(#SVGID_2_)" fill="#FFFFFF" d="M198.013,56.401c-5.935,0-10.59-3.943-10.59-10.229
		c0-6.655,4.884-10.558,10.955-10.558c6.346,0,10.635,4.148,10.635,10.188c0,7.395-5.705,10.599-10.953,10.599H198.013z
		 M198.15,53.689c3.834,0,6.711-3.245,6.711-7.765c0-3.368-1.872-7.599-6.619-7.599c-4.703,0-6.757,3.944-6.757,7.723
		c0,4.355,2.739,7.641,6.619,7.641H198.15z"/>
	<path clip-path="url(#SVGID_2_)" fill="#FFFFFF" d="M215.369,36.065l2.967,10.066c0.592,2.218,1.187,4.313,1.597,6.368h0.137
		c0.502-2.014,1.233-4.15,1.963-6.327l3.606-10.107h3.379l3.424,9.941c0.82,2.343,1.46,4.479,1.962,6.493h0.137
		c0.365-2.014,0.96-4.109,1.689-6.451l3.149-9.983h3.972l-7.121,19.884h-3.652l-3.377-9.489c-0.775-2.26-1.416-4.232-1.965-6.574
		h-0.09c-0.548,2.383-1.232,4.478-2.009,6.615l-3.56,9.448h-3.651l-6.666-19.884H215.369z"/>
	<path clip-path="url(#SVGID_2_)" fill="#FFFFFF" d="M247.371,41.448c0-2.096-0.046-3.738-0.184-5.383h3.562l0.227,3.247h0.092
		c1.096-1.849,3.652-3.698,7.303-3.698c3.059,0,7.806,1.643,7.806,8.463v11.872h-4.016V44.487c0-3.204-1.325-5.914-5.114-5.914
		c-2.602,0-4.657,1.684-5.386,3.696c-0.183,0.452-0.274,1.109-0.274,1.685v11.995h-4.017V41.448z"/>
	<rect x="272.705" y="26.782" clip-path="url(#SVGID_2_)" fill="#FFFFFF" width="4.018" height="29.167"/>
	<path clip-path="url(#SVGID_2_)" fill="#FFFFFF" d="M292.38,56.401c-5.933,0-10.59-3.943-10.59-10.229
		c0-6.655,4.882-10.558,10.955-10.558c6.344,0,10.635,4.148,10.635,10.188c0,7.395-5.706,10.599-10.955,10.599H292.38z
		 M292.516,53.689c3.835,0,6.712-3.245,6.712-7.765c0-3.368-1.872-7.599-6.618-7.599c-4.703,0-6.758,3.944-6.758,7.723
		c0,4.355,2.738,7.641,6.619,7.641H292.516z"/>
	<path clip-path="url(#SVGID_2_)" fill="#FFFFFF" d="M324.016,51.185c0,1.725,0.092,3.408,0.319,4.764h-3.606l-0.365-2.504h-0.135
		c-1.188,1.56-3.609,2.957-6.756,2.957c-4.474,0-6.756-2.834-6.756-5.711c0-4.806,4.745-7.436,13.28-7.395v-0.41
		c0-1.642-0.5-4.642-5.019-4.6c-2.103,0-4.245,0.532-5.797,1.477l-0.914-2.423c1.826-1.026,4.518-1.725,7.304-1.725
		c6.801,0,8.444,4.148,8.444,8.134V51.185z M320.092,45.803c-4.384-0.082-9.358,0.616-9.358,4.478c0,2.382,1.733,3.451,3.743,3.451
		c2.921,0,4.793-1.644,5.431-3.328c0.139-0.369,0.185-0.782,0.185-1.151V45.803z"/>
	<path clip-path="url(#SVGID_2_)" fill="#FFFFFF" d="M349.533,26.782v24.031c0,1.767,0.049,3.78,0.183,5.136h-3.604l-0.183-3.45
		h-0.092c-1.231,2.218-3.88,3.902-7.485,3.902c-5.343,0-9.496-4.066-9.496-10.106c-0.047-6.656,4.565-10.681,9.904-10.681
		c3.427,0,5.708,1.44,6.667,2.999h0.091V26.782H349.533z M345.518,44.159c0-0.493-0.046-1.068-0.185-1.561
		c-0.591-2.259-2.783-4.149-5.795-4.149c-4.155,0-6.621,3.286-6.621,7.642c0,4.066,2.239,7.392,6.529,7.392
		c2.693,0,5.159-1.642,5.887-4.312c0.139-0.492,0.185-0.987,0.185-1.561V44.159z"/>
	<path clip-path="url(#SVGID_2_)" fill="#FFFFFF" d="M374.868,56.401c-5.933,0-10.59-3.943-10.59-10.229
		c0-6.655,4.887-10.558,10.956-10.558c6.347,0,10.636,4.148,10.636,10.188c0,7.395-5.707,10.599-10.953,10.599H374.868z
		 M375.007,53.689c3.834,0,6.709-3.245,6.709-7.765c0-3.368-1.868-7.599-6.616-7.599c-4.703,0-6.756,3.944-6.756,7.723
		c0,4.355,2.737,7.641,6.616,7.641H375.007z"/>
	<path clip-path="url(#SVGID_2_)" fill="#FFFFFF" d="M390.94,41.448c0-2.096-0.047-3.738-0.184-5.383h3.562l0.23,3.247h0.089
		c1.097-1.849,3.651-3.698,7.303-3.698c3.06,0,7.808,1.643,7.808,8.463v11.872h-4.019V44.487c0-3.204-1.321-5.914-5.112-5.914
		c-2.601,0-4.656,1.684-5.388,3.696c-0.181,0.452-0.272,1.109-0.272,1.685v11.995h-4.017V41.448z"/>
	<path clip-path="url(#SVGID_2_)" fill="#FFFFFF" d="M430.793,31.302v4.764h5.75v2.752h-5.75v10.723
		c0,2.464,0.776,3.861,3.014,3.861c1.093,0,1.733-0.082,2.328-0.246l0.181,2.752c-0.775,0.246-2.007,0.494-3.56,0.494
		c-1.871,0-3.379-0.576-4.338-1.52c-1.097-1.109-1.552-2.877-1.552-5.219V38.818h-3.424v-2.752h3.424V32.41L430.793,31.302z"/>
	<path clip-path="url(#SVGID_2_)" fill="#FFFFFF" d="M441.064,26.782h4.016v12.406h0.093c0.637-1.027,1.642-1.971,2.877-2.547
		c1.187-0.656,2.599-1.027,4.108-1.027c2.965,0,7.713,1.643,7.713,8.504v11.831h-4.016v-11.42c0-3.246-1.324-5.916-5.113-5.916
		c-2.603,0-4.61,1.644-5.387,3.615c-0.229,0.493-0.275,1.027-0.275,1.726v11.995h-4.016V26.782z"/>
	<path clip-path="url(#SVGID_2_)" fill="#FFFFFF" d="M468.682,46.624c0.093,4.889,3.517,6.902,7.533,6.902
		c2.875,0,4.655-0.453,6.119-0.987l0.729,2.547c-1.418,0.575-3.882,1.274-7.396,1.274c-6.759,0-10.865-4.068-10.865-10.023
		c0-6.039,3.972-10.764,10.406-10.764c7.215,0,9.084,5.71,9.084,9.367c0,0.74-0.044,1.315-0.136,1.725L468.682,46.624z
		 M480.415,44.036c0.044-2.26-1.051-5.875-5.524-5.875c-4.11,0-5.844,3.369-6.163,5.875H480.415z"/>
</g>
</svg>
