<?xml version="1.0" encoding="utf-8"?>
<!-- Generator: Adobe Illustrator 19.2.1, SVG Export Plug-In . SVG Version: 6.00 Build 0)  -->
<svg version="1.1" id="Layer_1" xmlns="http://www.w3.org/2000/svg" xmlns:xlink="http://www.w3.org/1999/xlink" x="0px" y="0px"
	 viewBox="0 0 32 32" style="enable-background:new 0 0 32 32;" xml:space="preserve">
<style type="text/css">
	.st0{fill:#39B54A;}
</style>
<path class="st0" d="M10.1,5.8V4.4C10.1,2,8.1,0,5.7,0C3.2,0,1.2,2,1.2,4.4v1.4C0.5,6.2,0,7,0,8v5.5c0,1.4,1.1,2.4,2.4,2.4h6.5
	c1.4,0,2.5-1.1,2.5-2.4V8C11.4,7.1,10.8,6.2,10.1,5.8z M6.7,11v1.7c0,0.5-0.4,1-0.9,1h0c-0.5,0-1-0.5-1-1V11
	c-0.5-0.3-0.9-0.9-0.9-1.6c0-1,0.9-1.9,1.9-1.9c1,0,1.9,0.8,1.9,1.9C7.6,10.1,7.3,10.7,6.7,11z M8.5,5.5H2.8V4.4
	c0-1.6,1.3-2.9,2.9-2.9c1.6,0,2.9,1.3,2.9,2.9V5.5z"/>
</svg>
