<?xml version="1.0" encoding="utf-8"?>
<!-- Generator: Adobe Illustrator 20.1.0, SVG Export Plug-In . SVG Version: 6.00 Build 0)  -->
<svg version="1.2" baseProfile="tiny" id="Layer_1_copy"
	 xmlns="http://www.w3.org/2000/svg" xmlns:xlink="http://www.w3.org/1999/xlink" x="0px" y="0px" viewBox="0 0 48 48"
	 xml:space="preserve">
<g>
</g>
<g>
	<path fill="#72BE44" d="M5.3,13.3L23.8,2.3l18.7,10.9v21.4L24.1,45.8L5.3,35C5.3,35,5.2,23.3,5.3,13.3z"/>
	<polygon fill="#FFFFFF" points="15.9,20.2 13.1,23 23.1,32.9 37,19 33.8,16.1 23,27.1 	"/>
	<path fill="#7AC943" d="M5.3,12.1c3.4-2,14-8.3,17.5-10.3c0.7-0.4,1.5-0.4,2.1,0l17.6,10.3c0.6,0.4,1,1.1,1,1.8v20.2
		c0,0.7-0.4,1.4-1,1.8L25.2,46.3c-0.7,0.4-1.5,0.4-2.1,0L5.3,36.1c-0.6-0.4-1-1.1-1.1-1.8c0-3.2-0.1-12.2,0-20.4
		C4.3,13.1,4.7,12.5,5.3,12.1z"/>
	<polygon fill="#FFFFFF" points="15.4,20 12.5,22.9 23,33.4 37.7,18.8 34.4,15.7 23,27.3 	"/>
</g>
</svg>
