<?xml version="1.0" encoding="utf-8"?>
<!-- Generator: Adobe Illustrator 20.1.0, SVG Export Plug-In . SVG Version: 6.00 Build 0)  -->
<svg version="1.2" baseProfile="tiny" id="Layer_1_copy"
	 xmlns="http://www.w3.org/2000/svg" xmlns:xlink="http://www.w3.org/1999/xlink" x="0px" y="0px" viewBox="0 0 48 48"
	 xml:space="preserve">
<g>
	<path fill="#808080" d="M19.9,44.7c-0.4,0-0.8-0.1-1.1-0.3L1.9,34.6c-0.7-0.4-1.1-1.1-1.1-1.9c0-1.8-0.1-11.2,0-19.5
		c0-0.8,0.4-1.5,1.1-1.9l0,0l16.7-9.8c0.7-0.4,1.6-0.4,2.3,0l16.8,9.8c0.7,0.4,1.1,1.1,1.1,2v19.2c0,0.8-0.4,1.5-1.1,1.9l-16.5,10
		C20.7,44.6,20.3,44.7,19.9,44.7z M20.9,40.9L20.9,40.9C20.9,40.9,20.9,40.9,20.9,40.9z M4.9,31.6l15,8.7l14.7-8.9V14.3L19.7,5.5
		L4.9,14.3C4.8,21.2,4.9,28.8,4.9,31.6z M35.5,14.8C35.5,14.8,35.5,14.8,35.5,14.8L35.5,14.8z M4.9,13.2C4.9,13.2,4.9,13.2,4.9,13.2
		C4.9,13.2,4.9,13.2,4.9,13.2z"/>
	<g>
		<g>
			<path fill="#999999" d="M29.8,20.4c0,2-0.9,3.6-2,5.1c-1.7,2.2-3.9,3.8-6,5.5c-0.6,0.5-1.1,0.9-1.7,1.3c-0.3,0.2-0.3,0.3-0.5,0
				c-2.5-2-5.2-3.8-7.3-6.3c-1.5-1.7-2.6-3.7-2.5-6.1c0.2-2.4,2.3-4.5,4.8-4.6c2.2-0.1,3.9,0.7,5,2.6c0.3,0.5,0.4,0.2,0.6-0.1
				c1.9-3.2,6.6-3.4,8.8-0.5C29.5,18.2,29.8,19.2,29.8,20.4z"/>
		</g>
	</g>
</g>
<g>
	<path fill="#7AC943" d="M38,23.9c0,0,0.7-0.5,1.6,0l7.5,4.4c0,0,0.6,0.4,0.6,1.2v8.7c0,0,0,0.7-0.6,1l-7.7,4.6c0,0-0.5,0.4-1.3,0
		l-7.7-4.5c0,0-0.7-0.4-0.7-1v-9.2c0,0,0-0.6,0.6-1L38,23.9z"/>
	<g>
		
			<rect x="35.6" y="32.6" transform="matrix(0.7071 -0.7071 0.7071 0.7071 -11.9831 39.007)" fill="#FFFFFF" width="11" height="2.7"/>
		
			<rect x="35.3" y="32" transform="matrix(0.7071 -0.7071 0.7071 0.7071 -14.3133 36.2944)" fill="#FFFFFF" width="2.7" height="6.9"/>
	</g>
</g>
</svg>
