<?xml version="1.0" encoding="utf-8"?>
<!-- Generator: Adobe Illustrator 20.1.0, SVG Export Plug-In . SVG Version: 6.00 Build 0)  -->
<svg version="1.2" baseProfile="tiny" id="Layer_1_copy"
	 xmlns="http://www.w3.org/2000/svg" xmlns:xlink="http://www.w3.org/1999/xlink" x="0px" y="0px" viewBox="0 0 48 48"
	 xml:space="preserve">
<g>
</g>
<g>
	<g>
		<g>
			<path fill="#FFC200" stroke="#FFC200" stroke-width="4.2137" stroke-miterlimit="10" d="M2.8,13.5L20.2,3.2c0.1,0,0.2,0,0.2,0
				L38,13.5c0.1,0,0.1,0.1,0.1,0.2v20.1c0,0.1,0,0.2-0.1,0.2L20.7,44.4c-0.1,0-0.2,0-0.2,0L2.9,34.2c-0.1,0-0.1-0.1-0.1-0.2
				c0-1.2-0.1-11.4,0-20.3C2.7,13.6,2.8,13.5,2.8,13.5z"/>
		</g>
		<g>
			<g>
				<path fill="#FFFFFF" d="M33.3,20.3c0,2.5-1.1,4.6-2.6,6.5c-2.2,2.8-5,4.9-7.8,7c-0.7,0.6-1.5,1.2-2.2,1.7
					c-0.4,0.3-0.4,0.3-0.7,0c-3.3-2.6-6.7-4.9-9.4-8.1c-1.9-2.2-3.3-4.7-3.1-7.9c0.2-3.1,2.9-5.8,6.1-5.9c2.8-0.1,5,0.9,6.5,3.3
					c0.4,0.6,0.5,0.2,0.7-0.1c2.5-4.1,8.5-4.4,11.3-0.6C32.9,17.5,33.3,18.8,33.3,20.3z"/>
			</g>
		</g>
	</g>
	<g>
		<g>
			<path fill="#7AC943" stroke="#7AC943" stroke-width="1.6245" stroke-miterlimit="10" d="M33.2,31.1l6.7-4c0,0,0.1,0,0.1,0l6.8,4
				c0,0,0,0,0,0.1v7.7c0,0,0,0.1,0,0.1l-6.7,4c0,0-0.1,0-0.1,0l-6.8-3.9c0,0,0,0,0-0.1C33.2,38.5,33.2,34.6,33.2,31.1
				C33.2,31.1,33.2,31.1,33.2,31.1z"/>
		</g>
		
			<rect x="37.3" y="34" transform="matrix(0.7071 -0.7071 0.7071 0.7071 -12.5803 39.9753)" fill="#FFFFFF" width="9.4" height="2.3"/>
		
			<rect x="37" y="33.5" transform="matrix(0.7071 -0.7071 0.7071 0.7071 -14.5718 37.657)" fill="#FFFFFF" width="2.3" height="5.9"/>
	</g>
</g>
</svg>
