<?xml version="1.0" encoding="utf-8"?>
<!-- Generator: Adobe Illustrator 20.1.0, SVG Export Plug-In . SVG Version: 6.00 Build 0)  -->
<svg version="1.2" baseProfile="tiny" id="Layer_1_copy"
	 xmlns="http://www.w3.org/2000/svg" xmlns:xlink="http://www.w3.org/1999/xlink" x="0px" y="0px" viewBox="0 0 48 48"
	 xml:space="preserve">
<g>
</g>
<g>
	<g>
		<g>
			<g>
				<path fill="#FFC200" d="M19.7,44.8c-0.4,0-0.8-0.1-1.1-0.3L1.6,34.7c-0.7-0.4-1.1-1.1-1.1-1.9c0-1.8-0.1-11.2,0-19.6
					c0-0.8,0.4-1.5,1.1-1.9l16.7-9.8c0.7-0.4,1.6-0.4,2.3,0l16.8,9.8c0.7,0.4,1.1,1.1,1.1,1.9v19.3c0,0.8-0.4,1.5-1.1,1.9l-16.6,10
					C20.5,44.7,20.1,44.8,19.7,44.8z"/>
			</g>
		</g>
		<g>
			<g>
				<path fill="#FFFFFF" d="M31.9,19.6c0,2.4-1.1,4.4-2.5,6.3c-2.1,2.7-4.8,4.7-7.4,6.8c-0.7,0.6-1.4,1.1-2.1,1.6
					c-0.4,0.3-0.4,0.3-0.7,0c-3.1-2.4-6.4-4.7-9-7.7c-1.9-2.2-3.2-4.5-3-7.5c0.2-3,2.8-5.5,5.9-5.6c2.7-0.1,4.8,0.9,6.2,3.2
					c0.4,0.6,0.5,0.2,0.7-0.1c2.4-3.9,8.1-4.2,10.9-0.6C31.5,16.9,31.9,18.2,31.9,19.6z"/>
			</g>
		</g>
	</g>
</g>
<g>
	<path fill="#7AC943" d="M37.7,23.9c0,0,0.7-0.5,1.6,0l7.5,4.4c0,0,0.6,0.4,0.6,1.2v8.7c0,0,0,0.7-0.6,1l-7.7,4.6c0,0-0.5,0.4-1.3,0
		l-7.7-4.5c0,0-0.7-0.4-0.7-1v-9.2c0,0,0-0.6,0.6-1L37.7,23.9z"/>
	<g>
		
			<rect x="35.3" y="32.6" transform="matrix(0.7071 -0.7071 0.7071 0.7071 -12.0808 38.7713)" fill="#FFFFFF" width="11" height="2.7"/>
		<rect x="35" y="32" transform="matrix(0.7071 -0.7071 0.7071 0.7071 -14.411 36.0587)" fill="#FFFFFF" width="2.7" height="6.9"/>
	</g>
</g>
</svg>
