<?xml version="1.0" encoding="utf-8"?>
<!-- Generator: Adobe Illustrator 19.2.0, SVG Export Plug-In . SVG Version: 6.00 Build 0)  -->
<svg version="1.1" id="Layer_1_copy" xmlns="http://www.w3.org/2000/svg" xmlns:xlink="http://www.w3.org/1999/xlink" x="0px"
	 y="0px" viewBox="0 0 48 48" style="enable-background:new 0 0 48 48;" xml:space="preserve">
<style type="text/css">
	.st0{fill:#FFC200;}
	.st1{fill:#FFFFFF;}
</style>
<g>
	<g>
		<g>
			<g>
				<path class="st0" d="M24.2,45.8c-0.4,0-0.8-0.1-1.1-0.3l-17-9.8C5.4,35.3,5,34.6,5,33.8C5,32,4.9,22.6,5,14.2
					c0-0.8,0.4-1.5,1.1-1.9l16.7-9.8c0.7-0.4,1.6-0.4,2.3,0l16.8,9.8c0.7,0.4,1.1,1.1,1.1,1.9v19.3c0,0.8-0.4,1.5-1.1,1.9l-16.6,10
					C25,45.7,24.6,45.8,24.2,45.8z"/>
			</g>
		</g>
		<g>
			<g>
				<path class="st1" d="M36.4,20.6c0,2.4-1.1,4.4-2.5,6.3c-2.1,2.7-4.8,4.7-7.4,6.8c-0.7,0.6-1.4,1.1-2.1,1.6
					c-0.4,0.3-0.4,0.3-0.7,0c-3.1-2.4-6.4-4.7-9-7.7c-1.9-2.2-3.2-4.5-3-7.5s2.8-5.5,5.9-5.6c2.7-0.1,4.8,0.9,6.2,3.2
					c0.4,0.6,0.5,0.2,0.7-0.1c2.4-3.9,8.1-4.2,10.9-0.6C36,17.9,36.4,19.2,36.4,20.6z"/>
			</g>
		</g>
	</g>
</g>
</svg>
