<?xml version="1.0" encoding="utf-8"?>
<!-- Generator: Adobe Illustrator 19.2.0, SVG Export Plug-In . SVG Version: 6.00 Build 0)  -->
<svg version="1.1" id="Layer_1_copy" xmlns="http://www.w3.org/2000/svg" xmlns:xlink="http://www.w3.org/1999/xlink" x="0px"
	 y="0px" viewBox="0 0 48 48" style="enable-background:new 0 0 48 48;" xml:space="preserve">
<style type="text/css">
	.st0{fill:none;stroke:#808080;stroke-width:4.2742;stroke-miterlimit:10;}
	.st1{fill:#999999;}
</style>
<g>
	<g>
		<path class="st0" d="M6.5,13.7L23.9,3.4c0.1,0,0.2,0,0.2,0l17.5,10.3c0.1,0,0.1,0.1,0.1,0.2V34c0,0.1,0,0.2-0.1,0.2L24.3,44.6
			c-0.1,0-0.2,0-0.2,0L6.5,34.4c-0.1,0-0.1-0.1-0.1-0.2c0-1.2-0.1-11.4,0-20.3C6.4,13.8,6.4,13.7,6.5,13.7z"/>
	</g>
	<g>
		<g>
			<path class="st1" d="M34.6,21.3c0,2-0.9,3.8-2.1,5.3c-1.8,2.3-4.1,4-6.3,5.7c-0.6,0.5-1.2,1-1.8,1.4c-0.3,0.2-0.3,0.3-0.6,0
				c-2.7-2.1-5.4-4-7.7-6.6c-1.6-1.8-2.7-3.9-2.6-6.4c0.2-2.6,2.4-4.7,5-4.8c2.3-0.1,4.1,0.8,5.3,2.7c0.3,0.5,0.4,0.2,0.6-0.1
				c2-3.3,6.9-3.6,9.2-0.5C34.2,19,34.6,20.1,34.6,21.3z"/>
		</g>
	</g>
</g>
</svg>
