<?xml version="1.0" encoding="utf-8"?>
<!-- Generator: Adobe Illustrator 19.2.0, SVG Export Plug-In . SVG Version: 6.00 Build 0)  -->
<svg version="1.1" id="Layer_1_copy" xmlns="http://www.w3.org/2000/svg" xmlns:xlink="http://www.w3.org/1999/xlink" x="0px"
	 y="0px" viewBox="0 0 48 48" style="enable-background:new 0 0 48 48;" xml:space="preserve">
<style type="text/css">
	.st0{fill:#FFC200;stroke:#FFC200;stroke-width:4.2137;stroke-miterlimit:10;}
	.st1{fill:#FFFFFF;}
</style>
<g>
	<g>
		<path class="st0" d="M6.5,13.7L23.9,3.4c0.1,0,0.2,0,0.2,0l17.5,10.3c0.1,0,0.1,0.1,0.1,0.2V34c0,0.1,0,0.2-0.1,0.2L24.4,44.6
			c-0.1,0-0.2,0-0.2,0L6.5,34.4c-0.1,0-0.1-0.1-0.1-0.2c0-1.2-0.1-11.4,0-20.3C6.4,13.8,6.4,13.7,6.5,13.7z"/>
	</g>
	<g>
		<g>
			<path class="st1" d="M37,20.5c0,2.5-1.1,4.6-2.6,6.5c-2.2,2.8-5,4.9-7.8,7c-0.7,0.6-1.5,1.2-2.2,1.7C24,36,24,36,23.7,35.7
				c-3.3-2.6-6.7-4.9-9.4-8.1c-1.9-2.2-3.3-4.7-3.1-7.9c0.2-3.1,2.9-5.8,6.1-5.9c2.8-0.1,5,0.9,6.5,3.3c0.4,0.6,0.5,0.2,0.7-0.1
				c2.5-4.1,8.5-4.4,11.3-0.6C36.6,17.7,37,19,37,20.5z"/>
		</g>
	</g>
</g>
</svg>
