<?xml version="1.0" encoding="utf-8"?>
<!-- Generator: Adobe Illustrator 20.1.0, SVG Export Plug-In . SVG Version: 6.00 Build 0)  -->
<svg version="1.2" baseProfile="tiny" id="Layer_1_copy"
	 xmlns="http://www.w3.org/2000/svg" xmlns:xlink="http://www.w3.org/1999/xlink" x="0px" y="0px" viewBox="0 0 48 48"
	 xml:space="preserve">
<g>
	<g>
		<path fill="none" stroke="#808080" stroke-width="4.2742" stroke-miterlimit="10" d="M2.8,13.5L20.2,3.2c0.1,0,0.2,0,0.2,0
			L38,13.5c0.1,0,0.1,0.1,0.1,0.2v20.1c0,0.1,0,0.2-0.1,0.2L20.7,44.4c-0.1,0-0.2,0-0.2,0L2.9,34.2c-0.1,0-0.1-0.1-0.1-0.2
			c0-1.2-0.1-11.4,0-20.3C2.7,13.6,2.8,13.5,2.8,13.5z"/>
		<g>
			<g>
				<path fill="#999999" d="M30.9,21.1c0,2-0.9,3.8-2.1,5.3c-1.8,2.3-4.1,4-6.3,5.7c-0.6,0.5-1.2,1-1.8,1.4c-0.3,0.2-0.3,0.3-0.6,0
					c-2.7-2.1-5.4-4-7.7-6.6c-1.6-1.8-2.7-3.9-2.6-6.4c0.2-2.6,2.4-4.7,5-4.8c2.3-0.1,4.1,0.8,5.3,2.7c0.3,0.5,0.4,0.2,0.6-0.1
					c2-3.3,6.9-3.6,9.2-0.5C30.6,18.8,30.9,19.9,30.9,21.1z"/>
			</g>
		</g>
	</g>
	<g>
		<g>
			<path fill="#7AC943" stroke="#7AC943" stroke-width="1.6245" stroke-miterlimit="10" d="M33,31l6.7-4c0,0,0.1,0,0.1,0l6.8,4
				c0,0,0,0,0,0.1v7.7c0,0,0,0.1,0,0.1l-6.7,4c0,0-0.1,0-0.1,0L33,39c0,0,0,0,0-0.1C33,38.5,32.9,34.5,33,31C33,31.1,33,31,33,31z"
				/>
		</g>
		
			<rect x="37" y="34" transform="matrix(0.7071 -0.7071 0.7071 0.7071 -12.6155 39.7966)" fill="#FFFFFF" width="9.4" height="2.3"/>
		
			<rect x="36.8" y="33.4" transform="matrix(0.7071 -0.7071 0.7071 0.7071 -14.6071 37.4783)" fill="#FFFFFF" width="2.3" height="5.9"/>
	</g>
</g>
</svg>
