<?xml version="1.0" encoding="utf-8"?>
<!-- Generator: Adobe Illustrator 19.2.0, SVG Export Plug-In . SVG Version: 6.00 Build 0)  -->
<svg version="1.1" id="Layer_1_copy" xmlns="http://www.w3.org/2000/svg" xmlns:xlink="http://www.w3.org/1999/xlink" x="0px"
	 y="0px" viewBox="0 0 48 48" style="enable-background:new 0 0 48 48;" xml:space="preserve">
<style type="text/css">
	.st0{fill:#808080;}
	.st1{fill:#999999;}
</style>
<g>
	<path class="st0" d="M24.1,45.8c-0.4,0-0.8-0.1-1.1-0.3L6.1,35.6C5.4,35.2,5,34.5,5,33.7c0-1.8-0.1-11.2,0-19.5
		c0-0.8,0.4-1.5,1.1-1.9l0,0l16.7-9.8c0.7-0.4,1.6-0.4,2.3,0l16.8,9.8c0.7,0.4,1.1,1.1,1.1,2v19.2c0,0.8-0.4,1.5-1.1,1.9l-16.5,10
		C24.9,45.6,24.5,45.8,24.1,45.8z M25.1,42L25.1,42L25.1,42z M9.1,32.7l15,8.7l14.7-8.9V15.4L23.9,6.6L9.1,15.4
		C9,22.3,9.1,29.9,9.1,32.7z M39.7,15.9L39.7,15.9L39.7,15.9z M9.1,14.3L9.1,14.3L9.1,14.3z"/>
	<g>
		<g>
			<path class="st1" d="M34,21.5c0,2-0.9,3.6-2,5.1c-1.7,2.2-3.9,3.8-6,5.5c-0.6,0.5-1.1,0.9-1.7,1.3c-0.3,0.2-0.3,0.3-0.5,0
				c-2.5-2-5.2-3.8-7.3-6.3C15,25.4,13.9,23.4,14,21c0.2-2.4,2.3-4.5,4.8-4.6c2.2-0.1,3.9,0.7,5,2.6c0.3,0.5,0.4,0.2,0.6-0.1
				c1.9-3.2,6.6-3.4,8.8-0.5C33.7,19.3,34,20.3,34,21.5z"/>
		</g>
	</g>
</g>
</svg>
