<?xml version="1.0" encoding="utf-8"?>
<!-- Generator: Adobe Illustrator 20.1.0, SVG Export Plug-In . SVG Version: 6.00 Build 0)  -->
<svg version="1.2" baseProfile="tiny" id="Layer_1_copy"
	 xmlns="http://www.w3.org/2000/svg" xmlns:xlink="http://www.w3.org/1999/xlink" x="0px" y="0px" viewBox="0 0 48 48"
	 xml:space="preserve">
<g>
	<path fill="none" stroke="#808080" stroke-width="4.2742" stroke-miterlimit="10" d="M6.2,13.6L23.6,3.3c0.1,0,0.2,0,0.2,0
		l17.5,10.3c0.1,0,0.1,0.1,0.1,0.2v20.1c0,0.1,0,0.2-0.1,0.2L24.1,44.5c-0.1,0-0.2,0-0.2,0L6.2,34.3c-0.1,0-0.1-0.1-0.1-0.2
		c0-1.2-0.1-11.4,0-20.3C6.1,13.7,6.2,13.6,6.2,13.6z"/>
	<polygon fill="#999999" points="16.2,20.3 13.6,22.9 23,32.3 36.2,19.1 33.2,16.3 23,26.8 	"/>
</g>
</svg>
