<svg xmlns="http://www.w3.org/2000/svg" width="24" height="24" viewBox="0 0 24 24">
  <path fill="none" stroke="#FFF" stroke-linecap="round" stroke-linejoin="round" stroke-width="1.5" d="M9.32000966,20 L5.8,20 C5.3584,20 5,19.6416 5,19.2 L5,15.6799903 C6.21719484,15.4329128 7.13333333,14.3567776 7.13333333,13.0666667 C7.13333333,11.7765558 6.21719484,10.7004205 5,10.453343 L5,8 C5,7.5584 5.3584,7.2 5.8,7.2 L8.3472,7.2 C8.2576,6.9488 8.2,6.6824 8.2,6.4 C8.2,5.0744 9.2744,4 10.6,4 C11.9256,4 13,5.0744 13,6.4 C13,6.6824 12.9424,6.9488 12.8528,7.2 L17,7.2 C17.4416,7.2 17.8,7.5584 17.8,8 L17.8,10.5472 C18.0512,10.4576 18.3176,10.4 18.6,10.4 C19.9256,10.4 21,11.4744 21,12.8 C21,14.1256 19.9256,15.2 18.6,15.2 C18.3176,15.2 18.0512,15.1424 17.8,15.0528 L17.8,19.2 C17.8,19.6416 17.4416,20 17,20 L14.546657,20 C14.2995795,18.7828052 13.2234442,17.8666667 11.9333333,17.8666667 C10.6432224,17.8666667 9.56708717,18.7828052 9.32000966,20 Z"/>
</svg>
