<?xml version="1.0" encoding="utf-8"?>
<!-- Generator: Adobe Illustrator 20.1.0, SVG Export Plug-In . SVG Version: 6.00 Build 0)  -->
<svg version="1.2" baseProfile="tiny" id="Layer_1_copy"
	 xmlns="http://www.w3.org/2000/svg" xmlns:xlink="http://www.w3.org/1999/xlink" x="0px" y="0px" viewBox="0 0 48 48"
	 xml:space="preserve">
<g>
	<path fill="#FFFFFF" d="M46.8,9.4c0-2.5-2.1-4.6-4.6-4.6H5.9c-2.5,0-4.6,2.1-4.6,4.6v29.1c0,2.5,2.1,4.6,4.6,4.6h36.3
		c2.5,0,4.6-2.1,4.6-4.6V9.4z M25.3,37.4c0,0.5-0.4,1-1,1H7.1c-0.5,0-1-0.4-1-1V10.6c0-0.5,0.4-1,1-1h17.2c0.5,0,1,0.4,1,1V37.4z"/>
	<rect x="10.9" y="14.4" fill="#FFFFFF" width="9.6" height="2.4"/>
	<rect x="10.9" y="21.6" fill="#FFFFFF" width="9.6" height="2.4"/>
	<rect x="10.9" y="28.8" fill="#FFFFFF" width="9.6" height="2.4"/>
</g>
</svg>
