<?xml version="1.0" encoding="utf-8"?>
<!-- Generator: Adobe Illustrator 20.1.0, SVG Export Plug-In . SVG Version: 6.00 Build 0)  -->
<svg version="1.2" baseProfile="tiny" id="Layer_1_copy"
	 xmlns="http://www.w3.org/2000/svg" xmlns:xlink="http://www.w3.org/1999/xlink" x="0px" y="0px" viewBox="0 0 48 48"
	 xml:space="preserve">
<path fill="#FFFFFF" d="M36.8,18.4v-3.8c0-7.4-6-13.4-13.4-13.4C16,1.2,10,7.2,10,14.6v3.8c-2.3,1.3-3.7,3.7-3.7,6.5v14.9
	c0,4.1,3.2,7.3,7.4,7.3h19.6c4.1,0,7.4-3.2,7.4-7.3V24.9C40.8,22.1,39.1,19.7,36.8,18.4z M26.5,34.2v3.4c0,1.6-1.3,3-2.9,3h0
	c-1.6,0-3-1.4-3-3v-3.4c-1.6-1-2.7-2.8-2.7-4.9c0-3.1,2.6-5.6,5.7-5.6c3.1,0,5.6,2.5,5.6,5.6C29.3,31.4,28.3,33.2,26.5,34.2z
	 M32.1,17.5H14.7v-2.9c0-4.8,3.9-8.7,8.7-8.7c4.8,0,8.7,3.9,8.7,8.7V17.5z"/>
</svg>
