<svg xmlns="http://www.w3.org/2000/svg" width="24" height="24" viewBox="0 0 24 24">
  <g fill="none" fill-rule="evenodd">
    <path fill="#FFF" d="M19.078125 12.264375C19.078125 13.514625 18.064875 14.528625 16.813875 14.528625 15.562875 14.528625 14.549625 13.514625 14.549625 12.264375 14.549625 11.014125 15.562875 10.000125 16.813875 10.000125 18.064875 10.000125 19.078125 11.014125 19.078125 12.264375M12.20325 6.76425C12.20325 8.01525 11.19 9.0285 9.939 9.0285 8.688 9.0285 7.67475 8.01525 7.67475 6.76425 7.67475 5.514 8.688 4.5 9.939 4.5 11.19 4.5 12.20325 5.514 12.20325 6.76425M10.828125 17.7645C10.828125 19.01475 9.814875 20.02875 8.563875 20.02875 7.312875 20.02875 6.299625 19.01475 6.299625 17.7645 6.299625 16.5135 7.312875 15.50025 8.563875 15.50025 9.814875 15.50025 10.828125 16.5135 10.828125 17.7645"/>
    <path stroke="#FFF" stroke-linecap="round" stroke-linejoin="round" stroke-width="1.5" d="M12.1875 7.014375L20.4375 7.014375M3.9375 7.014375L7.6875 7.014375M19.078125 12.264375L20.437125 12.264375"/>
    <path stroke="#FFF" stroke-linecap="round" stroke-linejoin="round" stroke-width="1.526" d="M3.75,12.264375 L14.55,12.264375"/>
    <path stroke="#FFF" stroke-linecap="round" stroke-linejoin="round" stroke-width="1.5" d="M10.81455 17.514375L20.4378 17.514375M3.9375 17.514375L6.3135 17.514375"/>
  </g>
</svg>
