<?xml version="1.0" encoding="utf-8"?>
<!-- Generator: Adobe Illustrator 20.1.0, SVG Export Plug-In . SVG Version: 6.00 Build 0)  -->
<svg version="1.2" baseProfile="tiny" id="Layer_1_copy"
	 xmlns="http://www.w3.org/2000/svg" xmlns:xlink="http://www.w3.org/1999/xlink" x="0px" y="0px" viewBox="0 0 48 48"
	 xml:space="preserve">
<path fill="#FFFFFF" d="M27.7,19.8c0.1-0.5,0.1-1,0.1-1.5c0-0.5,0-1-0.1-1.5l3.3-2.6c0.3-0.2,0.4-0.7,0.2-1l-3.1-5.5
	c-0.2-0.3-0.6-0.5-1-0.3l-3.9,1.6c-0.8-0.6-1.7-1.1-2.6-1.6L20,3.2c-0.1-0.4-0.4-0.7-0.8-0.7h-6.3c-0.4,0-0.7,0.3-0.8,0.7l-0.6,4.2
	c-1,0.4-1.8,0.9-2.6,1.6L5,7.4c-0.4-0.1-0.8,0-1,0.3l-3.1,5.5c-0.2,0.3-0.1,0.8,0.2,1l3.3,2.6c-0.1,0.5-0.1,1-0.1,1.5
	c0,0.5,0,1,0.1,1.5l-3.3,2.6c-0.3,0.2-0.4,0.7-0.2,1L4,28.9c0.2,0.3,0.6,0.5,1,0.3l3.9-1.6c0.8,0.6,1.7,1.1,2.6,1.6l0.6,4.2
	c0.1,0.4,0.4,0.7,0.8,0.7h6.3c0.4,0,0.7-0.3,0.8-0.7l0.6-4.2c1-0.4,1.8-0.9,2.6-1.6l3.9,1.6c0.4,0.1,0.8,0,1-0.3l3.1-5.5
	c0.2-0.3,0.1-0.8-0.2-1L27.7,19.8z M16.1,27.2c-4.9,0-8.9-4-8.9-8.9s4-8.9,8.9-8.9s8.9,4,8.9,8.9S21,27.2,16.1,27.2z"/>
<path fill="#FFFFFF" d="M43.8,31.7c-0.1-0.3-0.2-0.6-0.3-0.9c-0.1-0.3-0.3-0.6-0.4-0.8l1.2-2.2c0.1-0.2,0.1-0.5-0.1-0.6l-3-2.2
	c-0.2-0.1-0.4-0.1-0.6,0l-1.8,1.8c-0.6-0.1-1.2-0.2-1.8-0.2l-1.3-2.1c-0.1-0.2-0.4-0.3-0.6-0.2l-3.4,1.5c-0.2,0.1-0.3,0.3-0.3,0.6
	l0.7,2.4c-0.4,0.5-0.8,1-1.1,1.5l-2.5,0.1c-0.2,0-0.4,0.2-0.4,0.4l-0.4,3.8c0,0.2,0.1,0.4,0.3,0.5l2.4,0.6c0.1,0.3,0.2,0.6,0.3,0.9
	s0.3,0.6,0.4,0.8l-1.2,2.2c-0.1,0.2-0.1,0.5,0.1,0.6l3,2.2c0.2,0.1,0.4,0.1,0.6,0l1.8-1.8c0.6,0.1,1.2,0.2,1.8,0.2l1.3,2.1
	c0.1,0.2,0.4,0.3,0.6,0.2l3.4-1.5c0.2-0.1,0.3-0.3,0.3-0.6l-0.7-2.4c0.4-0.5,0.8-1,1.1-1.5l2.5-0.1c0.2,0,0.4-0.2,0.4-0.4l0.4-3.8
	c0-0.2-0.1-0.4-0.3-0.5L43.8,31.7z M39.2,38.5c-2.7,1.2-5.8,0-7-2.7c-1.2-2.7,0-5.9,2.7-7.1c2.7-1.2,5.8,0,7,2.7
	C43.1,34.2,41.9,37.3,39.2,38.5z"/>
</svg>
