<?xml version="1.0" encoding="utf-8"?>
<!-- Generator: Adobe Illustrator 20.1.0, SVG Export Plug-In . SVG Version: 6.00 Build 0)  -->
<svg version="1.2" baseProfile="tiny" id="Layer_1_copy"
	 xmlns="http://www.w3.org/2000/svg" xmlns:xlink="http://www.w3.org/1999/xlink" x="0px" y="0px" viewBox="0 0 48 48"
	 xml:space="preserve">
<path fill="#FFFFFF" d="M2.6,40.5c0.8-0.7,1.5-1.5,2.3-2.2c2.6-2.6,5.3-5.1,8-7.7c-0.2-0.3-0.3-0.5-0.4-0.8
	c-3.3-6.1-2.1-13.6,2.7-18.4c2-2,4-3.9,6-5.9c0.8-0.8,1.1-0.8,1.9,0c1.2,1.2,2.3,2.4,3.5,3.6c0.3-0.3,0.6-0.6,0.9-0.8
	c1.9-1.8,3.7-3.6,5.6-5.4c1.4-1.3,3.5-0.8,3.9,1c0.2,1-0.3,1.8-1,2.4c-2.1,2-4.2,4-6.3,6.1c2.2,2.2,4.3,4.4,6.4,6.6l0.1,0
	c0.3-0.3,0.6-0.6,0.9-0.8c1.9-1.8,3.7-3.6,5.6-5.4c1.4-1.3,3.5-0.8,3.9,1c0.2,1-0.3,1.8-1,2.4c-2.1,2-4.2,4-6.3,6.1l-0.1,0.1
	c1.2,1.3,2.4,2.5,3.6,3.7c0.7,0.6,0.7,1.2,0,1.8c-2.1,2-4.2,4.1-6.3,6.1c-3.5,3.2-7.6,4.4-12.3,3.9c-2.4-0.3-4.6-1.1-6.7-2.4
	c-1.8,1.8-3.6,3.5-5.4,5.3c-2.1,1.9-2.7,2.6-4.8,4.5l-0.2,0.2c-1.3,1.3-3.4,1.3-4.7,0s-1.3-3.4,0-4.7L2.6,40.5z"/>
</svg>
