<svg xmlns="http://www.w3.org/2000/svg" viewBox="0 0 24 24">
  <path fill="#898989" fill-rule="evenodd" d="M20.9998974 18.6877749c-.0046196.1071746-.0258698.2143492-.0822289.3141325v.0018478h-.0009239v.000924c-.0092392.0175544-.0286415.0240219-.0406524.0406524-.0591309.0859245-.1275009.1644576-.2161971.2161971-.0979355.0563591-.2088058.0822288-.3215239.0859245-.0083153.0009239-.0147827.0064674-.023098.0064674H3.68472719c-.00831527 0-.01478271-.0055435-.02309798-.0064674-.11271814-.0036957-.22451237-.0295654-.32244781-.0859245-.08777232-.0517395-.15706627-.1302726-.2161971-.2161971-.01108703-.0166305-.03048933-.023098-.03972852-.0406524v-.000924h-.00092392v-.0018478c-.05635907-.0997833-.07760922-.2069579-.08222881-.3141325-.00092392-.0295654.00461959-.057283.00646743-.0877724.00831527-.0840766.03048934-.1626097.06744611-.2383711.00831527-.0175545.00554351-.0378807.0147827-.0545112L11.4040723 4.31528743c.2494582-.42038324.9423976-.42038324 1.1909319 0l8.315273 13.99183277c.0101631.0166305.0073913.0369567.0157066.0545112.0369568.0757614.0591308.1542945.0665222.2383711.0027718.0304894.0083153.058207.0073914.0877724zm-8.9998972-7.0790691l-2.22110181 3.5875783H14.221102l-2.2211018-3.5875783zm3.9608417 3.7658947l2.4151249 1.3803354-5.6830272-9.562564V10.09625l3.2679023 5.2783505zM8.71916304 16.582163l-2.42528796 1.3858788H17.7061253l-2.4252879-1.3858788H8.71916304zm2.58789776-6.485913V7.1923719l-5.68302716 9.562564 2.41512485-1.3803354L11.3070608 10.09625z"/>
</svg>
