<?xml version="1.0" encoding="utf-8"?>
<!-- Generator: Adobe Illustrator 20.1.0, SVG Export Plug-In . SVG Version: 6.00 Build 0)  -->
<svg version="1.2" baseProfile="tiny" id="Layer_1_copy"
	 xmlns="http://www.w3.org/2000/svg" xmlns:xlink="http://www.w3.org/1999/xlink" x="0px" y="0px" viewBox="0 0 48 48"
	 xml:space="preserve">
<path fill="#FFFFFF" d="M42.7,10.8c-0.1,1.5-0.9,3.1-2.7,4c-1.3,0.6-1.1,1.3-0.3,2.1c1.9,1.9,3.7,3.7,5.6,5.6
	c1.4,1.4,1.4,2.1,0.1,3.4c-1.8,1.9-3.7,3.7-5.6,5.6c-0.8,0.8-1.5,1.2-2.3-0.2c-1.1-2.1-3.1-3-5.3-2.6c-1.9,0.4-3.4,1.8-3.8,3.9
	c-0.4,2.1,0.5,4,2.7,5.2c1.1,0.6,1.1,1.2,0.3,2c-2,2-4,4-6,5.9c-1,1-2,0.9-2.9,0c-1.9-1.9-3.7-3.7-5.6-5.6c-1.3-1.3-1.5-1.3-2.5,0.3
	c-1.1,1.8-3.1,2.7-5.1,2.4c-2-0.4-3.5-1.9-3.9-3.8c-0.4-2.1,0.4-4.2,2.4-5.2c1.6-0.8,1.2-1.5,0.2-2.5c-1.8-1.7-3.6-3.5-5.4-5.3
	c-1.4-1.5-1.4-2.1,0-3.5c1.8-1.8,3.7-3.6,5.5-5.5c0.9-0.9,1.6-1.2,2.3,0.2c1,2,3.1,2.9,5.2,2.5c1.9-0.3,3.5-1.9,3.9-3.9
	c0.4-2.1-0.4-4-2.5-5.1c-1.3-0.7-1.3-1.3-0.4-2.3c2-1.9,3.9-3.9,5.8-5.9c1-1,2-1,3.1,0c1.8,1.8,3.6,3.7,5.5,5.5
	c1.5,1.5,1.5,1.5,2.6-0.3C34.8,6,37,5.1,39.1,5.7C41.3,6.3,42.7,8.1,42.7,10.8z"/>
</svg>
