<svg width="24" height="24" xmlns="http://www.w3.org/2000/svg">
  <path d="M12.9009 19.8989v-2.362l2.797-1.575-2.797 3.937zm-1.5-2.351v2.447l-3.04-4.064 3.04 1.617zm6.481-4.537l-5.741 3.233-6.038-3.214c-.311-.166-.694-.093-.922.174-.229.266-.242.656-.031.937l6.4 8.558c.01.013.026.017.036.03.049.058.107.103.172.144.027.016.049.039.078.052.097.045.202.075.315.075h.009c.013 0 .024-.009.037-.01.099-.006.191-.028.275-.07.032-.014.055-.037.084-.056.063-.041.118-.087.166-.145.012-.013.03-.02.04-.035l6.099-8.585c.204-.286.182-.676-.053-.936-.236-.261-.619-.326-.926-.152zm-6.481-4.946l-3.464 1.415 3.464-5.237v3.822zm1.5-.004v-3.811l3.408 5.17-3.408-1.359zm0 1.614l3.584 1.431-3.584 1.941v-3.372zm-1.5 3.396l-3.647-1.897 3.647-1.489v3.386zm-6.161-1.882c.004.031-.004.062.004.092.004.016.017.028.022.044.006.017.003.034.01.052.024.059.059.11.096.159.006.009.009.019.016.028.059.073.133.129.213.175.008.005.014.014.023.019l6.181 3.213c.008.004.017.002.025.006.098.048.205.079.321.079.119 0 .228-.034.328-.083.009-.005.02-.003.029-.008l6.1-3.303c.029-.016.047-.044.074-.064.046-.032.09-.065.128-.108.03-.035.052-.075.076-.116.019-.033.047-.058.061-.094.007-.017.004-.034.009-.051.006-.016.018-.028.022-.044.007-.031 0-.062.003-.094.007-.055.012-.109.006-.163-.004-.044-.015-.084-.027-.127-.016-.054-.034-.105-.061-.154-.01-.019-.011-.04-.023-.058l-6.099-9.252c-.011-.016-.031-.023-.043-.039-.05-.064-.108-.117-.177-.162-.027-.018-.05-.039-.079-.053-.099-.049-.207-.082-.325-.082 0 0-.001-.001-.002-.001-.119 0-.227.033-.327.083-.029.014-.051.035-.079.053-.068.045-.127.097-.177.161-.012.016-.031.023-.042.04l-6.181 9.342c-.012.018-.013.041-.024.06-.027.051-.046.102-.062.159-.012.042-.022.081-.026.125-.005.055 0 .109.007.166z" fill="#FFF" fill-rule="evenodd"/>
</svg>
