<svg xmlns="http://www.w3.org/2000/svg" width="24" height="24" viewBox="0 0 24 24">
  <g fill="none" fill-rule="evenodd">
    <path stroke="#FFF" stroke-width="1.5" d="M10.0514753,12.825075 C9.43047528,11.748825 9.79872528,10.373325 10.8749753,9.752325 C11.9512253,9.131325 13.3267253,9.499575 13.9477253,10.575825 C14.5687253,11.652075 14.2004753,13.027575 13.1242253,13.648575 C12.0487253,14.269575 10.6724753,13.901325 10.0514753,12.825075 Z"/>
    <path stroke="#FFF" stroke-linecap="round" stroke-linejoin="round" stroke-width="1.5" d="M17.3574503,8.60925 C17.4422003,8.75625 17.5209503,8.90625 17.5922003,9.057 C17.7009503,9.285 17.9124503,9.4455 18.1644503,9.4665 L19.4777003,9.576 C19.7784503,9.60075 20.0379503,9.816 20.0957003,10.1115 C20.3042003,11.172 20.2982003,12.252 20.0934503,13.29 C20.0357003,13.5855 19.7762003,13.80075 19.4762003,13.8255 L18.1644503,13.93575 C17.9117003,13.956 17.7002003,14.11725 17.5914503,14.346 C17.4489503,14.649 17.2802003,14.94075 17.0882003,15.219 C16.9449503,15.42675 16.9097003,15.68775 17.0177003,15.9165 C17.2922003,16.49925 17.7962003,17.56725 17.7962003,17.56725 L17.7909503,17.57325 C17.3027003,18.05325 16.7454503,18.48075 16.1237003,18.83925 C15.5027003,19.19775 14.8539503,19.46625 14.1924503,19.6485 L14.1857003,19.65075 L13.1462003,18.153 C13.0022003,17.946 12.7562003,17.84325 12.5042003,17.8635 C12.1674503,17.8905 11.8299503,17.8905 11.4962003,17.86275 C11.2434503,17.84175 10.9989503,17.943 10.8549503,18.15075 C10.6434503,18.45525 10.3299503,18.906 10.1027003,19.23375 C9.93095028,19.48125 9.61595028,19.5975 9.33020028,19.5 C8.32820028,19.158 7.38995028,18.624 6.57545028,17.913 C6.34745028,17.715 6.29045028,17.38275 6.41945028,17.10975 C6.58970028,16.749 6.82445028,16.25175 6.98270028,15.91575 C7.08995028,15.68775 7.05620028,15.426 6.91220028,15.219 C6.81695028,15.081 6.72695028,14.9385 6.64220028,14.7915 C6.55745028,14.6445 6.47870028,14.49525 6.40670028,14.34375 C6.29870028,14.11575 6.08720028,13.95525 5.83520028,13.93425 L4.52195028,13.8255 C4.22120028,13.8 3.96170028,13.58475 3.90395028,13.28925 C3.69545028,12.22875 3.70145028,11.14875 3.90545028,10.11075 C3.96395028,9.81525 4.22345028,9.6 4.52345028,9.57525 L5.83520028,9.46575 C6.08795028,9.44475 6.29945028,9.2835 6.40745028,9.05475 C6.55070028,8.75175 6.71870028,8.46 6.91145028,8.18175 C7.05470028,7.974 7.08995028,7.713 6.98195028,7.48425 C6.70745028,6.9015 6.20345028,5.8335 6.20345028,5.8335 L6.20870028,5.82825 C6.69695028,5.3475 7.25420028,4.92075 7.87520028,4.56225 C8.49695028,4.203 9.14570028,3.9345 9.80720028,3.75225 L9.81320028,3.75 L10.8534503,5.24775 C10.9974503,5.45475 11.2434503,5.55825 11.4954503,5.53725 C11.8322003,5.51025 12.1697003,5.511 12.5034503,5.538 C12.7562003,5.559 12.9999503,5.45775 13.1447003,5.25 C13.3562003,4.9455 13.6697003,4.49475 13.8969503,4.167 C14.0687003,3.92025 14.3837003,3.80325 14.6694503,3.90075 C15.6707003,4.24275 16.6097003,4.7775 17.4242003,5.48775 C17.6522003,5.6865 17.7092003,6.018 17.5802003,6.291 C17.4099503,6.65175 17.1752003,7.149 17.0169503,7.485 C16.9097003,7.713 16.9434503,7.97475 17.0874503,8.1825 C17.1827003,8.31975 17.2727003,8.46225 17.3574503,8.60925 Z"/>
  </g>
</svg>
