<svg xmlns="http://www.w3.org/2000/svg" width="24" height="24" viewBox="0 0 24 24">
  <g fill="none" fill-rule="evenodd" transform="translate(5 2)">
    <path stroke="#FFF" stroke-linecap="round" stroke-linejoin="round" stroke-width="1.5" d="M10.8887625,7.1435 L10.8887625,4.5325 C10.8887625,2.512125 9.1483875,0.875 7.0002625,0.875 C4.8530125,0.875 3.1108875,2.512125 3.1108875,4.5325 L3.1108875,7.1435"/>
    <path stroke="#FFF" stroke-linecap="round" stroke-linejoin="round" stroke-width="1.5" d="M13.125,18.8099042 L0.875,18.8099042 C0.391125,18.8099042 0,18.4423984 0,17.9895788 L0,7.96356282 C0,7.51074324 0.391125,7.1432375 0.875,7.1432375 L13.125,7.1432375 C13.608875,7.1432375 14,7.51074324 14,7.96356282 L14,17.9895788 C14,18.4423984 13.608875,18.8099042 13.125,18.8099042 Z"/>
    <path fill="#FFF" d="M9.33333333,12.8333333 C9.33333333,14.1225 8.288,15.1666667 7,15.1666667 C5.712,15.1666667 4.66666667,14.1225 4.66666667,12.8333333 C4.66666667,11.5441667 5.712,10.5 7,10.5 C8.288,10.5 9.33333333,11.5441667 9.33333333,12.8333333"/>
  </g>
</svg>
