<?xml version="1.0" encoding="utf-8"?>
<!-- Generator: Adobe Illustrator 22.1.0, SVG Export Plug-In . SVG Version: 6.00 Build 0)  -->
<svg version="1.1" id="Layer_1" xmlns="http://www.w3.org/2000/svg" xmlns:xlink="http://www.w3.org/1999/xlink" x="0px" y="0px"
	 viewBox="0 0 43.4 34.5" style="enable-background:new 0 0 43.4 34.5;" xml:space="preserve">
<style type="text/css">
	.st0{fill:#FFFFFF;}
</style>
<g id="Layer_2_1_">
</g>
<path class="st0" d="M27.7,25.3H2.2c-1.2,0-2.2-1-2.2-2.2V2.2C0,1,1,0,2.2,0h25.5c1.2,0,2.2,1,2.2,2.2V23
	C29.9,24.3,28.9,25.3,27.7,25.3z M3.1,2c-0.5,0-1,0.4-1,1v19.4c0,0.5,0.4,1,1,1h23.8c0.5,0,1-0.4,1-1V3c0-0.5-0.4-1-1-1H3.1z"/>
<g>
	<g>
		<g>
			<path class="st0" d="M20.1,24.4c0,0.1,0.1-0.4,0.1-0.3c0.1,0.3,0.2,0.6,0.3,0.9c0.1,0.4,0.4,0.9,0.6,1.2l-1.7,3.2
				c-0.1,0.3-0.1,0.7,0.1,0.9l4.3,3.2c0.3,0.1,0.6,0.1,0.9,0l2.6-2.6c0.9,0.1,1.7,0.3,2.6,0.3l1.9,3c0.1,0.3,0.6,0.4,0.9,0.3
				l4.9-2.2c0.3-0.1,0.4-0.4,0.4-0.9l-1-3.5c0.6-0.7,1.2-1.4,1.6-2.2l3.6-0.1c0.3,0,0.6-0.3,0.6-0.6l0.6-5.5c0-0.3-0.1-0.6-0.4-0.7
				l-3.5-0.9c-0.1-0.4-0.3-0.9-0.4-1.3c-0.1-0.4-0.4-0.9-0.6-1.2l1.7-3.2c0.1-0.3,0.1-0.7-0.1-0.9l-4.3-3.2c-0.3-0.1-0.6-0.1-0.9,0
				l-2.6,2.6c-0.9-0.1-1.7-0.3-2.6-0.3h-1.6v13.2L20.1,24.4z M28.6,24.5C29,24.1,29.3,13,29.7,13c2.9,0,5.6,1.7,6.9,4.6
				c1.7,4,0,8.5-3.9,10.2s-8.1,0.6-9.8-2.9L28.6,24.5z"/>
		</g>
	</g>
</g>
<g>
	<path class="st0" d="M8,7.1h2.7l3.9,11.1h-2.5l-0.7-2.3H7.3l-0.8,2.3H4.1L8,7.1z M7.9,14h2.8L9.3,9.6L7.9,14z"/>
	<path class="st0" d="M22.5,7.3c0.8,0.3,1.4,0.7,1.9,1.4c0.4,0.6,0.7,1.2,0.8,1.8c0.1,0.6,0.2,1.3,0.2,1.8c0,1.5-0.3,2.7-0.9,3.8
		c-0.8,1.4-2,2.1-3.7,2.1H16V7.1h4.8C21.5,7.1,22.1,7.2,22.5,7.3z M18.3,9v7.3h2.1c1.1,0,1.9-0.5,2.3-1.6c0.2-0.6,0.4-1.3,0.4-2.1
		c0-1.1-0.2-2-0.5-2.6c-0.4-0.6-1.1-0.9-2.1-0.9h-2.2V9z"/>
</g>
</svg>
