<svg xmlns="http://www.w3.org/2000/svg" width="24" height="24" viewBox="0 0 24 24">
  <g fill="none" fill-rule="evenodd" stroke="#FFF" stroke-linecap="round" stroke-linejoin="round" stroke-width="1.5" transform="translate(5 3)">
    <path d="M13.75,9.509775 L13.75,5.999775 C13.75,5.585775 13.414,5.249775 13,5.249775 L1,5.249775 C0.586,5.249775 0.25,5.585775 0.25,5.999775 L0.25,9.509775 C0.25,9.665775 0.29875,9.818775 0.3895,9.945525 L3.8605,14.804775 C3.95125,14.931525 4,15.083775 4,15.240525 L4,17.249775 C4,17.664525 4.336,17.999775 4.75,17.999775 L9.25,17.999775 C9.664,17.999775 10,17.664525 10,17.249775 L10,15.240525 C10,15.083775 10.04875,14.931525 10.1395,14.804775 L13.6105,9.945525 C13.70125,9.818775 13.75,9.665775 13.75,9.509775 Z"/>
    <polyline points="9.25 5.25 9.25 0 9.25 5.25"/>
    <path d="M4.75 5.25L4.75 0M4 15L10 15"/>
  </g>
</svg>
