<svg xmlns="http://www.w3.org/2000/svg" width="24" height="24" viewBox="0 0 24 24">
  <g fill="none" fill-rule="evenodd" transform="translate(2 2)">
    <path stroke="#FFF" stroke-linecap="round" stroke-linejoin="round" stroke-width="1.5" d="M2.39905222 9.0405C3.08738555 6.43216667 5.08238555 4.3555 7.64155222 3.55216667M11.8583022 18.693C11.2624689 18.838 10.6399689 18.9146667 9.99996888 18.9146667 7.93913555 18.9146667 6.06413555 18.1213333 4.66246888 16.8246667M15.7613022 5.70475C17.0638022 7.10808333 17.8613022 8.98725 17.8613022 11.0530833 17.8613022 11.6505833 17.7946356 12.2314167 17.6688022 12.7905833"/>
    <path fill="#FFF" d="M12.3583856 3.19166667C12.3583856 4.49416667 11.3025522 5.55 10.0000522 5.55 8.69755222 5.55 7.64171888 4.49416667 7.64171888 3.19166667 7.64171888 1.89 8.69755222.833333333 10.0000522.833333333 11.3025522.833333333 12.3583856 1.89 12.3583856 3.19166667M2.01288555 12.9410833C3.14121888 12.29025 4.58288555 12.6769167 5.23455222 13.8044167 5.88538555 14.93275 5.49955222 16.3744167 4.37121888 17.0260833 3.24371888 17.67775 1.80121888 17.2910833 1.14955222 16.16275.498718883 15.03525.884552217 13.5919167 2.01288555 12.9410833M15.6286356 17.0263333C14.5003022 16.3746667 14.1144689 14.9321667 14.7653022 13.8046667 15.4169689 12.6763333 16.8594689 12.2896667 17.9869689 12.9413333 19.1153022 13.5921667 19.5011356 15.0346667 18.8503022 16.163 18.1986356 17.2905 16.7569689 17.6771667 15.6286356 17.0263333"/>
  </g>
</svg>
