<?xml version="1.0" encoding="utf-8"?>
<!-- Generator: Adobe Illustrator 19.2.1, SVG Export Plug-In . SVG Version: 6.00 Build 0)  -->
<svg version="1.1" id="Layer_1" xmlns="http://www.w3.org/2000/svg" xmlns:xlink="http://www.w3.org/1999/xlink" x="0px" y="0px"
	 viewBox="0 0 32 32" style="enable-background:new 0 0 32 32;" xml:space="preserve">
<style type="text/css">
	.st0{fill:#FFFFFF;}
</style>
<path class="st0" d="M13.5,8.7c0-0.3,0.1-0.5,0.1-0.8c0-0.3,0-0.5-0.1-0.8l1.7-1.3c0.1-0.1,0.2-0.3,0.1-0.5l-1.6-2.7
	c-0.1-0.2-0.3-0.2-0.5-0.2l-2,0.8c-0.4-0.3-0.9-0.6-1.3-0.8L9.6,0.3C9.6,0.1,9.4,0,9.2,0H6.1C5.9,0,5.7,0.1,5.7,0.3L5.4,2.4
	C4.9,2.6,4.5,2.9,4.1,3.2l-2-0.8c-0.2-0.1-0.4,0-0.5,0.2L0.1,5.3C0,5.5,0,5.7,0.1,5.8l1.7,1.3c0,0.3-0.1,0.5-0.1,0.8
	c0,0.3,0,0.5,0.1,0.8L0.1,10C0,10.1,0,10.3,0.1,10.5l1.6,2.7c0.1,0.2,0.3,0.2,0.5,0.2l2-0.8c0.4,0.3,0.9,0.6,1.3,0.8l0.3,2.1
	c0,0.2,0.2,0.3,0.4,0.3h3.2c0.2,0,0.4-0.1,0.4-0.3l0.3-2.1c0.5-0.2,0.9-0.5,1.3-0.8l2,0.8c0.2,0.1,0.4,0,0.5-0.2l1.6-2.7
	c0.1-0.2,0.1-0.4-0.1-0.5L13.5,8.7z M7.7,12.4c-2.5,0-4.5-2-4.5-4.5s2-4.5,4.5-4.5s4.5,2,4.5,4.5S10.1,12.4,7.7,12.4z"/>
<path class="st0" d="M21.6,14.6c0-0.1-0.1-0.3-0.2-0.4c-0.1-0.1-0.1-0.3-0.2-0.4l0.6-1.1c0.1-0.1,0-0.2-0.1-0.3l-1.5-1.1
	c-0.1-0.1-0.2-0.1-0.3,0l-0.9,0.9c-0.3-0.1-0.6-0.1-0.9-0.1L17.5,11c-0.1-0.1-0.2-0.1-0.3-0.1l-1.7,0.8c-0.1,0-0.2,0.2-0.1,0.3
	l0.3,1.2c-0.2,0.2-0.4,0.5-0.5,0.7l-1.3,0c-0.1,0-0.2,0.1-0.2,0.2L13.4,16c0,0.1,0.1,0.2,0.2,0.3l1.2,0.3c0,0.1,0.1,0.3,0.2,0.4
	c0.1,0.1,0.1,0.3,0.2,0.4l-0.6,1.1c-0.1,0.1,0,0.2,0.1,0.3l1.5,1.1c0.1,0.1,0.2,0.1,0.3,0l0.9-0.9c0.3,0.1,0.6,0.1,0.9,0.1l0.7,1.1
	c0.1,0.1,0.2,0.1,0.3,0.1l1.7-0.8c0.1,0,0.2-0.2,0.1-0.3L20.8,18c0.2-0.2,0.4-0.5,0.5-0.7l1.3,0c0.1,0,0.2-0.1,0.2-0.2l0.2-1.9
	c0-0.1-0.1-0.2-0.2-0.3L21.6,14.6z M19.3,18c-1.4,0.6-2.9,0-3.5-1.4c-0.6-1.4,0-2.9,1.4-3.5c1.4-0.6,2.9,0,3.5,1.4
	C21.3,15.8,20.7,17.4,19.3,18z"/>
</svg>
