<?xml version="1.0" encoding="utf-8"?>
<!-- Generator: Adobe Illustrator 19.2.1, SVG Export Plug-In . SVG Version: 6.00 Build 0)  -->
<svg version="1.1" id="Layer_1" xmlns="http://www.w3.org/2000/svg" xmlns:xlink="http://www.w3.org/1999/xlink" x="0px" y="0px"
	 viewBox="0 0 32 32" style="enable-background:new 0 0 32 32;" xml:space="preserve">
<style type="text/css">
	.st0{fill:#FFFFFF;}
	.st1{fill:#F7921C;}
</style>
<circle class="st0" cx="9.7" cy="9.6" r="8.6"/>
<g>
	<path class="st1" d="M11.1,10.5C10.4,10,9.7,9.8,8.9,9.7c-0.2,0.8-0.4,1.6-0.7,2.4c0.3,0.1,0.6,0.2,1,0.3c0.5,0.1,1.1,0.2,1.6,0.1
		c0.3-0.1,0.5-0.2,0.7-0.5C11.8,11.4,11.6,10.9,11.1,10.5z"/>
	<path class="st1" d="M11.6,7.1c-0.5-0.4-1.2-0.6-1.8-0.7C9.6,7.1,9.4,7.9,9.2,8.6c0.6,0.2,1.3,0.4,1.9,0.3c0.5,0,0.8-0.3,0.9-0.7
		C12.1,7.8,12,7.4,11.6,7.1z"/>
	<path class="st1" d="M9.6,0C4.3,0,0,4.3,0,9.6s4.3,9.6,9.6,9.6c5.3,0,9.6-4.3,9.6-9.6S14.8,0,9.6,0z M14.1,8.6
		c-0.2,0.7-0.6,1.1-1.3,1.2c0.2,0.2,0.4,0.3,0.6,0.5c0.6,0.6,0.6,1.3,0.3,2.1c-0.4,1.2-1.3,1.8-2.7,1.7c-0.4,0-0.8-0.1-1.3-0.2
		c-0.2,0.6-0.3,1.2-0.5,1.8c-0.4-0.1-0.7-0.2-1.1-0.3c0.2-0.6,0.3-1.1,0.5-1.7c-0.3-0.1-0.6-0.2-0.9-0.2c-0.1,0.3-0.2,0.6-0.2,0.9
		c-0.1,0.3-0.2,0.6-0.2,0.9C7,15,6.6,14.9,6.2,14.8c0.2-0.6,0.3-1.2,0.5-1.8c-0.7-0.2-1.5-0.4-2.2-0.6c0.2-0.4,0.4-0.8,0.5-1.1
		c0,0,0.1-0.1,0.2-0.1c0.2,0,0.4,0.1,0.6,0.2c0.3,0.1,0.5,0,0.6-0.4c0.3-1.2,0.7-2.3,1-3.5c0.1-0.4,0.2-0.8,0.3-1.1
		c0.1-0.4,0-0.7-0.4-0.8C7.1,5.6,6.8,5.5,6.6,5.4C6.7,5,6.8,4.7,6.9,4.3C7.6,4.5,8.3,4.7,9,4.9c0.2-0.6,0.3-1.2,0.5-1.8
		c0.4,0.1,0.7,0.2,1.1,0.3c-0.2,0.6-0.3,1.1-0.5,1.7c0.3,0.1,0.6,0.2,0.9,0.2c0.2-0.6,0.3-1.1,0.5-1.7c0.4,0.1,0.7,0.2,1.1,0.3
		c-0.1,0.2-0.1,0.4-0.2,0.7c-0.1,0.3-0.2,0.6-0.2,0.9c-0.1,0.2,0,0.3,0.2,0.3c0.4,0.2,0.9,0.5,1.3,0.8C14.2,7.1,14.3,7.8,14.1,8.6z"
		/>
</g>
</svg>
