<?xml version="1.0" encoding="utf-8"?>
<!-- Generator: Adobe Illustrator 20.1.0, SVG Export Plug-In . SVG Version: 6.00 Build 0)  -->
<svg version="1.2" baseProfile="tiny" id="Layer_1_copy"
	 xmlns="http://www.w3.org/2000/svg" xmlns:xlink="http://www.w3.org/1999/xlink" x="0px" y="0px" viewBox="0 0 48 48"
	 xml:space="preserve">
<g>
	<g>
		<path fill="#666666" d="M6.5,46.4c-1.2,0-2.5,0-3.7,0c-0.7,0-1-0.2-1-1c0-2.5,0-5.1,0-7.6c0-0.5,0.3-1,0.6-1.4
			c8.7-8.7,17.4-17.4,26-26.1c0.5-0.5,0.8-0.6,1.4,0c2.6,2.7,5.3,5.4,8,8c0.5,0.5,0.6,0.8,0,1.4c-8.7,8.7-17.4,17.4-26.2,26.1
			c-0.3,0.3-0.9,0.5-1.4,0.6C9.1,46.5,7.8,46.4,6.5,46.4z"/>
		<path fill="#666666" d="M46.2,9.3c0.3,0.5,0.3,1.2,0,1.7c-0.2,0.4-0.4,0.7-0.7,1c-1.2,1.3-2.5,2.5-3.8,3.8c-0.5,0.5-0.8,0.5-1.3,0
			c-2.7-2.7-5.4-5.4-8.1-8.1c-0.5-0.5-0.5-0.8,0-1.3c1.3-1.2,2.5-2.6,3.8-3.8c1.3-1.2,2.6-1.2,3.8,0c1.9,1.8,3.7,3.6,5.5,5.5
			C45.8,8.5,46,8.9,46.2,9.3z"/>
	</g>
</g>
</svg>
