<?xml version="1.0" encoding="utf-8"?>
<!-- Generator: Adobe Illustrator 19.2.1, SVG Export Plug-In . SVG Version: 6.00 Build 0)  -->
<svg version="1.1" id="Layer_1" xmlns="http://www.w3.org/2000/svg" xmlns:xlink="http://www.w3.org/1999/xlink" x="0px" y="0px"
	 viewBox="0 0 32 32" style="enable-background:new 0 0 32 32;" xml:space="preserve">
<style type="text/css">
	.st0{fill:#FFFFFF;}
</style>
<path class="st0" d="M19,1.9C19,0.9,18.1,0,17.1,0H1.9C0.9,0,0,0.9,0,1.9v12.2C0,15.1,0.9,16,1.9,16h15.2c1.1,0,1.9-0.9,1.9-1.9V1.9
	z M10,13.6c0,0.2-0.2,0.4-0.4,0.4H2.4C2.2,14,2,13.8,2,13.6V2.4C2,2.2,2.2,2,2.4,2h7.2C9.8,2,10,2.2,10,2.4V13.6z"/>
<rect x="4" y="4" class="st0" width="4" height="1"/>
<rect x="4" y="7" class="st0" width="4" height="1"/>
<rect x="4" y="10" class="st0" width="4" height="1"/>
</svg>
