<?xml version="1.0" encoding="utf-8"?>
<!-- Generator: Adobe Illustrator 19.2.1, SVG Export Plug-In . SVG Version: 6.00 Build 0)  -->
<svg version="1.1" id="Layer_1" xmlns="http://www.w3.org/2000/svg" xmlns:xlink="http://www.w3.org/1999/xlink" x="0px" y="0px"
	 viewBox="0 0 32 32" style="enable-background:new 0 0 32 32;" xml:space="preserve">
<style type="text/css">
	.st0{fill:#FFFFFF;}
</style>
<path class="st0" d="M11.8,6.8V5.2C11.8,2.3,9.5,0,6.6,0C3.8,0,1.4,2.3,1.4,5.2v1.6C0.5,7.3,0,8.3,0,9.4V17c0,1.6,1.3,2.8,2.9,2.8
	h7.6c1.6,0,2.9-1.3,2.9-2.8V9.4C13.4,8.3,12.7,7.3,11.8,6.8z M7.8,13.8v2c0,0.6-0.5,1.2-1.1,1.2h0c-0.6,0-1.2-0.5-1.2-1.2v-2
	c-0.6-0.4-1-1.1-1-1.9c0-1.2,1-2.2,2.2-2.2c1.2,0,2.2,1,2.2,2.2C8.9,12.7,8.5,13.4,7.8,13.8z M10,6.5H3.3V5.2c0-1.9,1.5-3.4,3.4-3.4
	c1.9,0,3.4,1.5,3.4,3.4V6.5z"/>
</svg>
