<?xml version="1.0" encoding="utf-8"?>
<!-- Generator: Adobe Illustrator 19.2.1, SVG Export Plug-In . SVG Version: 6.00 Build 0)  -->
<svg version="1.1" id="Layer_1" xmlns="http://www.w3.org/2000/svg" xmlns:xlink="http://www.w3.org/1999/xlink" x="0px" y="0px"
	 viewBox="0 0 32 32" style="enable-background:new 0 0 32 32;" xml:space="preserve">
<style type="text/css">
	.st0{fill:#FFFFFF;}
</style>
<path class="st0" d="M6.9,0c0.3,0,0.6,0,0.8,0C8,0,8.3,0.1,8.5,0.1c1,0.2,1.9,0.5,2.8,1c0.7,0.5,1.3,1,1.9,1.7
	c0.7,0.9,1.1,1.8,1.4,2.9c0.2,0.8,0.2,1.6,0.1,2.4c-0.1,1.2-0.5,2.3-1.2,3.3c-0.3,0.4-0.3,0.4,0.2,0.7c0.2,0.1,0.4,0.2,0.6,0.1
	c0.2-0.1,0.3-0.1,0.5,0c0.2,0.1,0.5,0.3,0.7,0.5c0.4,0.3,0.7,0.7,1.1,1.1c1.2,1.3,2.5,2.5,3.7,3.8c0.4,0.4,0.4,0.9,0,1.3
	c-0.2,0.2-0.4,0.4-0.6,0.6c-0.4,0.3-0.7,0.8-1.2,1c-0.1,0-0.3,0-0.4,0c-0.2-0.1-0.4-0.2-0.6-0.4c-0.5-0.6-1.1-1.1-1.6-1.7
	c-1-1.1-2.1-2.1-3.1-3.2c-0.2-0.2-0.3-0.4-0.4-0.6c-0.1-0.1-0.1-0.3,0-0.5c0.1-0.1,0.1-0.2,0.1-0.4c0-0.3-0.2-0.4-0.4-0.6
	c0,0-0.1,0-0.1,0.1c-0.6,0.5-1.3,0.8-2,1.1c-0.7,0.3-1.5,0.4-2.2,0.4c-1,0-1.9-0.1-2.8-0.5c-0.7-0.3-1.4-0.7-2-1.2
	c-0.6-0.5-1.1-1.1-1.6-1.8c-0.6-1-1-2-1.1-3.2c-0.1-1.3,0.1-2.5,0.6-3.7c0.5-1.1,1.2-2,2.1-2.7c0.9-0.8,2-1.3,3.1-1.5
	C6.2,0.1,6.6,0.1,6.9,0z M7.3,12.4c2.8,0,5.1-2.2,5.1-5c0-2.7-2.1-5.1-5-5.1c-2.7,0-5.1,2.2-5.1,5C2.2,10,4.4,12.4,7.3,12.4z"/>
</svg>
