<?xml version="1.0" encoding="utf-8"?>
<!-- Generator: Adobe Illustrator 20.1.0, SVG Export Plug-In . SVG Version: 6.00 Build 0)  -->
<svg version="1.2" baseProfile="tiny" id="Layer_1_copy"
	 xmlns="http://www.w3.org/2000/svg" xmlns:xlink="http://www.w3.org/1999/xlink" x="0px" y="0px" viewBox="0 0 48 48"
	 xml:space="preserve">
<g>
</g>
<g>
	<g>
		<path fill="#808080" d="M18.7,29.1c0.2,1.2,0.5,2.1,1,2.7c0.9,1.1,2.4,1.6,4.6,1.6c1.3,0,2.4-0.1,3.2-0.4c1.5-0.5,2.3-1.5,2.3-3
			c0-0.9-0.4-1.5-1.1-2c-0.8-0.5-2-0.9-3.6-1.2l-2.8-0.6c-2.8-0.6-4.7-1.3-5.7-2C14.8,22.9,14,21,14,18.4c0-2.3,0.9-4.3,2.6-5.8
			s4.2-2.3,7.5-2.3c2.8,0,5.1,0.7,7.1,2.2c2,1.5,3,3.6,3.1,6.3H29c-0.1-1.6-0.8-2.7-2.1-3.3c-0.9-0.4-1.9-0.7-3.2-0.7
			c-1.4,0-2.6,0.3-3.4,0.8C19.4,16.3,19,17,19,18.1c0,0.9,0.4,1.6,1.3,2.1c0.5,0.3,1.7,0.7,3.5,1.1l4.6,1.1c2,0.5,3.5,1.1,4.5,1.9
			c1.5,1.2,2.3,3,2.3,5.3c0,2.4-0.9,4.3-2.8,5.9c-1.8,1.6-4.4,2.4-7.8,2.4c-3.4,0-6.1-0.8-8.1-2.3c-2-1.5-2.9-3.7-2.9-6.4H18.7z"/>
	</g>
	<path fill="#FF5500" d="M35.1,39.3L8.6,12.8c-0.5-0.5-0.5-1.3,0-1.8l2.5-2.5c0.5-0.5,1.3-0.5,1.8,0L39.5,35c0.5,0.5,0.5,1.3,0,1.8
		l-2.5,2.5C36.4,39.8,35.6,39.8,35.1,39.3z"/>
	<circle fill="none" stroke="#FF5500" stroke-width="5.377" stroke-miterlimit="10" cx="24" cy="24" r="19.9"/>
</g>
</svg>
