<?xml version="1.0" encoding="utf-8"?>
<!-- Generator: Adobe Illustrator 20.1.0, SVG Export Plug-In . SVG Version: 6.00 Build 0)  -->
<svg version="1.2" baseProfile="tiny" id="Layer_1_copy"
   xmlns="http://www.w3.org/2000/svg" xmlns:xlink="http://www.w3.org/1999/xlink" x="0px" y="0px" viewBox="0 0 48 48"
   xml:space="preserve">
<g>
  <g id="_x32_pZqHx.tif_9_">
    <g>
      <path fill="#000" d="M37.2,40C26,40,14.9,40,3.8,40c0-0.1,0-0.2,0-0.3c0-1.2,0-2.3,0-3.5c-0.1-1.6,0.6-2.9,1.7-3.9
        c1.3-1.2,2.8-2,4.4-2.6c2.6-1.1,5.4-1.7,8.2-2c2.1-0.2,4.2-0.1,6.3,0.2c2.4,0.4,4.8,1,7.1,1.9c1.5,0.6,2.9,1.4,4.1,2.5
        c0.9,0.8,1.5,1.8,1.7,2.9c0,0.2,0,0.4,0,0.6c0,1.3,0,2.6,0,3.9C37.2,39.9,37.2,39.9,37.2,40z"/>
      <path fill="#000" d="M12.1,15.2c0-4.6,3.7-8.3,8.3-8.3c4.6,0,8.4,3.7,8.4,8.3c0,4.6-3.8,8.3-8.4,8.3
        C15.9,23.4,12.1,19.7,12.1,15.2z"/>
    </g>
  </g>
</g>
</svg>
