<?xml version="1.0" encoding="utf-8"?>
<!-- Generator: Adobe Illustrator 20.1.0, SVG Export Plug-In . SVG Version: 6.00 Build 0)  -->
<svg version="1.2" baseProfile="tiny" id="Layer_1_copy"
   xmlns="http://www.w3.org/2000/svg" xmlns:xlink="http://www.w3.org/1999/xlink" x="0px" y="0px" viewBox="0 0 48 48"
   xml:space="preserve">
<g>
  <g id="dgbAtP.tif_4_">
    <g>
      <path fill="#FFFFFF" d="M37.3,35.5c-0.9,0-1.8,0-2.7,0c-0.4,0-0.9,0-1.3,0c-2.4-0.3-4.1-1.4-5.2-3.6c-0.3-0.6-0.5-1.2-0.7-1.8
        c-0.5-1.3-1-2.5-1.5-3.8c-0.2-0.4-0.4-0.8-0.7-1.2c-0.6-0.7-1.4-0.7-2,0c-0.2,0.3-0.5,0.6-0.6,0.9c-0.4,0.9-0.8,1.8-1.2,2.8
        c-0.5,1.1-0.8,2.3-1.4,3.4c-0.8,1.7-2.3,2.7-4.2,3.1c-0.7,0.1-1.4,0.2-2.1,0.2c-0.9,0-1.8,0-2.7,0c-0.6,0-1.2,0-1.8-0.1
        c-3.3-0.6-5.6-2.4-6.6-5.7c-0.4-1.2-0.5-2.5-0.7-3.8c-0.1-0.7-0.3-1.3-0.9-1.8c0-1.1,0-2.2,0-3.3c1.6-0.2,2.8-0.5,4.2-0.6
        c4.5-0.4,9-0.1,13.5,0.8c3.3,0.7,6.7,0.8,10,0.1c3-0.6,5.9-1,8.9-1.1c3-0.1,6,0.1,9,0.6c0.3,0.1,0.4,0.2,0.4,0.5
        c0,0.8,0,1.7,0,2.5c0,0.2-0.1,0.4-0.2,0.7c-0.2,0.5-0.5,1-0.6,1.6c-0.2,0.9-0.2,1.9-0.4,2.8c-0.8,3.5-2.8,5.8-6.4,6.6
        C38.8,35.4,38,35.5,37.3,35.5z"/>
      <path fill="#FFFFFF" d="M4.3,18.6c0.5-0.4,0.9-0.7,1.3-1c2.2-1.6,4.4-3.2,6.6-4.8c0.9-0.6,1.9-1.1,2.9-1.3
        c1.5-0.3,2.6,0.4,3.6,1.4c0.3,0.3,0.3,0.8,0,1.2c-0.3,0.3-0.8,0.4-1.2,0.2c-0.3-0.2-0.6-0.4-0.8-0.6c-0.8-0.5-1.7-0.5-2.5-0.1
        c-0.4,0.2-0.8,0.5-1.1,0.8c-1.4,1.2-2.7,2.5-4.1,3.7c-0.2,0.2-0.4,0.3-0.8,0.3C7,18.4,5.8,18.5,4.3,18.6z"/>
      <path fill="#FFFFFF" d="M43.9,18.6c-1.5-0.1-2.8-0.1-4.2-0.2c-0.2,0-0.3-0.1-0.4-0.3c-1.4-1.2-2.8-2.5-4.1-3.7
        c-0.2-0.2-0.5-0.4-0.7-0.6c-1.1-0.7-2.1-0.7-3.2,0c-0.2,0.1-0.3,0.3-0.5,0.4c-0.4,0.3-0.9,0.2-1.2-0.2c-0.3-0.4-0.3-0.9,0.1-1.2
        c1.2-1.2,2.7-1.8,4.3-1.1c1.1,0.4,2.1,1,3.1,1.7c2.3,1.6,4.5,3.3,6.8,5C43.7,18.4,43.8,18.5,43.9,18.6z"/>
    </g>
  </g>
  <path fill="#FFFFFF" d="M37.3,35.6c-0.9,0-1.5,0-2.4,0c-0.4,0-1.2-0.1-1.6-0.2c-2.4-0.3-4.1-1.4-5.2-3.6c-0.3-0.6-0.5-1.2-0.7-1.8
    c-0.5-1.3-1-2.5-1.5-3.8c-0.2-0.4-0.4-0.8-0.7-1.2c-0.6-0.7-1.4-0.7-2,0c-0.2,0.3-0.5,0.6-0.6,0.9c-0.4,0.9-0.8,1.8-1.2,2.8
    c-0.5,1.1-0.8,2.3-1.4,3.4c-0.8,1.7-2.3,2.7-4.2,3.1c-0.7,0.1-1.4,0.2-2.1,0.2c-0.9,0-1.8,0-2.7,0c-0.6,0-1.2,0-1.8-0.1
    c-3.3-0.6-5.6-2.4-6.6-5.7c-0.4-1.2-0.5-2.5-0.7-3.8c-0.1-0.7-0.3-1.3-0.9-1.8c0-1.1,0-2.2,0-3.3c1.6-0.2,2.8-0.5,4.2-0.6
    c4.5-0.4,9-0.1,13.5,0.8c3.3,0.7,6.7,0.8,10,0.1c3-0.6,5.9-1,8.9-1.1c3-0.1,6,0.1,9,0.6c0.3,0.1,0.4,0.2,0.4,0.5c0,0.8,0,1.7,0,2.5
    c0,0.2-0.1,0.4-0.2,0.7c-0.2,0.5-0.5,1-0.6,1.6c-0.2,0.9-0.2,1.9-0.4,2.8c-0.8,3.5-2.8,5.8-6.4,6.6C38.8,35.4,38,35.6,37.3,35.6z"
    />
</g>
</svg>
