<svg width="52" height="48" xmlns="http://www.w3.org/2000/svg" xmlns:xlink="http://www.w3.org/1999/xlink">
  <defs>
    <filter x="-2.5%" y="-2.6%" width="105.1%" height="107.1%" filterUnits="objectBoundingBox" id="a">
      <feOffset dy="10" in="SourceAlpha" result="shadowOffsetOuter1"/>
      <feGaussianBlur stdDeviation="10" in="shadowOffsetOuter1" result="shadowBlurOuter1"/>
      <feColorMatrix values="0 0 0 0 0.0352941176 0 0 0 0 0.0352941176 0 0 0 0 0.0352941176 0 0 0 0.2 0" in="shadowBlurOuter1" result="shadowMatrixOuter1"/>
      <feMerge>
        <feMergeNode in="shadowMatrixOuter1"/>
        <feMergeNode in="SourceGraphic"/>
      </feMerge>
    </filter>
    <path d="M12.44923 11.52755c.18814.04602.35203.17913.42945.37268a.62581.62581 0 0 1 .02817.08915l2.67984 2.70452-.88208.87402-2.65423-2.67867c-.91629.31483-1.91797.4824-3.00556.4824-2.32745 0-4.21489-.75498-5.68155-2.01212-.88467-.75829-1.43636-1.52216-1.70347-2.05638l-.11501-.23003.08132-.24398c.18595-.55782.64535-1.34537 1.48726-2.12252.48616-.44876 1.0445-.83343 1.67795-1.1433L2.50307 3.254l.88208-.87402 2.67132 2.69593c.8815-.25805 1.87587-.39659 2.98835-.39659 2.60005 0 4.55503.75677 5.93144 2.0273.84191.77715 1.30132 1.5647 1.48726 2.12252l.08127.24381-.11482.22992c-.26678.53423-.81805 1.29808-1.70242 2.05634a8.21155 8.21155 0 0 1-.12748.10708c-.2648.21787-.65607.17984-.87394-.08495-.21787-.2648-.17984-.65607.08495-.87394a6.97 6.97 0 0 0 .1082-.09089c.436-.37382.796-.77401 1.0835-1.17238.07054-.09775.1298-.18528.17807-.26044-.03342-.06635-.07456-.1427-.12399-.22744-.22477-.38532-.52877-.7734-.92286-1.13718-.68938-.63635-1.5626-1.12157-2.64741-1.4072.78647.68296 1.2837 1.69025 1.2837 2.81392 0 .79756-.2505 1.53649-.67711 2.14242l.35605.35934zM5.724 6.50459c-.68996.28265-1.27604.66003-1.76837 1.11448-.39408.36377-.69808.75186-.92286 1.13718-.0494.08468-.0905.16098-.12392.2273.04833.07518.10766.16272.17827.26049.28778.39847.64804.79876 1.08428 1.17268.66717.57186 1.43562 1.0214 2.31422 1.31625-.718-.67903-1.1659-1.64069-1.1659-2.70718 0-.82404.26741-1.5855.7202-2.20236L5.724 6.5046zm5.47402 3.76023c.21024-.36464.3305-.78775.3305-1.23903 0-1.37196-1.11155-2.48352-2.48352-2.48352-.44314 0-.85912.11597-1.21924.31922l3.37226 3.40333zm-.86887.88734L6.9305 7.72222c-.234.37887-.36903.8254-.36903 1.30357 0 1.37197 1.11155 2.48353 2.48352 2.48353.47002 0 .90948-.13046 1.28415-.35716z" id="b"/>
  </defs>
  <g transform="translate(17 5)" filter="url(#a)" fill="none" fill-rule="evenodd">
    <mask id="c" fill="#fff">
      <use xlink:href="#b"/>
    </mask>
    <use fill="#7A7B80" fill-rule="nonzero" xlink:href="#b"/>
    <g mask="url(#c)" fill="#FFF">
      <path d="M-.75-.75h20v20h-20z"/>
    </g>
  </g>
</svg>