<svg xmlns="http://www.w3.org/2000/svg" viewBox="0 0 32 16"><defs><style>.cls-2{fill:#fff}</style></defs><g id="Layer_2" data-name="Layer 2"><g id="_32px" data-name="32"><path fill="none" d="M0 0h32v16H0z"/><path class="cls-2" d="M0 4.62v-2h8.32v2H5.43v8.81H2.87V4.62zM12 12a5.4 5.4 0 0 1-1.57-4A5.33 5.33 0 0 1 12 4a5.22 5.22 0 0 1 3.84-1.57A5.17 5.17 0 0 1 19.67 4a5.36 5.36 0 0 1 1.55 4 5.43 5.43 0 0 1-1.56 4 5.16 5.16 0 0 1-3.82 1.57A5.2 5.2 0 0 1 12 12zm5.85-1.71A3.26 3.26 0 0 0 18.61 8a3.24 3.24 0 0 0-.76-2.26 2.56 2.56 0 0 0-2-.85 2.58 2.58 0 0 0-2 .85A3.28 3.28 0 0 0 13 8a3.31 3.31 0 0 0 .76 2.27 2.6 2.6 0 0 0 2 .84 2.58 2.58 0 0 0 2.09-.85zM26.33 9.23v4.2h-2.57V2.62h4.16a4 4 0 0 1 2.85 1 3.09 3.09 0 0 1 1 2.34 3.46 3.46 0 0 1-.56 1.83A3 3 0 0 1 29.42 9L32 13.43h-3l-2.37-4.2zm0-4.61v2.6h1.59a1.24 1.24 0 0 0 .92-.35 1.29 1.29 0 0 0 .34-.93 1.32 1.32 0 0 0-.35-1 1.17 1.17 0 0 0-.91-.37z"/></g></g></svg>
